M48
; DRILL file {KiCad (6.0.2)} date Sun Mar 20 19:16:36 2022
; FORMAT={-:-/ absolute / metric / decimal}
; #@! TF.CreationDate,2022-03-20T19:16:36+02:00
; #@! TF.GenerationSoftware,Kicad,Pcbnew,(6.0.2)
; #@! TF.FileFunction,Plated,1,2,PTH
FMAT,2
METRIC
; #@! TA.AperFunction,Plated,PTH,ViaDrill
T1C0.400
; #@! TA.AperFunction,Plated,PTH,ComponentDrill
T2C0.500
; #@! TA.AperFunction,Plated,PTH,ComponentDrill
T3C0.700
; #@! TA.AperFunction,Plated,PTH,ComponentDrill
T4C1.000
; #@! TA.AperFunction,Plated,PTH,ComponentDrill
T5C1.300
%
G90
G05
T1
X85.9Y-100.9
X86.471Y-90.267
X88.3Y-94.0
X91.1Y-103.9
X91.1Y-107.1
X91.4Y-87.0
X94.0Y-86.2
X99.4Y-105.3
X106.6Y-82.6
X107.8Y-134.8
X112.9Y-134.8
X113.2Y-82.6
X114.2Y-93.3
X114.2Y-94.5
X117.8Y-137.2
X121.2Y-134.3
X121.8Y-152.3
X122.0Y-114.1
X123.3Y-132.0
X124.4Y-107.1
X127.4Y-130.7
X129.2Y-110.7
X130.9Y-111.0
X135.7Y-150.5
X140.6Y-97.8
X142.3Y-107.0
X144.7Y-107.1
X146.6Y-80.3
X147.8Y-81.5
X152.2Y-107.5
X153.9Y-101.7
X154.6Y-107.5
X156.3Y-101.3
X158.6Y-88.7
X159.219Y-87.45
X161.2Y-101.4
X162.1Y-145.2
X163.2Y-89.5
X163.7Y-85.4
X164.3Y-81.1
X164.9Y-101.7
X165.5Y-87.2
X165.8Y-92.6
X171.298Y-132.588
X172.8Y-91.0
X172.975Y-155.3
X172.975Y-157.1
X174.4Y-151.3
X174.8Y-98.3
X175.0Y-155.3
X175.5Y-145.1
X176.3Y-152.8
X176.5Y-91.0
X177.3Y-109.3
X178.1Y-157.1
X178.7Y-92.3
X182.2Y-106.2
T3
X179.75Y-94.095
X179.75Y-98.945
T4
X91.34Y-152.9
X93.88Y-152.9
X96.42Y-152.9
X98.96Y-152.9
X99.06Y-66.04
X99.06Y-76.2
X99.06Y-116.84
X99.06Y-127.0
X101.5Y-152.9
X101.6Y-66.04
X101.6Y-76.2
X101.6Y-116.84
X101.6Y-127.0
X104.04Y-152.9
X104.14Y-66.04
X104.14Y-76.2
X104.14Y-116.84
X104.14Y-127.0
X106.58Y-152.9
X106.68Y-66.04
X106.68Y-76.2
X106.68Y-116.84
X106.68Y-127.0
X109.12Y-152.9
X109.22Y-66.04
X109.22Y-76.2
X109.22Y-116.84
X109.22Y-127.0
X111.66Y-152.9
X111.76Y-66.04
X111.76Y-76.2
X111.76Y-116.84
X111.76Y-127.0
X114.2Y-152.9
X114.3Y-66.04
X114.3Y-76.2
X114.3Y-116.84
X114.3Y-127.0
X116.84Y-66.04
X116.84Y-76.2
X116.84Y-116.84
X116.84Y-127.0
X119.38Y-66.04
X119.38Y-76.2
X119.38Y-116.84
X119.38Y-127.0
X121.92Y-66.04
X121.92Y-76.2
X121.92Y-116.84
X121.92Y-127.0
X124.46Y-66.04
X124.46Y-76.2
X124.46Y-116.84
X124.46Y-127.0
X127.0Y-66.04
X127.0Y-76.2
X127.0Y-116.84
X127.0Y-127.0
X129.54Y-66.04
X129.54Y-76.2
X129.54Y-116.84
X129.54Y-127.0
X132.08Y-66.04
X132.08Y-76.2
X132.08Y-116.84
X132.08Y-127.0
X134.62Y-66.04
X134.62Y-76.2
X134.62Y-116.84
X134.62Y-127.0
X137.16Y-66.04
X137.16Y-76.2
X137.16Y-116.84
X137.16Y-127.0
X139.7Y-66.04
X139.7Y-76.2
X139.7Y-116.84
X139.7Y-127.0
X142.24Y-66.04
X142.24Y-76.2
X142.24Y-116.84
X142.24Y-127.0
X144.78Y-66.04
X144.78Y-76.2
X144.78Y-116.84
X144.78Y-127.0
X147.32Y-66.04
X147.32Y-76.2
X147.32Y-116.84
X147.32Y-127.0
X149.86Y-66.04
X149.86Y-76.2
X149.86Y-116.84
X149.86Y-127.0
X152.4Y-66.04
X152.4Y-76.2
X152.4Y-116.84
X152.4Y-127.0
X154.94Y-66.04
X154.94Y-76.2
X154.94Y-116.84
X154.94Y-127.0
X157.48Y-66.04
X157.48Y-76.2
X157.48Y-116.84
X157.48Y-127.0
X160.02Y-66.04
X160.02Y-76.2
X160.02Y-116.84
X160.02Y-127.0
X162.56Y-66.04
X162.56Y-76.2
X162.56Y-116.84
X162.56Y-127.0
X165.1Y-66.04
X165.1Y-76.2
X165.1Y-116.84
X165.1Y-127.0
X167.64Y-66.04
X167.64Y-76.2
X167.64Y-116.84
X167.64Y-127.0
X170.18Y-66.04
X170.18Y-76.2
X170.18Y-116.84
X170.18Y-127.0
X172.72Y-66.04
X172.72Y-76.2
X172.72Y-116.84
X172.72Y-127.0
X175.26Y-66.04
X175.26Y-76.2
X175.26Y-116.84
X175.26Y-127.0
X177.8Y-66.04
X177.8Y-76.2
X177.8Y-116.84
X177.8Y-127.0
X180.34Y-66.04
X180.34Y-76.2
X180.34Y-116.84
X180.34Y-127.0
T5
X137.82Y-152.8
X145.44Y-152.8
X155.6Y-152.8
X155.6Y-160.42
T2
G00X182.85Y-92.92
M15
G01X182.05Y-92.92
M16
G05
G00X182.85Y-100.12
M15
G01X182.05Y-100.12
M16
G05
T0
M30
