%TF.GenerationSoftware,KiCad,Pcbnew,(6.0.2)*%
%TF.CreationDate,2022-04-04T09:51:22+02:00*%
%TF.ProjectId,main,6d61696e-2e6b-4696-9361-645f70636258,rev?*%
%TF.SameCoordinates,Original*%
%TF.FileFunction,Soldermask,Top*%
%TF.FilePolarity,Negative*%
%FSLAX46Y46*%
G04 Gerber Fmt 4.6, Leading zero omitted, Abs format (unit mm)*
G04 Created by KiCad (PCBNEW (6.0.2)) date 2022-04-04 09:51:22*
%MOMM*%
%LPD*%
G01*
G04 APERTURE LIST*
G04 Aperture macros list*
%AMRoundRect*
0 Rectangle with rounded corners*
0 $1 Rounding radius*
0 $2 $3 $4 $5 $6 $7 $8 $9 X,Y pos of 4 corners*
0 Add a 4 corners polygon primitive as box body*
4,1,4,$2,$3,$4,$5,$6,$7,$8,$9,$2,$3,0*
0 Add four circle primitives for the rounded corners*
1,1,$1+$1,$2,$3*
1,1,$1+$1,$4,$5*
1,1,$1+$1,$6,$7*
1,1,$1+$1,$8,$9*
0 Add four rect primitives between the rounded corners*
20,1,$1+$1,$2,$3,$4,$5,0*
20,1,$1+$1,$4,$5,$6,$7,0*
20,1,$1+$1,$6,$7,$8,$9,0*
20,1,$1+$1,$8,$9,$2,$3,0*%
G04 Aperture macros list end*
%ADD10RoundRect,0.150000X0.825000X0.150000X-0.825000X0.150000X-0.825000X-0.150000X0.825000X-0.150000X0*%
%ADD11C,2.400000*%
%ADD12C,3.500000*%
%ADD13R,7.300000X6.400000*%
%ADD14R,1.500000X1.000000*%
%ADD15R,0.800000X0.900000*%
%ADD16RoundRect,0.140000X-0.140000X-0.170000X0.140000X-0.170000X0.140000X0.170000X-0.140000X0.170000X0*%
%ADD17RoundRect,0.135000X-0.135000X-0.185000X0.135000X-0.185000X0.135000X0.185000X-0.135000X0.185000X0*%
%ADD18RoundRect,0.200000X-0.275000X0.200000X-0.275000X-0.200000X0.275000X-0.200000X0.275000X0.200000X0*%
%ADD19R,1.000000X1.500000*%
%ADD20RoundRect,0.150000X0.150000X-0.587500X0.150000X0.587500X-0.150000X0.587500X-0.150000X-0.587500X0*%
%ADD21R,0.800000X0.550000*%
%ADD22R,1.250000X0.400000*%
%ADD23R,1.350000X0.600000*%
%ADD24C,1.300000*%
%ADD25O,1.900000X1.070000*%
%ADD26RoundRect,0.225000X0.225000X0.250000X-0.225000X0.250000X-0.225000X-0.250000X0.225000X-0.250000X0*%
%ADD27RoundRect,0.135000X0.135000X0.185000X-0.135000X0.185000X-0.135000X-0.185000X0.135000X-0.185000X0*%
%ADD28R,0.900000X1.200000*%
%ADD29RoundRect,0.150000X-0.150000X0.825000X-0.150000X-0.825000X0.150000X-0.825000X0.150000X0.825000X0*%
%ADD30R,1.100000X1.700000*%
%ADD31R,1.700000X1.700000*%
%ADD32O,1.700000X1.700000*%
%ADD33RoundRect,0.150000X-0.587500X-0.150000X0.587500X-0.150000X0.587500X0.150000X-0.587500X0.150000X0*%
%ADD34R,2.000000X2.000000*%
%ADD35RoundRect,0.135000X-0.185000X0.135000X-0.185000X-0.135000X0.185000X-0.135000X0.185000X0.135000X0*%
%ADD36RoundRect,0.218750X-0.218750X-0.256250X0.218750X-0.256250X0.218750X0.256250X-0.218750X0.256250X0*%
%ADD37RoundRect,0.150000X-0.825000X-0.150000X0.825000X-0.150000X0.825000X0.150000X-0.825000X0.150000X0*%
%ADD38R,2.300000X2.300000*%
%ADD39C,2.300000*%
%ADD40RoundRect,0.140000X-0.170000X0.140000X-0.170000X-0.140000X0.170000X-0.140000X0.170000X0.140000X0*%
%ADD41RoundRect,0.200000X-0.200000X-0.275000X0.200000X-0.275000X0.200000X0.275000X-0.200000X0.275000X0*%
%ADD42RoundRect,0.250000X0.325000X0.650000X-0.325000X0.650000X-0.325000X-0.650000X0.325000X-0.650000X0*%
%ADD43RoundRect,0.150000X0.587500X0.150000X-0.587500X0.150000X-0.587500X-0.150000X0.587500X-0.150000X0*%
%ADD44RoundRect,0.135000X0.185000X-0.135000X0.185000X0.135000X-0.185000X0.135000X-0.185000X-0.135000X0*%
%ADD45O,0.588000X2.045000*%
%ADD46RoundRect,0.250000X-0.450000X0.262500X-0.450000X-0.262500X0.450000X-0.262500X0.450000X0.262500X0*%
%ADD47R,1.200000X1.400000*%
%ADD48RoundRect,0.140000X0.140000X0.170000X-0.140000X0.170000X-0.140000X-0.170000X0.140000X-0.170000X0*%
%ADD49R,2.000000X1.500000*%
%ADD50R,2.000000X3.800000*%
%ADD51R,1.200000X1.200000*%
%ADD52R,1.600000X1.500000*%
G04 APERTURE END LIST*
D10*
%TO.C,U3*%
X160675000Y-89445000D03*
X160675000Y-88175000D03*
X160675000Y-86905000D03*
X160675000Y-85635000D03*
X160675000Y-84365000D03*
X160675000Y-83095000D03*
X160675000Y-81825000D03*
X160675000Y-80555000D03*
X155725000Y-80555000D03*
X155725000Y-81825000D03*
X155725000Y-83095000D03*
X155725000Y-84365000D03*
X155725000Y-85635000D03*
X155725000Y-86905000D03*
X155725000Y-88175000D03*
X155725000Y-89445000D03*
%TD*%
D11*
%TO.C,BT1*%
X163700000Y-147800000D03*
D12*
X100400000Y-147800000D03*
X155600000Y-131800000D03*
D13*
X167350000Y-139800000D03*
X88650000Y-139800000D03*
%TD*%
D14*
%TO.C,JP5*%
X88900000Y-104250000D03*
X88900000Y-105550000D03*
%TD*%
D15*
%TO.C,D1*%
X176850000Y-140400000D03*
X177800000Y-142400000D03*
X178750000Y-140400000D03*
%TD*%
D16*
%TO.C,C10*%
X86400000Y-85400000D03*
X87360000Y-85400000D03*
%TD*%
D17*
%TO.C,R15*%
X93090000Y-105600000D03*
X94110000Y-105600000D03*
%TD*%
D18*
%TO.C,R1*%
X179800000Y-107375000D03*
X179800000Y-109025000D03*
%TD*%
D19*
%TO.C,JP7*%
X167450000Y-81000000D03*
X166150000Y-81000000D03*
%TD*%
D20*
%TO.C,Q1*%
X179650000Y-104937500D03*
X181550000Y-104937500D03*
X180600000Y-103062500D03*
%TD*%
D21*
%TO.C,U7*%
X89800000Y-92475000D03*
X89800000Y-91725000D03*
X89800000Y-90975000D03*
X89800000Y-90225000D03*
X89800000Y-89475000D03*
X89800000Y-88725000D03*
X87800000Y-88725000D03*
X87800000Y-89475000D03*
X87800000Y-90225000D03*
X87800000Y-90975000D03*
X87800000Y-91725000D03*
X87800000Y-92475000D03*
%TD*%
D22*
%TO.C,U4*%
X179775000Y-97820000D03*
X179775000Y-97170000D03*
X179775000Y-96520000D03*
X179775000Y-95870000D03*
X179775000Y-95220000D03*
D23*
X182425000Y-97320000D03*
D24*
X179750000Y-94095000D03*
D23*
X182425000Y-95720000D03*
D25*
X182450000Y-100120000D03*
D24*
X179750000Y-98945000D03*
D25*
X182450000Y-92920000D03*
%TD*%
D17*
%TO.C,R7*%
X153580000Y-109600000D03*
X154600000Y-109600000D03*
%TD*%
D26*
%TO.C,C2*%
X167975000Y-98600000D03*
X166425000Y-98600000D03*
%TD*%
D27*
%TO.C,R4*%
X167800000Y-93200000D03*
X166780000Y-93200000D03*
%TD*%
D16*
%TO.C,C6*%
X150720000Y-88600000D03*
X151680000Y-88600000D03*
%TD*%
D14*
%TO.C,JP10*%
X148000000Y-108750000D03*
X148000000Y-110050000D03*
%TD*%
D28*
%TO.C,D7*%
X104350000Y-97800000D03*
X107650000Y-97800000D03*
%TD*%
D29*
%TO.C,U1*%
X171105000Y-105125000D03*
X169835000Y-105125000D03*
X168565000Y-105125000D03*
X167295000Y-105125000D03*
X167295000Y-110075000D03*
X168565000Y-110075000D03*
X169835000Y-110075000D03*
X171105000Y-110075000D03*
%TD*%
D10*
%TO.C,Q3*%
X105075000Y-111005000D03*
X105075000Y-109735000D03*
X105075000Y-108465000D03*
X105075000Y-107195000D03*
X100125000Y-107195000D03*
X100125000Y-108465000D03*
X100125000Y-109735000D03*
X100125000Y-111005000D03*
%TD*%
D17*
%TO.C,R17*%
X93080000Y-112900000D03*
X94100000Y-112900000D03*
%TD*%
%TO.C,R12*%
X96580000Y-97800000D03*
X97600000Y-97800000D03*
%TD*%
D19*
%TO.C,JP8*%
X167650000Y-85400000D03*
X166350000Y-85400000D03*
%TD*%
D14*
%TO.C,JP6*%
X88800000Y-97250000D03*
X88800000Y-95950000D03*
%TD*%
%TO.C,JP9*%
X143400000Y-108800000D03*
X143400000Y-110100000D03*
%TD*%
D30*
%TO.C,D5*%
X172200000Y-153200000D03*
X168800000Y-153200000D03*
%TD*%
D31*
%TO.C,J3*%
X180340000Y-76200000D03*
D32*
X177800000Y-76200000D03*
X175260000Y-76200000D03*
X172720000Y-76200000D03*
X170180000Y-76200000D03*
X167640000Y-76200000D03*
X165100000Y-76200000D03*
X162560000Y-76200000D03*
X160020000Y-76200000D03*
X157480000Y-76200000D03*
X154940000Y-76200000D03*
X152400000Y-76200000D03*
X149860000Y-76200000D03*
X147320000Y-76200000D03*
X144780000Y-76200000D03*
X142240000Y-76200000D03*
X139700000Y-76200000D03*
X137160000Y-76200000D03*
X134620000Y-76200000D03*
X132080000Y-76200000D03*
X129540000Y-76200000D03*
X127000000Y-76200000D03*
X124460000Y-76200000D03*
X121920000Y-76200000D03*
X119380000Y-76200000D03*
X116840000Y-76200000D03*
X114300000Y-76200000D03*
X111760000Y-76200000D03*
X109220000Y-76200000D03*
X106680000Y-76200000D03*
X104140000Y-76200000D03*
X101600000Y-76200000D03*
X99060000Y-76200000D03*
%TD*%
D33*
%TO.C,U8*%
X87800000Y-109300000D03*
X87800000Y-111200000D03*
X89675000Y-110250000D03*
%TD*%
D34*
%TO.C,D2*%
X171200000Y-101900000D03*
X171200000Y-97300000D03*
%TD*%
D27*
%TO.C,R5*%
X164110000Y-93200000D03*
X163090000Y-93200000D03*
%TD*%
D35*
%TO.C,R3*%
X159000000Y-100890000D03*
X159000000Y-101910000D03*
%TD*%
D27*
%TO.C,R8*%
X154620000Y-113000000D03*
X153600000Y-113000000D03*
%TD*%
D34*
%TO.C,D6*%
X160000000Y-154300000D03*
X160000000Y-158900000D03*
%TD*%
D36*
%TO.C,D8*%
X92412500Y-93200000D03*
X93987500Y-93200000D03*
%TD*%
D37*
%TO.C,U6*%
X176125000Y-156895000D03*
X176125000Y-158165000D03*
X176125000Y-159435000D03*
X176125000Y-160705000D03*
X181075000Y-160705000D03*
X181075000Y-159435000D03*
X181075000Y-158165000D03*
X181075000Y-156895000D03*
%TD*%
D17*
%TO.C,R16*%
X93080000Y-109100000D03*
X94100000Y-109100000D03*
%TD*%
D38*
%TO.C,K1*%
X155600000Y-152800000D03*
D39*
X145440000Y-152800000D03*
X137820000Y-152800000D03*
X155600000Y-160420000D03*
%TD*%
D31*
%TO.C,J2*%
X180340000Y-66040000D03*
D32*
X177800000Y-66040000D03*
X175260000Y-66040000D03*
X172720000Y-66040000D03*
X170180000Y-66040000D03*
X167640000Y-66040000D03*
X165100000Y-66040000D03*
X162560000Y-66040000D03*
X160020000Y-66040000D03*
X157480000Y-66040000D03*
X154940000Y-66040000D03*
X152400000Y-66040000D03*
X149860000Y-66040000D03*
X147320000Y-66040000D03*
X144780000Y-66040000D03*
X142240000Y-66040000D03*
X139700000Y-66040000D03*
X137160000Y-66040000D03*
X134620000Y-66040000D03*
X132080000Y-66040000D03*
X129540000Y-66040000D03*
X127000000Y-66040000D03*
X124460000Y-66040000D03*
X121920000Y-66040000D03*
X119380000Y-66040000D03*
X116840000Y-66040000D03*
X114300000Y-66040000D03*
X111760000Y-66040000D03*
X109220000Y-66040000D03*
X106680000Y-66040000D03*
X104140000Y-66040000D03*
X101600000Y-66040000D03*
X99060000Y-66040000D03*
%TD*%
D40*
%TO.C,C4*%
X133000000Y-156320000D03*
X133000000Y-157280000D03*
%TD*%
D41*
%TO.C,R6*%
X170175000Y-89000000D03*
X171825000Y-89000000D03*
%TD*%
D19*
%TO.C,JP2*%
X174700000Y-103400000D03*
X176000000Y-103400000D03*
%TD*%
D42*
%TO.C,C5*%
X134475000Y-161400000D03*
X131525000Y-161400000D03*
%TD*%
D36*
%TO.C,D9*%
X92512500Y-116300000D03*
X94087500Y-116300000D03*
%TD*%
D43*
%TO.C,Q2*%
X167137500Y-158550000D03*
X167137500Y-156650000D03*
X165262500Y-157600000D03*
%TD*%
D16*
%TO.C,C11*%
X91000000Y-85400000D03*
X91960000Y-85400000D03*
%TD*%
D44*
%TO.C,R10*%
X182100000Y-153710000D03*
X182100000Y-152690000D03*
%TD*%
D31*
%TO.C,J5*%
X180340000Y-127000000D03*
D32*
X177800000Y-127000000D03*
X175260000Y-127000000D03*
X172720000Y-127000000D03*
X170180000Y-127000000D03*
X167640000Y-127000000D03*
X165100000Y-127000000D03*
X162560000Y-127000000D03*
X160020000Y-127000000D03*
X157480000Y-127000000D03*
X154940000Y-127000000D03*
X152400000Y-127000000D03*
X149860000Y-127000000D03*
X147320000Y-127000000D03*
X144780000Y-127000000D03*
X142240000Y-127000000D03*
X139700000Y-127000000D03*
X137160000Y-127000000D03*
X134620000Y-127000000D03*
X132080000Y-127000000D03*
X129540000Y-127000000D03*
X127000000Y-127000000D03*
X124460000Y-127000000D03*
X121920000Y-127000000D03*
X119380000Y-127000000D03*
X116840000Y-127000000D03*
X114300000Y-127000000D03*
X111760000Y-127000000D03*
X109220000Y-127000000D03*
X106680000Y-127000000D03*
X104140000Y-127000000D03*
X101600000Y-127000000D03*
X99060000Y-127000000D03*
%TD*%
D45*
%TO.C,U5*%
X149105000Y-97828000D03*
X147835000Y-97828000D03*
X146565000Y-97828000D03*
X145295000Y-97828000D03*
X145295000Y-103372000D03*
X146565000Y-103372000D03*
X147835000Y-103372000D03*
X149105000Y-103372000D03*
%TD*%
D40*
%TO.C,C3*%
X159000000Y-97520000D03*
X159000000Y-98480000D03*
%TD*%
D30*
%TO.C,D3*%
X179000000Y-112200000D03*
X182400000Y-112200000D03*
%TD*%
D19*
%TO.C,JP1*%
X176400000Y-112200000D03*
X175100000Y-112200000D03*
%TD*%
D31*
%TO.C,J4*%
X180340000Y-116840000D03*
D32*
X177800000Y-116840000D03*
X175260000Y-116840000D03*
X172720000Y-116840000D03*
X170180000Y-116840000D03*
X167640000Y-116840000D03*
X165100000Y-116840000D03*
X162560000Y-116840000D03*
X160020000Y-116840000D03*
X157480000Y-116840000D03*
X154940000Y-116840000D03*
X152400000Y-116840000D03*
X149860000Y-116840000D03*
X147320000Y-116840000D03*
X144780000Y-116840000D03*
X142240000Y-116840000D03*
X139700000Y-116840000D03*
X137160000Y-116840000D03*
X134620000Y-116840000D03*
X132080000Y-116840000D03*
X129540000Y-116840000D03*
X127000000Y-116840000D03*
X124460000Y-116840000D03*
X121920000Y-116840000D03*
X119380000Y-116840000D03*
X116840000Y-116840000D03*
X114300000Y-116840000D03*
X111760000Y-116840000D03*
X109220000Y-116840000D03*
X106680000Y-116840000D03*
X104140000Y-116840000D03*
X101600000Y-116840000D03*
X99060000Y-116840000D03*
%TD*%
D31*
%TO.C,J1*%
X114200000Y-152900000D03*
D32*
X111660000Y-152900000D03*
X109120000Y-152900000D03*
X106580000Y-152900000D03*
X104040000Y-152900000D03*
X101500000Y-152900000D03*
X98960000Y-152900000D03*
X96420000Y-152900000D03*
X93880000Y-152900000D03*
X91340000Y-152900000D03*
%TD*%
D46*
%TO.C,R2*%
X163000000Y-96975000D03*
X163000000Y-98800000D03*
%TD*%
D40*
%TO.C,C9*%
X151800000Y-103320000D03*
X151800000Y-104280000D03*
%TD*%
D16*
%TO.C,C8*%
X150920000Y-80200000D03*
X151880000Y-80200000D03*
%TD*%
D44*
%TO.C,R9*%
X178600000Y-153710000D03*
X178600000Y-152690000D03*
%TD*%
D47*
%TO.C,X1*%
X150525000Y-83100000D03*
X150525000Y-85300000D03*
X152275000Y-85300000D03*
X152275000Y-83100000D03*
%TD*%
D48*
%TO.C,C1*%
X172080000Y-112800000D03*
X171120000Y-112800000D03*
%TD*%
D19*
%TO.C,JP3*%
X172950000Y-141600000D03*
X174250000Y-141600000D03*
%TD*%
D17*
%TO.C,R14*%
X92690000Y-89200000D03*
X93710000Y-89200000D03*
%TD*%
D35*
%TO.C,R11*%
X175000000Y-152790000D03*
X175000000Y-153810000D03*
%TD*%
D16*
%TO.C,C7*%
X157720000Y-93600000D03*
X158680000Y-93600000D03*
%TD*%
D17*
%TO.C,R13*%
X99980000Y-97800000D03*
X101000000Y-97800000D03*
%TD*%
D19*
%TO.C,JP4*%
X133850000Y-152800000D03*
X132550000Y-152800000D03*
%TD*%
D49*
%TO.C,U2*%
X128150000Y-157500000D03*
D50*
X121850000Y-155200000D03*
D49*
X128150000Y-155200000D03*
X128150000Y-152900000D03*
%TD*%
D36*
%TO.C,D4*%
X170225000Y-93200000D03*
X171800000Y-93200000D03*
%TD*%
D51*
%TO.C,RV1*%
X160400000Y-109200000D03*
D52*
X159000000Y-105950000D03*
D51*
X157600000Y-109200000D03*
%TD*%
M02*
