M48
; DRILL file {KiCad (6.0.2)} date Mon Apr  4 09:51:23 2022
; FORMAT={-:-/ absolute / inch / decimal}
; #@! TF.CreationDate,2022-04-04T09:51:23+02:00
; #@! TF.GenerationSoftware,Kicad,Pcbnew,(6.0.2)
; #@! TF.FileFunction,Plated,1,2,PTH
FMAT,2
INCH
; #@! TA.AperFunction,Plated,PTH,ViaDrill
T1C0.0157
; #@! TA.AperFunction,Plated,PTH,ComponentDrill
T2C0.0197
; #@! TA.AperFunction,Plated,PTH,ComponentDrill
T3C0.0276
; #@! TA.AperFunction,Plated,PTH,ComponentDrill
T4C0.0394
; #@! TA.AperFunction,Plated,PTH,ComponentDrill
T5C0.0512
%
G90
G05
T1
X3.3819Y-3.9724
X3.4044Y-3.5538
X3.4764Y-3.7008
X3.5866Y-4.0906
X3.5866Y-4.2165
X3.5984Y-3.4252
X3.7008Y-3.3937
X3.9134Y-4.1457
X4.1969Y-3.252
X4.2441Y-5.3071
X4.4449Y-5.3071
X4.4567Y-3.252
X4.4961Y-3.6732
X4.4961Y-3.7205
X4.6378Y-5.4016
X4.7717Y-5.2874
X4.7953Y-5.9961
X4.8031Y-4.4921
X4.8543Y-5.1969
X4.8976Y-4.2165
X5.0157Y-5.1457
X5.0866Y-4.3583
X5.1535Y-4.3701
X5.3425Y-5.9252
X5.5354Y-3.8504
X5.6024Y-4.2126
X5.6969Y-4.2165
X5.7717Y-3.1614
X5.8189Y-3.2087
X5.9921Y-4.2323
X6.0591Y-4.0039
X6.0866Y-4.2323
X6.1535Y-3.9882
X6.2441Y-3.4921
X6.2685Y-3.4429
X6.3465Y-3.9921
X6.3819Y-5.7165
X6.4252Y-3.5236
X6.4449Y-3.3622
X6.4685Y-3.1929
X6.4921Y-4.0039
X6.5157Y-3.4331
X6.5276Y-3.6457
X6.744Y-5.22
X6.8031Y-3.5827
X6.8101Y-6.1142
X6.8101Y-6.185
X6.8661Y-5.9567
X6.8819Y-3.8701
X6.8898Y-6.1142
X6.9094Y-5.7126
X6.9409Y-6.0157
X6.9488Y-3.5827
X6.9803Y-4.3031
X7.0118Y-6.185
X7.0354Y-3.6339
X7.1732Y-4.1811
T3
X7.0768Y-3.7045
X7.0768Y-3.8955
T4
X3.5961Y-6.0197
X3.6961Y-6.0197
X3.7961Y-6.0197
X3.8961Y-6.0197
X3.9Y-2.6
X3.9Y-3.0
X3.9Y-4.6
X3.9Y-5.0
X3.9961Y-6.0197
X4.0Y-2.6
X4.0Y-3.0
X4.0Y-4.6
X4.0Y-5.0
X4.0961Y-6.0197
X4.1Y-2.6
X4.1Y-3.0
X4.1Y-4.6
X4.1Y-5.0
X4.1961Y-6.0197
X4.2Y-2.6
X4.2Y-3.0
X4.2Y-4.6
X4.2Y-5.0
X4.2961Y-6.0197
X4.3Y-2.6
X4.3Y-3.0
X4.3Y-4.6
X4.3Y-5.0
X4.3961Y-6.0197
X4.4Y-2.6
X4.4Y-3.0
X4.4Y-4.6
X4.4Y-5.0
X4.4961Y-6.0197
X4.5Y-2.6
X4.5Y-3.0
X4.5Y-4.6
X4.5Y-5.0
X4.6Y-2.6
X4.6Y-3.0
X4.6Y-4.6
X4.6Y-5.0
X4.7Y-2.6
X4.7Y-3.0
X4.7Y-4.6
X4.7Y-5.0
X4.8Y-2.6
X4.8Y-3.0
X4.8Y-4.6
X4.8Y-5.0
X4.9Y-2.6
X4.9Y-3.0
X4.9Y-4.6
X4.9Y-5.0
X5.0Y-2.6
X5.0Y-3.0
X5.0Y-4.6
X5.0Y-5.0
X5.1Y-2.6
X5.1Y-3.0
X5.1Y-4.6
X5.1Y-5.0
X5.2Y-2.6
X5.2Y-3.0
X5.2Y-4.6
X5.2Y-5.0
X5.3Y-2.6
X5.3Y-3.0
X5.3Y-4.6
X5.3Y-5.0
X5.4Y-2.6
X5.4Y-3.0
X5.4Y-4.6
X5.4Y-5.0
X5.5Y-2.6
X5.5Y-3.0
X5.5Y-4.6
X5.5Y-5.0
X5.6Y-2.6
X5.6Y-3.0
X5.6Y-4.6
X5.6Y-5.0
X5.7Y-2.6
X5.7Y-3.0
X5.7Y-4.6
X5.7Y-5.0
X5.8Y-2.6
X5.8Y-3.0
X5.8Y-4.6
X5.8Y-5.0
X5.9Y-2.6
X5.9Y-3.0
X5.9Y-4.6
X5.9Y-5.0
X6.0Y-2.6
X6.0Y-3.0
X6.0Y-4.6
X6.0Y-5.0
X6.1Y-2.6
X6.1Y-3.0
X6.1Y-4.6
X6.1Y-5.0
X6.2Y-2.6
X6.2Y-3.0
X6.2Y-4.6
X6.2Y-5.0
X6.3Y-2.6
X6.3Y-3.0
X6.3Y-4.6
X6.3Y-5.0
X6.4Y-2.6
X6.4Y-3.0
X6.4Y-4.6
X6.4Y-5.0
X6.5Y-2.6
X6.5Y-3.0
X6.5Y-4.6
X6.5Y-5.0
X6.6Y-2.6
X6.6Y-3.0
X6.6Y-4.6
X6.6Y-5.0
X6.7Y-2.6
X6.7Y-3.0
X6.7Y-4.6
X6.7Y-5.0
X6.8Y-2.6
X6.8Y-3.0
X6.8Y-4.6
X6.8Y-5.0
X6.9Y-2.6
X6.9Y-3.0
X6.9Y-4.6
X6.9Y-5.0
X7.0Y-2.6
X7.0Y-3.0
X7.0Y-4.6
X7.0Y-5.0
X7.1Y-2.6
X7.1Y-3.0
X7.1Y-4.6
X7.1Y-5.0
T5
X5.426Y-6.0157
X5.726Y-6.0157
X6.126Y-6.0157
X6.126Y-6.3157
T2
G00X7.1988Y-3.6583
M15
G01X7.1673Y-3.6583
M16
G05
G00X7.1988Y-3.9417
M15
G01X7.1673Y-3.9417
M16
G05
T0
M30
