%TF.GenerationSoftware,KiCad,Pcbnew,(6.0.2)*%
%TF.CreationDate,2022-04-04T09:51:23+02:00*%
%TF.ProjectId,main,6d61696e-2e6b-4696-9361-645f70636258,rev?*%
%TF.SameCoordinates,Original*%
%TF.FileFunction,Soldermask,Bot*%
%TF.FilePolarity,Negative*%
%FSLAX46Y46*%
G04 Gerber Fmt 4.6, Leading zero omitted, Abs format (unit mm)*
G04 Created by KiCad (PCBNEW (6.0.2)) date 2022-04-04 09:51:23*
%MOMM*%
%LPD*%
G01*
G04 APERTURE LIST*
%ADD10C,2.400000*%
%ADD11C,3.500000*%
%ADD12C,1.300000*%
%ADD13O,1.900000X1.070000*%
%ADD14R,1.700000X1.700000*%
%ADD15O,1.700000X1.700000*%
%ADD16R,2.300000X2.300000*%
%ADD17C,2.300000*%
%ADD18C,1.000000*%
G04 APERTURE END LIST*
D10*
%TO.C,BT1*%
X163700000Y-147800000D03*
D11*
X100400000Y-147800000D03*
X155600000Y-131800000D03*
%TD*%
D12*
%TO.C,U4*%
X179750000Y-94095000D03*
D13*
X182450000Y-100120000D03*
D12*
X179750000Y-98945000D03*
D13*
X182450000Y-92920000D03*
%TD*%
D14*
%TO.C,J3*%
X180340000Y-76200000D03*
D15*
X177800000Y-76200000D03*
X175260000Y-76200000D03*
X172720000Y-76200000D03*
X170180000Y-76200000D03*
X167640000Y-76200000D03*
X165100000Y-76200000D03*
X162560000Y-76200000D03*
X160020000Y-76200000D03*
X157480000Y-76200000D03*
X154940000Y-76200000D03*
X152400000Y-76200000D03*
X149860000Y-76200000D03*
X147320000Y-76200000D03*
X144780000Y-76200000D03*
X142240000Y-76200000D03*
X139700000Y-76200000D03*
X137160000Y-76200000D03*
X134620000Y-76200000D03*
X132080000Y-76200000D03*
X129540000Y-76200000D03*
X127000000Y-76200000D03*
X124460000Y-76200000D03*
X121920000Y-76200000D03*
X119380000Y-76200000D03*
X116840000Y-76200000D03*
X114300000Y-76200000D03*
X111760000Y-76200000D03*
X109220000Y-76200000D03*
X106680000Y-76200000D03*
X104140000Y-76200000D03*
X101600000Y-76200000D03*
X99060000Y-76200000D03*
%TD*%
D16*
%TO.C,K1*%
X155600000Y-152800000D03*
D17*
X145440000Y-152800000D03*
X137820000Y-152800000D03*
X155600000Y-160420000D03*
%TD*%
D14*
%TO.C,J2*%
X180340000Y-66040000D03*
D15*
X177800000Y-66040000D03*
X175260000Y-66040000D03*
X172720000Y-66040000D03*
X170180000Y-66040000D03*
X167640000Y-66040000D03*
X165100000Y-66040000D03*
X162560000Y-66040000D03*
X160020000Y-66040000D03*
X157480000Y-66040000D03*
X154940000Y-66040000D03*
X152400000Y-66040000D03*
X149860000Y-66040000D03*
X147320000Y-66040000D03*
X144780000Y-66040000D03*
X142240000Y-66040000D03*
X139700000Y-66040000D03*
X137160000Y-66040000D03*
X134620000Y-66040000D03*
X132080000Y-66040000D03*
X129540000Y-66040000D03*
X127000000Y-66040000D03*
X124460000Y-66040000D03*
X121920000Y-66040000D03*
X119380000Y-66040000D03*
X116840000Y-66040000D03*
X114300000Y-66040000D03*
X111760000Y-66040000D03*
X109220000Y-66040000D03*
X106680000Y-66040000D03*
X104140000Y-66040000D03*
X101600000Y-66040000D03*
X99060000Y-66040000D03*
%TD*%
D14*
%TO.C,J5*%
X180340000Y-127000000D03*
D15*
X177800000Y-127000000D03*
X175260000Y-127000000D03*
X172720000Y-127000000D03*
X170180000Y-127000000D03*
X167640000Y-127000000D03*
X165100000Y-127000000D03*
X162560000Y-127000000D03*
X160020000Y-127000000D03*
X157480000Y-127000000D03*
X154940000Y-127000000D03*
X152400000Y-127000000D03*
X149860000Y-127000000D03*
X147320000Y-127000000D03*
X144780000Y-127000000D03*
X142240000Y-127000000D03*
X139700000Y-127000000D03*
X137160000Y-127000000D03*
X134620000Y-127000000D03*
X132080000Y-127000000D03*
X129540000Y-127000000D03*
X127000000Y-127000000D03*
X124460000Y-127000000D03*
X121920000Y-127000000D03*
X119380000Y-127000000D03*
X116840000Y-127000000D03*
X114300000Y-127000000D03*
X111760000Y-127000000D03*
X109220000Y-127000000D03*
X106680000Y-127000000D03*
X104140000Y-127000000D03*
X101600000Y-127000000D03*
X99060000Y-127000000D03*
%TD*%
D14*
%TO.C,J4*%
X180340000Y-116840000D03*
D15*
X177800000Y-116840000D03*
X175260000Y-116840000D03*
X172720000Y-116840000D03*
X170180000Y-116840000D03*
X167640000Y-116840000D03*
X165100000Y-116840000D03*
X162560000Y-116840000D03*
X160020000Y-116840000D03*
X157480000Y-116840000D03*
X154940000Y-116840000D03*
X152400000Y-116840000D03*
X149860000Y-116840000D03*
X147320000Y-116840000D03*
X144780000Y-116840000D03*
X142240000Y-116840000D03*
X139700000Y-116840000D03*
X137160000Y-116840000D03*
X134620000Y-116840000D03*
X132080000Y-116840000D03*
X129540000Y-116840000D03*
X127000000Y-116840000D03*
X124460000Y-116840000D03*
X121920000Y-116840000D03*
X119380000Y-116840000D03*
X116840000Y-116840000D03*
X114300000Y-116840000D03*
X111760000Y-116840000D03*
X109220000Y-116840000D03*
X106680000Y-116840000D03*
X104140000Y-116840000D03*
X101600000Y-116840000D03*
X99060000Y-116840000D03*
%TD*%
D14*
%TO.C,J1*%
X114200000Y-152900000D03*
D15*
X111660000Y-152900000D03*
X109120000Y-152900000D03*
X106580000Y-152900000D03*
X104040000Y-152900000D03*
X101500000Y-152900000D03*
X98960000Y-152900000D03*
X96420000Y-152900000D03*
X93880000Y-152900000D03*
X91340000Y-152900000D03*
%TD*%
D18*
%TO.C,TP2*%
X154000000Y-98500000D03*
%TD*%
%TO.C,TP6*%
X157400000Y-112300000D03*
%TD*%
%TO.C,TP1*%
X169400000Y-148400000D03*
%TD*%
%TO.C,TP5*%
X99200000Y-102400000D03*
%TD*%
%TO.C,TP3*%
X165500000Y-90200000D03*
%TD*%
%TO.C,TP4*%
X147500000Y-147100000D03*
%TD*%
M02*
