%TF.GenerationSoftware,KiCad,Pcbnew,(6.0.2)*%
%TF.CreationDate,2022-04-08T19:17:50+02:00*%
%TF.ProjectId,main,6d61696e-2e6b-4696-9361-645f70636258,rev?*%
%TF.SameCoordinates,Original*%
%TF.FileFunction,Paste,Top*%
%TF.FilePolarity,Positive*%
%FSLAX46Y46*%
G04 Gerber Fmt 4.6, Leading zero omitted, Abs format (unit mm)*
G04 Created by KiCad (PCBNEW (6.0.2)) date 2022-04-08 19:17:50*
%MOMM*%
%LPD*%
G01*
G04 APERTURE LIST*
G04 Aperture macros list*
%AMRoundRect*
0 Rectangle with rounded corners*
0 $1 Rounding radius*
0 $2 $3 $4 $5 $6 $7 $8 $9 X,Y pos of 4 corners*
0 Add a 4 corners polygon primitive as box body*
4,1,4,$2,$3,$4,$5,$6,$7,$8,$9,$2,$3,0*
0 Add four circle primitives for the rounded corners*
1,1,$1+$1,$2,$3*
1,1,$1+$1,$4,$5*
1,1,$1+$1,$6,$7*
1,1,$1+$1,$8,$9*
0 Add four rect primitives between the rounded corners*
20,1,$1+$1,$2,$3,$4,$5,0*
20,1,$1+$1,$4,$5,$6,$7,0*
20,1,$1+$1,$6,$7,$8,$9,0*
20,1,$1+$1,$8,$9,$2,$3,0*%
G04 Aperture macros list end*
%ADD10R,1.400000X1.200000*%
%ADD11RoundRect,0.150000X0.825000X0.150000X-0.825000X0.150000X-0.825000X-0.150000X0.825000X-0.150000X0*%
%ADD12RoundRect,0.150000X-0.512500X-0.150000X0.512500X-0.150000X0.512500X0.150000X-0.512500X0.150000X0*%
%ADD13RoundRect,0.135000X0.185000X-0.135000X0.185000X0.135000X-0.185000X0.135000X-0.185000X-0.135000X0*%
%ADD14RoundRect,0.200000X0.200000X0.275000X-0.200000X0.275000X-0.200000X-0.275000X0.200000X-0.275000X0*%
%ADD15R,7.300000X6.400000*%
%ADD16R,0.800000X0.550000*%
%ADD17RoundRect,0.150000X0.587500X0.150000X-0.587500X0.150000X-0.587500X-0.150000X0.587500X-0.150000X0*%
%ADD18RoundRect,0.150000X-0.150000X0.587500X-0.150000X-0.587500X0.150000X-0.587500X0.150000X0.587500X0*%
%ADD19R,1.200000X0.600000*%
%ADD20R,2.500000X3.500000*%
%ADD21RoundRect,0.200000X-0.275000X0.200000X-0.275000X-0.200000X0.275000X-0.200000X0.275000X0.200000X0*%
%ADD22RoundRect,0.135000X0.135000X0.185000X-0.135000X0.185000X-0.135000X-0.185000X0.135000X-0.185000X0*%
%ADD23R,1.200000X0.900000*%
%ADD24RoundRect,0.218750X0.256250X-0.218750X0.256250X0.218750X-0.256250X0.218750X-0.256250X-0.218750X0*%
%ADD25R,2.000000X2.000000*%
%ADD26RoundRect,0.243750X0.456250X-0.243750X0.456250X0.243750X-0.456250X0.243750X-0.456250X-0.243750X0*%
%ADD27RoundRect,0.140000X0.140000X0.170000X-0.140000X0.170000X-0.140000X-0.170000X0.140000X-0.170000X0*%
%ADD28RoundRect,0.140000X0.170000X-0.140000X0.170000X0.140000X-0.170000X0.140000X-0.170000X-0.140000X0*%
%ADD29R,0.800000X0.900000*%
%ADD30RoundRect,0.140000X-0.170000X0.140000X-0.170000X-0.140000X0.170000X-0.140000X0.170000X0.140000X0*%
%ADD31RoundRect,0.150000X0.150000X-0.587500X0.150000X0.587500X-0.150000X0.587500X-0.150000X-0.587500X0*%
%ADD32R,1.250000X0.400000*%
%ADD33R,1.350000X0.600000*%
%ADD34O,0.588000X2.045000*%
%ADD35R,1.100000X1.700000*%
%ADD36RoundRect,0.250000X-0.450000X0.262500X-0.450000X-0.262500X0.450000X-0.262500X0.450000X0.262500X0*%
%ADD37RoundRect,0.135000X-0.185000X0.135000X-0.185000X-0.135000X0.185000X-0.135000X0.185000X0.135000X0*%
%ADD38RoundRect,0.218750X-0.218750X-0.256250X0.218750X-0.256250X0.218750X0.256250X-0.218750X0.256250X0*%
G04 APERTURE END LIST*
D10*
%TO.C,X1*%
X171150000Y-80325000D03*
X168950000Y-80325000D03*
X168950000Y-82075000D03*
X171150000Y-82075000D03*
%TD*%
D11*
%TO.C,U3*%
X165550000Y-92820000D03*
X165550000Y-91550000D03*
X165550000Y-90280000D03*
X165550000Y-89010000D03*
X165550000Y-87740000D03*
X165550000Y-86470000D03*
X165550000Y-85200000D03*
X165550000Y-83930000D03*
X160600000Y-83930000D03*
X160600000Y-85200000D03*
X160600000Y-86470000D03*
X160600000Y-87740000D03*
X160600000Y-89010000D03*
X160600000Y-90280000D03*
X160600000Y-91550000D03*
X160600000Y-92820000D03*
%TD*%
D12*
%TO.C,U2*%
X153662500Y-152837500D03*
X153662500Y-153787500D03*
X153662500Y-154737500D03*
X155937500Y-154737500D03*
X155937500Y-153787500D03*
X155937500Y-152837500D03*
%TD*%
D13*
%TO.C,R10*%
X99288600Y-106015600D03*
X99288600Y-107035600D03*
%TD*%
D14*
%TO.C,R9*%
X165075000Y-152400000D03*
X163425000Y-152400000D03*
%TD*%
D15*
%TO.C,BT1*%
X167350000Y-139800000D03*
X88650000Y-139800000D03*
%TD*%
D16*
%TO.C,U7*%
X89286600Y-106303600D03*
X89286600Y-105553600D03*
X89286600Y-104803600D03*
X89286600Y-104053600D03*
X89286600Y-103303600D03*
X89286600Y-102553600D03*
X91286600Y-102553600D03*
X91286600Y-103303600D03*
X91286600Y-104053600D03*
X91286600Y-104803600D03*
X91286600Y-105553600D03*
X91286600Y-106303600D03*
%TD*%
D17*
%TO.C,U8*%
X90470200Y-89215000D03*
X90470200Y-87315000D03*
X88595200Y-88265000D03*
%TD*%
D18*
%TO.C,U6*%
X174508200Y-149176500D03*
X172608200Y-149176500D03*
X173558200Y-151051500D03*
%TD*%
D19*
%TO.C,U1*%
X174892000Y-137545000D03*
X174892000Y-138815000D03*
X174892000Y-140085000D03*
X174892000Y-141355000D03*
X180708000Y-141355000D03*
X180708000Y-140085000D03*
X180708000Y-138815000D03*
X180708000Y-137545000D03*
D20*
X177800000Y-139450000D03*
%TD*%
D14*
%TO.C,R13*%
X150200000Y-152887500D03*
X148550000Y-152887500D03*
%TD*%
D21*
%TO.C,R8*%
X174300000Y-143275000D03*
X174300000Y-144925000D03*
%TD*%
%TO.C,R7*%
X177165000Y-132918200D03*
X177165000Y-134568200D03*
%TD*%
D22*
%TO.C,R6*%
X144950000Y-99600000D03*
X143930000Y-99600000D03*
%TD*%
D21*
%TO.C,R3*%
X174025000Y-133650000D03*
X174025000Y-135300000D03*
%TD*%
D18*
%TO.C,Q3*%
X152975000Y-158800000D03*
X151075000Y-158800000D03*
X152025000Y-160675000D03*
%TD*%
D23*
%TO.C,D8*%
X99288600Y-99797600D03*
X99288600Y-103097600D03*
%TD*%
D24*
%TO.C,D6*%
X177139600Y-131140300D03*
X177139600Y-129565300D03*
%TD*%
D25*
%TO.C,D5*%
X173850000Y-97875000D03*
X169250000Y-97875000D03*
%TD*%
D26*
%TO.C,D2*%
X173925000Y-131875000D03*
X173925000Y-130000000D03*
%TD*%
D27*
%TO.C,C12*%
X90063200Y-93853000D03*
X89103200Y-93853000D03*
%TD*%
D28*
%TO.C,C5*%
X169722800Y-150393400D03*
X169722800Y-149433400D03*
%TD*%
D27*
%TO.C,C2*%
X180075000Y-144150000D03*
X179115000Y-144150000D03*
%TD*%
D29*
%TO.C,D1*%
X174550000Y-159830000D03*
X173600000Y-157830000D03*
X172650000Y-159830000D03*
%TD*%
D30*
%TO.C,C10*%
X86334600Y-101193600D03*
X86334600Y-100233600D03*
%TD*%
D21*
%TO.C,R1*%
X165825000Y-109200000D03*
X165825000Y-110850000D03*
%TD*%
D31*
%TO.C,Q1*%
X169788800Y-108275600D03*
X171688800Y-108275600D03*
X170738800Y-106400600D03*
%TD*%
D32*
%TO.C,U4*%
X179775000Y-97820000D03*
X179775000Y-97170000D03*
X179775000Y-96520000D03*
X179775000Y-95870000D03*
X179775000Y-95220000D03*
D33*
X182425000Y-97320000D03*
X182425000Y-95720000D03*
%TD*%
D22*
%TO.C,R4*%
X162075000Y-97725000D03*
X161055000Y-97725000D03*
%TD*%
D30*
%TO.C,C6*%
X165975000Y-80640000D03*
X165975000Y-81600000D03*
%TD*%
D22*
%TO.C,R12*%
X99390200Y-87858600D03*
X98370200Y-87858600D03*
%TD*%
%TO.C,R5*%
X144935000Y-110350000D03*
X143915000Y-110350000D03*
%TD*%
D28*
%TO.C,C4*%
X176425000Y-151810000D03*
X176425000Y-150850000D03*
%TD*%
D24*
%TO.C,D9*%
X92938600Y-112318600D03*
X92938600Y-113893600D03*
%TD*%
D18*
%TO.C,Q2*%
X159650000Y-158750000D03*
X157750000Y-158750000D03*
X158700000Y-160625000D03*
%TD*%
D30*
%TO.C,C11*%
X86842600Y-108785600D03*
X86842600Y-107825600D03*
%TD*%
D34*
%TO.C,U5*%
X159904500Y-102603000D03*
X158634500Y-102603000D03*
X157364500Y-102603000D03*
X156094500Y-102603000D03*
X156094500Y-108147000D03*
X157364500Y-108147000D03*
X158634500Y-108147000D03*
X159904500Y-108147000D03*
%TD*%
D28*
%TO.C,C3*%
X160150000Y-153492500D03*
X160150000Y-152532500D03*
%TD*%
D35*
%TO.C,D3*%
X172425000Y-112175000D03*
X169025000Y-112175000D03*
%TD*%
D36*
%TO.C,R2*%
X181350000Y-111512500D03*
X181350000Y-113337500D03*
%TD*%
D30*
%TO.C,C9*%
X163200000Y-106540000D03*
X163200000Y-107500000D03*
%TD*%
%TO.C,C8*%
X173900000Y-81525000D03*
X173900000Y-80565000D03*
%TD*%
D27*
%TO.C,C1*%
X180693000Y-135940800D03*
X179733000Y-135940800D03*
%TD*%
D37*
%TO.C,R11*%
X92938600Y-110339600D03*
X92938600Y-109319600D03*
%TD*%
D30*
%TO.C,C7*%
X168675000Y-90950000D03*
X168675000Y-89990000D03*
%TD*%
D38*
%TO.C,D4*%
X164425000Y-97825000D03*
X166000000Y-97825000D03*
%TD*%
M02*
