M48
; DRILL file {KiCad (6.0.2)} date Fri Apr  8 19:17:50 2022
; FORMAT={-:-/ absolute / inch / decimal}
; #@! TF.CreationDate,2022-04-08T19:17:50+02:00
; #@! TF.GenerationSoftware,Kicad,Pcbnew,(6.0.2)
; #@! TF.FileFunction,Plated,1,2,PTH
FMAT,2
INCH
; #@! TA.AperFunction,Plated,PTH,ViaDrill
T1C0.0157
; #@! TA.AperFunction,Plated,PTH,ComponentDrill
T2C0.0197
; #@! TA.AperFunction,Plated,PTH,ComponentDrill
T3C0.0276
; #@! TA.AperFunction,Plated,PTH,ComponentDrill
T4C0.0394
%
G90
G05
T1
X3.565Y-3.341
X3.589Y-4.3
X3.608Y-4.231
X3.663Y-4.026
X3.743Y-4.299
X3.789Y-3.898
X3.83Y-4.146
X3.961Y-4.146
X4.837Y-5.157
X5.018Y-4.307
X5.246Y-4.319
X5.425Y-4.308
X5.494Y-4.486
X5.625Y-5.585
X5.707Y-3.984
X5.707Y-4.298
X5.834Y-4.315
X5.863Y-4.129
X5.94Y-4.485
X5.95Y-4.526
X5.993Y-6.015
X6.044Y-5.365
X6.192Y-6.0153
X6.192Y-6.119
X6.214Y-5.127
X6.26Y-6.192
X6.316Y-4.417
X6.324Y-4.4765
X6.349Y-5.12
X6.355Y-4.327
X6.445Y-3.604
X6.446Y-3.553
X6.474Y-3.946
X6.543Y-4.173
X6.552Y-3.809
X6.618Y-3.743
X6.623Y-4.331
X6.695Y-3.432
X6.695Y-3.529
X6.699Y-4.508
X6.723Y-3.301
X6.749Y-6.104
X6.752Y-5.801
X6.763Y-6.177
X6.808Y-3.372
X6.823Y-4.334
X6.829Y-5.564
X6.903Y-6.177
X6.91Y-5.326
X6.953Y-5.69
X6.955Y-5.825
X7.017Y-5.385
X7.134Y-5.211
X7.1343Y-5.3016
X7.215Y-5.486
T3
X7.0768Y-3.7045
X7.0768Y-3.8955
T4
X3.9Y-2.6
X3.9Y-3.0
X3.9Y-4.6
X3.9Y-5.0
X4.0Y-2.6
X4.0Y-3.0
X4.0Y-4.6
X4.0Y-5.0
X4.1Y-2.6
X4.1Y-3.0
X4.1Y-4.6
X4.1Y-5.0
X4.2Y-2.6
X4.2Y-3.0
X4.2Y-4.6
X4.2Y-5.0
X4.3Y-2.6
X4.3Y-3.0
X4.3Y-4.6
X4.3Y-5.0
X4.4Y-2.6
X4.4Y-3.0
X4.4Y-4.6
X4.4Y-5.0
X4.5Y-2.6
X4.5Y-3.0
X4.5Y-4.6
X4.5Y-5.0
X4.6Y-2.6
X4.6Y-3.0
X4.6Y-4.6
X4.6Y-5.0
X4.7Y-2.6
X4.7Y-3.0
X4.7Y-4.6
X4.7Y-5.0
X4.7378Y-6.0285
X4.8Y-2.6
X4.8Y-3.0
X4.8Y-4.6
X4.8Y-5.0
X4.8378Y-6.0285
X4.9Y-2.6
X4.9Y-3.0
X4.9Y-4.6
X4.9Y-5.0
X4.9378Y-6.0285
X5.0Y-2.6
X5.0Y-3.0
X5.0Y-4.6
X5.0Y-5.0
X5.0378Y-6.0285
X5.1Y-2.6
X5.1Y-3.0
X5.1Y-4.6
X5.1Y-5.0
X5.1378Y-6.0285
X5.2Y-2.6
X5.2Y-3.0
X5.2Y-4.6
X5.2Y-5.0
X5.2378Y-6.0285
X5.3Y-2.6
X5.3Y-3.0
X5.3Y-4.6
X5.3Y-5.0
X5.3378Y-6.0285
X5.4Y-2.6
X5.4Y-3.0
X5.4Y-4.6
X5.4Y-5.0
X5.4378Y-6.0285
X5.5Y-2.6
X5.5Y-3.0
X5.5Y-4.6
X5.5Y-5.0
X5.5378Y-6.0285
X5.6Y-2.6
X5.6Y-3.0
X5.6Y-4.6
X5.6Y-5.0
X5.6378Y-6.0285
X5.7Y-2.6
X5.7Y-3.0
X5.7Y-4.6
X5.7Y-5.0
X5.8Y-2.6
X5.8Y-3.0
X5.8Y-4.6
X5.8Y-5.0
X5.9Y-2.6
X5.9Y-3.0
X5.9Y-4.6
X5.9Y-5.0
X6.0Y-2.6
X6.0Y-3.0
X6.0Y-4.6
X6.0Y-5.0
X6.1Y-2.6
X6.1Y-3.0
X6.1Y-4.6
X6.1Y-5.0
X6.2Y-2.6
X6.2Y-3.0
X6.2Y-4.6
X6.2Y-5.0
X6.3Y-2.6
X6.3Y-3.0
X6.3Y-4.6
X6.3Y-5.0
X6.4Y-2.6
X6.4Y-3.0
X6.4Y-4.6
X6.4Y-5.0
X6.5Y-2.6
X6.5Y-3.0
X6.5Y-4.6
X6.5Y-5.0
X6.6Y-2.6
X6.6Y-3.0
X6.6Y-4.6
X6.6Y-5.0
X6.7Y-2.6
X6.7Y-3.0
X6.7Y-4.6
X6.7Y-5.0
X6.8Y-2.6
X6.8Y-3.0
X6.8Y-4.6
X6.8Y-5.0
X6.9Y-2.6
X6.9Y-3.0
X6.9Y-4.6
X6.9Y-5.0
X7.0Y-2.6
X7.0Y-3.0
X7.0Y-4.6
X7.0Y-5.0
X7.1Y-2.6
X7.1Y-3.0
X7.1Y-4.6
X7.1Y-5.0
T2
G00X7.1988Y-3.6583
M15
G01X7.1673Y-3.6583
M16
G05
G00X7.1988Y-3.9417
M15
G01X7.1673Y-3.9417
M16
G05
T0
M30
