%TF.GenerationSoftware,KiCad,Pcbnew,(6.0.2)*%
%TF.CreationDate,2022-03-20T19:15:30+02:00*%
%TF.ProjectId,main,6d61696e-2e6b-4696-9361-645f70636258,rev?*%
%TF.SameCoordinates,Original*%
%TF.FileFunction,Legend,Bot*%
%TF.FilePolarity,Positive*%
%FSLAX46Y46*%
G04 Gerber Fmt 4.6, Leading zero omitted, Abs format (unit mm)*
G04 Created by KiCad (PCBNEW (6.0.2)) date 2022-03-20 19:15:30*
%MOMM*%
%LPD*%
G01*
G04 APERTURE LIST*
%ADD10C,0.100000*%
%ADD11C,0.150000*%
%ADD12C,0.120000*%
G04 APERTURE END LIST*
D10*
X170584666Y-150064000D02*
X170484666Y-150097333D01*
X170451333Y-150130666D01*
X170418000Y-150197333D01*
X170418000Y-150297333D01*
X170451333Y-150364000D01*
X170484666Y-150397333D01*
X170551333Y-150430666D01*
X170818000Y-150430666D01*
X170818000Y-149730666D01*
X170584666Y-149730666D01*
X170518000Y-149764000D01*
X170484666Y-149797333D01*
X170451333Y-149864000D01*
X170451333Y-149930666D01*
X170484666Y-149997333D01*
X170518000Y-150030666D01*
X170584666Y-150064000D01*
X170818000Y-150064000D01*
X169818000Y-150430666D02*
X169818000Y-150064000D01*
X169851333Y-149997333D01*
X169918000Y-149964000D01*
X170051333Y-149964000D01*
X170118000Y-149997333D01*
X169818000Y-150397333D02*
X169884666Y-150430666D01*
X170051333Y-150430666D01*
X170118000Y-150397333D01*
X170151333Y-150330666D01*
X170151333Y-150264000D01*
X170118000Y-150197333D01*
X170051333Y-150164000D01*
X169884666Y-150164000D01*
X169818000Y-150130666D01*
X169584666Y-149964000D02*
X169318000Y-149964000D01*
X169484666Y-149730666D02*
X169484666Y-150330666D01*
X169451333Y-150397333D01*
X169384666Y-150430666D01*
X169318000Y-150430666D01*
X169084666Y-150430666D02*
X169084666Y-149730666D01*
X168818000Y-149730666D01*
X168751333Y-149764000D01*
X168718000Y-149797333D01*
X168684666Y-149864000D01*
X168684666Y-149964000D01*
X168718000Y-150030666D01*
X168751333Y-150064000D01*
X168818000Y-150097333D01*
X169084666Y-150097333D01*
X168384666Y-150430666D02*
X168384666Y-149730666D01*
X168118000Y-149730666D01*
X168051333Y-149764000D01*
X168018000Y-149797333D01*
X167984666Y-149864000D01*
X167984666Y-149964000D01*
X168018000Y-150030666D01*
X168051333Y-150064000D01*
X168118000Y-150097333D01*
X168384666Y-150097333D01*
X105053333Y-101978666D02*
X104653333Y-101978666D01*
X104853333Y-102678666D02*
X104853333Y-101978666D01*
X104153333Y-102645333D02*
X104220000Y-102678666D01*
X104353333Y-102678666D01*
X104420000Y-102645333D01*
X104453333Y-102578666D01*
X104453333Y-102312000D01*
X104420000Y-102245333D01*
X104353333Y-102212000D01*
X104220000Y-102212000D01*
X104153333Y-102245333D01*
X104120000Y-102312000D01*
X104120000Y-102378666D01*
X104453333Y-102445333D01*
X103820000Y-102678666D02*
X103820000Y-102212000D01*
X103820000Y-102278666D02*
X103786666Y-102245333D01*
X103720000Y-102212000D01*
X103620000Y-102212000D01*
X103553333Y-102245333D01*
X103520000Y-102312000D01*
X103520000Y-102678666D01*
X103520000Y-102312000D02*
X103486666Y-102245333D01*
X103420000Y-102212000D01*
X103320000Y-102212000D01*
X103253333Y-102245333D01*
X103220000Y-102312000D01*
X103220000Y-102678666D01*
X102886666Y-102212000D02*
X102886666Y-102912000D01*
X102886666Y-102245333D02*
X102820000Y-102212000D01*
X102686666Y-102212000D01*
X102620000Y-102245333D01*
X102586666Y-102278666D01*
X102553333Y-102345333D01*
X102553333Y-102545333D01*
X102586666Y-102612000D01*
X102620000Y-102645333D01*
X102686666Y-102678666D01*
X102820000Y-102678666D01*
X102886666Y-102645333D01*
X102353333Y-101978666D02*
X102120000Y-102678666D01*
X101886666Y-101978666D01*
X101353333Y-102645333D02*
X101420000Y-102678666D01*
X101553333Y-102678666D01*
X101620000Y-102645333D01*
X101653333Y-102612000D01*
X101686666Y-102545333D01*
X101686666Y-102345333D01*
X101653333Y-102278666D01*
X101620000Y-102245333D01*
X101553333Y-102212000D01*
X101420000Y-102212000D01*
X101353333Y-102245333D01*
X100753333Y-102645333D02*
X100820000Y-102678666D01*
X100953333Y-102678666D01*
X101020000Y-102645333D01*
X101053333Y-102612000D01*
X101086666Y-102545333D01*
X101086666Y-102345333D01*
X101053333Y-102278666D01*
X101020000Y-102245333D01*
X100953333Y-102212000D01*
X100820000Y-102212000D01*
X100753333Y-102245333D01*
X162948666Y-111884666D02*
X162548666Y-111884666D01*
X162748666Y-112584666D02*
X162748666Y-111884666D01*
X162048666Y-112551333D02*
X162115333Y-112584666D01*
X162248666Y-112584666D01*
X162315333Y-112551333D01*
X162348666Y-112484666D01*
X162348666Y-112218000D01*
X162315333Y-112151333D01*
X162248666Y-112118000D01*
X162115333Y-112118000D01*
X162048666Y-112151333D01*
X162015333Y-112218000D01*
X162015333Y-112284666D01*
X162348666Y-112351333D01*
X161715333Y-112584666D02*
X161715333Y-112118000D01*
X161715333Y-112184666D02*
X161682000Y-112151333D01*
X161615333Y-112118000D01*
X161515333Y-112118000D01*
X161448666Y-112151333D01*
X161415333Y-112218000D01*
X161415333Y-112584666D01*
X161415333Y-112218000D02*
X161382000Y-112151333D01*
X161315333Y-112118000D01*
X161215333Y-112118000D01*
X161148666Y-112151333D01*
X161115333Y-112218000D01*
X161115333Y-112584666D01*
X160782000Y-112118000D02*
X160782000Y-112818000D01*
X160782000Y-112151333D02*
X160715333Y-112118000D01*
X160582000Y-112118000D01*
X160515333Y-112151333D01*
X160482000Y-112184666D01*
X160448666Y-112251333D01*
X160448666Y-112451333D01*
X160482000Y-112518000D01*
X160515333Y-112551333D01*
X160582000Y-112584666D01*
X160715333Y-112584666D01*
X160782000Y-112551333D01*
X160015333Y-111884666D02*
X159882000Y-111884666D01*
X159815333Y-111918000D01*
X159748666Y-111984666D01*
X159715333Y-112118000D01*
X159715333Y-112351333D01*
X159748666Y-112484666D01*
X159815333Y-112551333D01*
X159882000Y-112584666D01*
X160015333Y-112584666D01*
X160082000Y-112551333D01*
X160148666Y-112484666D01*
X160182000Y-112351333D01*
X160182000Y-112118000D01*
X160148666Y-111984666D01*
X160082000Y-111918000D01*
X160015333Y-111884666D01*
X159115333Y-112118000D02*
X159115333Y-112584666D01*
X159415333Y-112118000D02*
X159415333Y-112484666D01*
X159382000Y-112551333D01*
X159315333Y-112584666D01*
X159215333Y-112584666D01*
X159148666Y-112551333D01*
X159115333Y-112518000D01*
X158882000Y-112118000D02*
X158615333Y-112118000D01*
X158782000Y-111884666D02*
X158782000Y-112484666D01*
X158748666Y-112551333D01*
X158682000Y-112584666D01*
X158615333Y-112584666D01*
X157497333Y-98168666D02*
X157064000Y-98168666D01*
X157297333Y-98435333D01*
X157197333Y-98435333D01*
X157130666Y-98468666D01*
X157097333Y-98502000D01*
X157064000Y-98568666D01*
X157064000Y-98735333D01*
X157097333Y-98802000D01*
X157130666Y-98835333D01*
X157197333Y-98868666D01*
X157397333Y-98868666D01*
X157464000Y-98835333D01*
X157497333Y-98802000D01*
X156764000Y-98802000D02*
X156730666Y-98835333D01*
X156764000Y-98868666D01*
X156797333Y-98835333D01*
X156764000Y-98802000D01*
X156764000Y-98868666D01*
X156497333Y-98168666D02*
X156064000Y-98168666D01*
X156297333Y-98435333D01*
X156197333Y-98435333D01*
X156130666Y-98468666D01*
X156097333Y-98502000D01*
X156064000Y-98568666D01*
X156064000Y-98735333D01*
X156097333Y-98802000D01*
X156130666Y-98835333D01*
X156197333Y-98868666D01*
X156397333Y-98868666D01*
X156464000Y-98835333D01*
X156497333Y-98802000D01*
X155864000Y-98168666D02*
X155630666Y-98868666D01*
X155397333Y-98168666D01*
X153380000Y-146682666D02*
X153380000Y-147249333D01*
X153346666Y-147316000D01*
X153313333Y-147349333D01*
X153246666Y-147382666D01*
X153113333Y-147382666D01*
X153046666Y-147349333D01*
X153013333Y-147316000D01*
X152980000Y-147249333D01*
X152980000Y-146682666D01*
X152746666Y-146682666D02*
X152513333Y-147382666D01*
X152280000Y-146682666D01*
X151646666Y-147316000D02*
X151680000Y-147349333D01*
X151780000Y-147382666D01*
X151846666Y-147382666D01*
X151946666Y-147349333D01*
X152013333Y-147282666D01*
X152046666Y-147216000D01*
X152080000Y-147082666D01*
X152080000Y-146982666D01*
X152046666Y-146849333D01*
X152013333Y-146782666D01*
X151946666Y-146716000D01*
X151846666Y-146682666D01*
X151780000Y-146682666D01*
X151680000Y-146716000D01*
X151646666Y-146749333D01*
X151046666Y-146916000D02*
X151046666Y-147382666D01*
X151346666Y-146916000D02*
X151346666Y-147282666D01*
X151313333Y-147349333D01*
X151246666Y-147382666D01*
X151146666Y-147382666D01*
X151080000Y-147349333D01*
X151046666Y-147316000D01*
X150813333Y-146916000D02*
X150546666Y-146916000D01*
X150713333Y-146682666D02*
X150713333Y-147282666D01*
X150680000Y-147349333D01*
X150613333Y-147382666D01*
X150546666Y-147382666D01*
X150313333Y-147382666D02*
X150313333Y-146682666D01*
X150046666Y-146682666D01*
X149980000Y-146716000D01*
X149946666Y-146749333D01*
X149913333Y-146816000D01*
X149913333Y-146916000D01*
X149946666Y-146982666D01*
X149980000Y-147016000D01*
X150046666Y-147049333D01*
X150313333Y-147049333D01*
X149613333Y-147382666D02*
X149613333Y-146916000D01*
X149613333Y-147049333D02*
X149580000Y-146982666D01*
X149546666Y-146949333D01*
X149480000Y-146916000D01*
X149413333Y-146916000D01*
X149080000Y-147382666D02*
X149146666Y-147349333D01*
X149180000Y-147316000D01*
X149213333Y-147249333D01*
X149213333Y-147049333D01*
X149180000Y-146982666D01*
X149146666Y-146949333D01*
X149080000Y-146916000D01*
X148980000Y-146916000D01*
X148913333Y-146949333D01*
X148880000Y-146982666D01*
X148846666Y-147049333D01*
X148846666Y-147249333D01*
X148880000Y-147316000D01*
X148913333Y-147349333D01*
X148980000Y-147382666D01*
X149080000Y-147382666D01*
X169885333Y-89786666D02*
X169885333Y-90353333D01*
X169852000Y-90420000D01*
X169818666Y-90453333D01*
X169752000Y-90486666D01*
X169618666Y-90486666D01*
X169552000Y-90453333D01*
X169518666Y-90420000D01*
X169485333Y-90353333D01*
X169485333Y-89786666D01*
X169185333Y-90453333D02*
X169118666Y-90486666D01*
X168985333Y-90486666D01*
X168918666Y-90453333D01*
X168885333Y-90386666D01*
X168885333Y-90353333D01*
X168918666Y-90286666D01*
X168985333Y-90253333D01*
X169085333Y-90253333D01*
X169152000Y-90220000D01*
X169185333Y-90153333D01*
X169185333Y-90120000D01*
X169152000Y-90053333D01*
X169085333Y-90020000D01*
X168985333Y-90020000D01*
X168918666Y-90053333D01*
X168585333Y-90486666D02*
X168585333Y-89786666D01*
X168585333Y-90053333D02*
X168518666Y-90020000D01*
X168385333Y-90020000D01*
X168318666Y-90053333D01*
X168285333Y-90086666D01*
X168252000Y-90153333D01*
X168252000Y-90353333D01*
X168285333Y-90420000D01*
X168318666Y-90453333D01*
X168385333Y-90486666D01*
X168518666Y-90486666D01*
X168585333Y-90453333D01*
X167818666Y-89786666D02*
X167685333Y-89786666D01*
X167618666Y-89820000D01*
X167552000Y-89886666D01*
X167518666Y-90020000D01*
X167518666Y-90253333D01*
X167552000Y-90386666D01*
X167618666Y-90453333D01*
X167685333Y-90486666D01*
X167818666Y-90486666D01*
X167885333Y-90453333D01*
X167952000Y-90386666D01*
X167985333Y-90253333D01*
X167985333Y-90020000D01*
X167952000Y-89886666D01*
X167885333Y-89820000D01*
X167818666Y-89786666D01*
X167218666Y-90020000D02*
X167218666Y-90486666D01*
X167218666Y-90086666D02*
X167185333Y-90053333D01*
X167118666Y-90020000D01*
X167018666Y-90020000D01*
X166952000Y-90053333D01*
X166918666Y-90120000D01*
X166918666Y-90486666D01*
D11*
%TO.C,TP2*%
X155261904Y-96504380D02*
X154690476Y-96504380D01*
X154976190Y-97504380D02*
X154976190Y-96504380D01*
X154357142Y-97504380D02*
X154357142Y-96504380D01*
X153976190Y-96504380D01*
X153880952Y-96552000D01*
X153833333Y-96599619D01*
X153785714Y-96694857D01*
X153785714Y-96837714D01*
X153833333Y-96932952D01*
X153880952Y-96980571D01*
X153976190Y-97028190D01*
X154357142Y-97028190D01*
X153404761Y-96599619D02*
X153357142Y-96552000D01*
X153261904Y-96504380D01*
X153023809Y-96504380D01*
X152928571Y-96552000D01*
X152880952Y-96599619D01*
X152833333Y-96694857D01*
X152833333Y-96790095D01*
X152880952Y-96932952D01*
X153452380Y-97504380D01*
X152833333Y-97504380D01*
%TO.C,TP6*%
X158661904Y-110304380D02*
X158090476Y-110304380D01*
X158376190Y-111304380D02*
X158376190Y-110304380D01*
X157757142Y-111304380D02*
X157757142Y-110304380D01*
X157376190Y-110304380D01*
X157280952Y-110352000D01*
X157233333Y-110399619D01*
X157185714Y-110494857D01*
X157185714Y-110637714D01*
X157233333Y-110732952D01*
X157280952Y-110780571D01*
X157376190Y-110828190D01*
X157757142Y-110828190D01*
X156328571Y-110304380D02*
X156519047Y-110304380D01*
X156614285Y-110352000D01*
X156661904Y-110399619D01*
X156757142Y-110542476D01*
X156804761Y-110732952D01*
X156804761Y-111113904D01*
X156757142Y-111209142D01*
X156709523Y-111256761D01*
X156614285Y-111304380D01*
X156423809Y-111304380D01*
X156328571Y-111256761D01*
X156280952Y-111209142D01*
X156233333Y-111113904D01*
X156233333Y-110875809D01*
X156280952Y-110780571D01*
X156328571Y-110732952D01*
X156423809Y-110685333D01*
X156614285Y-110685333D01*
X156709523Y-110732952D01*
X156757142Y-110780571D01*
X156804761Y-110875809D01*
%TO.C,TP1*%
X170661904Y-146404380D02*
X170090476Y-146404380D01*
X170376190Y-147404380D02*
X170376190Y-146404380D01*
X169757142Y-147404380D02*
X169757142Y-146404380D01*
X169376190Y-146404380D01*
X169280952Y-146452000D01*
X169233333Y-146499619D01*
X169185714Y-146594857D01*
X169185714Y-146737714D01*
X169233333Y-146832952D01*
X169280952Y-146880571D01*
X169376190Y-146928190D01*
X169757142Y-146928190D01*
X168233333Y-147404380D02*
X168804761Y-147404380D01*
X168519047Y-147404380D02*
X168519047Y-146404380D01*
X168614285Y-146547238D01*
X168709523Y-146642476D01*
X168804761Y-146690095D01*
%TO.C,TP5*%
X100461904Y-100404380D02*
X99890476Y-100404380D01*
X100176190Y-101404380D02*
X100176190Y-100404380D01*
X99557142Y-101404380D02*
X99557142Y-100404380D01*
X99176190Y-100404380D01*
X99080952Y-100452000D01*
X99033333Y-100499619D01*
X98985714Y-100594857D01*
X98985714Y-100737714D01*
X99033333Y-100832952D01*
X99080952Y-100880571D01*
X99176190Y-100928190D01*
X99557142Y-100928190D01*
X98080952Y-100404380D02*
X98557142Y-100404380D01*
X98604761Y-100880571D01*
X98557142Y-100832952D01*
X98461904Y-100785333D01*
X98223809Y-100785333D01*
X98128571Y-100832952D01*
X98080952Y-100880571D01*
X98033333Y-100975809D01*
X98033333Y-101213904D01*
X98080952Y-101309142D01*
X98128571Y-101356761D01*
X98223809Y-101404380D01*
X98461904Y-101404380D01*
X98557142Y-101356761D01*
X98604761Y-101309142D01*
%TO.C,TP3*%
X166761904Y-88204380D02*
X166190476Y-88204380D01*
X166476190Y-89204380D02*
X166476190Y-88204380D01*
X165857142Y-89204380D02*
X165857142Y-88204380D01*
X165476190Y-88204380D01*
X165380952Y-88252000D01*
X165333333Y-88299619D01*
X165285714Y-88394857D01*
X165285714Y-88537714D01*
X165333333Y-88632952D01*
X165380952Y-88680571D01*
X165476190Y-88728190D01*
X165857142Y-88728190D01*
X164952380Y-88204380D02*
X164333333Y-88204380D01*
X164666666Y-88585333D01*
X164523809Y-88585333D01*
X164428571Y-88632952D01*
X164380952Y-88680571D01*
X164333333Y-88775809D01*
X164333333Y-89013904D01*
X164380952Y-89109142D01*
X164428571Y-89156761D01*
X164523809Y-89204380D01*
X164809523Y-89204380D01*
X164904761Y-89156761D01*
X164952380Y-89109142D01*
%TO.C,TP4*%
X148761904Y-145104380D02*
X148190476Y-145104380D01*
X148476190Y-146104380D02*
X148476190Y-145104380D01*
X147857142Y-146104380D02*
X147857142Y-145104380D01*
X147476190Y-145104380D01*
X147380952Y-145152000D01*
X147333333Y-145199619D01*
X147285714Y-145294857D01*
X147285714Y-145437714D01*
X147333333Y-145532952D01*
X147380952Y-145580571D01*
X147476190Y-145628190D01*
X147857142Y-145628190D01*
X146428571Y-145437714D02*
X146428571Y-146104380D01*
X146666666Y-145056761D02*
X146904761Y-145771047D01*
X146285714Y-145771047D01*
D12*
%TO.C,TP2*%
X154700000Y-98500000D02*
G75*
G03*
X154700000Y-98500000I-700000J0D01*
G01*
%TO.C,TP6*%
X158100000Y-112300000D02*
G75*
G03*
X158100000Y-112300000I-700000J0D01*
G01*
%TO.C,G\u002A\u002A\u002A*%
G36*
X131930720Y-82553751D02*
G01*
X131540644Y-82553751D01*
X131540644Y-82943828D01*
X131150567Y-82943828D01*
X131150567Y-83318902D01*
X130775493Y-83318902D01*
X130775493Y-82553751D01*
X131150567Y-82553751D01*
X131150567Y-81788600D01*
X132305794Y-81788600D01*
X132305794Y-83318902D01*
X131540644Y-83318902D01*
X131540644Y-82943828D01*
X131930720Y-82943828D01*
X131930720Y-82553751D01*
G37*
G36*
X128074961Y-89860189D02*
G01*
X127699888Y-89860189D01*
X127699888Y-89470112D01*
X128074961Y-89470112D01*
X128074961Y-89860189D01*
G37*
G36*
X127699888Y-87174661D02*
G01*
X127309811Y-87174661D01*
X127309811Y-86784584D01*
X127699888Y-86784584D01*
X127699888Y-87174661D01*
G37*
G36*
X121158600Y-84474129D02*
G01*
X121158600Y-84084052D01*
X121533674Y-84084052D01*
X123454052Y-84084052D01*
X123454052Y-82163674D01*
X121533674Y-82163674D01*
X121533674Y-84084052D01*
X121158600Y-84084052D01*
X121158600Y-81788600D01*
X123844129Y-81788600D01*
X123844129Y-84474129D01*
X121158600Y-84474129D01*
G37*
G36*
X135381400Y-89860189D02*
G01*
X135006326Y-89860189D01*
X135006326Y-90250266D01*
X134616249Y-90250266D01*
X134616249Y-90625340D01*
X133851098Y-90625340D01*
X133851098Y-89860189D01*
X134226172Y-89860189D01*
X134226172Y-89470112D01*
X135381400Y-89470112D01*
X135381400Y-89860189D01*
G37*
G36*
X132305794Y-84474129D02*
G01*
X131930720Y-84474129D01*
X131930720Y-83708978D01*
X132305794Y-83708978D01*
X132305794Y-84474129D01*
G37*
G36*
X125389433Y-92560721D02*
G01*
X124999356Y-92560721D01*
X124999356Y-92170644D01*
X125389433Y-92170644D01*
X125389433Y-92560721D01*
G37*
G36*
X133085948Y-87549734D02*
G01*
X132305794Y-87549734D01*
X132305794Y-87174661D01*
X133085948Y-87174661D01*
X133085948Y-87549734D01*
G37*
G36*
X133085948Y-89860189D02*
G01*
X132695871Y-89860189D01*
X132695871Y-89470112D01*
X133085948Y-89470112D01*
X133085948Y-89860189D01*
G37*
G36*
X131540644Y-84474129D02*
G01*
X131150567Y-84474129D01*
X131150567Y-84084052D01*
X131540644Y-84084052D01*
X131540644Y-84474129D01*
G37*
G36*
X127309811Y-83708978D02*
G01*
X126919734Y-83708978D01*
X126919734Y-83318902D01*
X127309811Y-83318902D01*
X127309811Y-83708978D01*
G37*
G36*
X122313827Y-91405493D02*
G01*
X123078978Y-91405493D01*
X123078978Y-91780567D01*
X122313827Y-91780567D01*
X122313827Y-92935795D01*
X121923751Y-92935795D01*
X121923751Y-92560721D01*
X121533674Y-92560721D01*
X121533674Y-92170644D01*
X121923751Y-92170644D01*
X121923751Y-91405493D01*
X121158600Y-91405493D01*
X121158600Y-91015417D01*
X121923751Y-91015417D01*
X121923751Y-89095039D01*
X122313827Y-89095039D01*
X122313827Y-91405493D01*
G37*
G36*
X128074961Y-86784584D02*
G01*
X127699888Y-86784584D01*
X127699888Y-86394507D01*
X128074961Y-86394507D01*
X128074961Y-86784584D01*
G37*
G36*
X127699888Y-88704962D02*
G01*
X127309811Y-88704962D01*
X127309811Y-88329888D01*
X127699888Y-88329888D01*
X127699888Y-88704962D01*
G37*
G36*
X128074961Y-94856173D02*
G01*
X127699888Y-94856173D01*
X127699888Y-94481099D01*
X128074961Y-94481099D01*
X128074961Y-94856173D01*
G37*
G36*
X127699888Y-95246249D02*
G01*
X127309811Y-95246249D01*
X127309811Y-94856173D01*
X127699888Y-94856173D01*
X127699888Y-95246249D01*
G37*
G36*
X123078978Y-90250266D02*
G01*
X122688901Y-90250266D01*
X122688901Y-89860189D01*
X123078978Y-89860189D01*
X123078978Y-90250266D01*
G37*
G36*
X124999356Y-91405493D02*
G01*
X124609279Y-91405493D01*
X124609279Y-91015417D01*
X124999356Y-91015417D01*
X124999356Y-91405493D01*
G37*
G36*
X122313827Y-87939811D02*
G01*
X121923751Y-87939811D01*
X121923751Y-88704962D01*
X121533674Y-88704962D01*
X121533674Y-88329888D01*
X121158600Y-88329888D01*
X121158600Y-87939811D01*
X121533674Y-87939811D01*
X121533674Y-87549734D01*
X122313827Y-87549734D01*
X122313827Y-87939811D01*
G37*
G36*
X135381400Y-91780567D02*
G01*
X135006326Y-91780567D01*
X135006326Y-90625340D01*
X135381400Y-90625340D01*
X135381400Y-91780567D01*
G37*
G36*
X131540644Y-85239280D02*
G01*
X131540644Y-85629356D01*
X132305794Y-85629356D01*
X132305794Y-86394507D01*
X133085948Y-86394507D01*
X133085948Y-86784584D01*
X131930720Y-86784584D01*
X131930720Y-87174661D01*
X131540644Y-87174661D01*
X131540644Y-86784584D01*
X131150567Y-86784584D01*
X131150567Y-86394507D01*
X131540644Y-86394507D01*
X131540644Y-86019433D01*
X131150567Y-86019433D01*
X131150567Y-86394507D01*
X130775493Y-86394507D01*
X130775493Y-86019433D01*
X129995339Y-86019433D01*
X129995339Y-86394507D01*
X129230189Y-86394507D01*
X129230189Y-86784584D01*
X129995339Y-86784584D01*
X129995339Y-87174661D01*
X130385416Y-87174661D01*
X130385416Y-87549734D01*
X129620266Y-87549734D01*
X129620266Y-87939811D01*
X128840112Y-87939811D01*
X128840112Y-88329888D01*
X129620266Y-88329888D01*
X129620266Y-87939811D01*
X130385416Y-87939811D01*
X130385416Y-88329888D01*
X130775493Y-88329888D01*
X130775493Y-88704962D01*
X131540644Y-88704962D01*
X131540644Y-88329888D01*
X132305794Y-88329888D01*
X132305794Y-87939811D01*
X133461022Y-87939811D01*
X133461022Y-87174661D01*
X133085948Y-87174661D01*
X133085948Y-86784584D01*
X133461022Y-86784584D01*
X133461022Y-87174661D01*
X134226172Y-87174661D01*
X134226172Y-86784584D01*
X134616249Y-86784584D01*
X134616249Y-87174661D01*
X134226172Y-87174661D01*
X134226172Y-87549734D01*
X134616249Y-87549734D01*
X134616249Y-87174661D01*
X135006326Y-87174661D01*
X135006326Y-87549734D01*
X135381400Y-87549734D01*
X135381400Y-87939811D01*
X133851098Y-87939811D01*
X133851098Y-88704962D01*
X134616249Y-88704962D01*
X134616249Y-88329888D01*
X135381400Y-88329888D01*
X135381400Y-89095039D01*
X133461022Y-89095039D01*
X133461022Y-88329888D01*
X132695871Y-88329888D01*
X132695871Y-88704962D01*
X133085948Y-88704962D01*
X133085948Y-89095039D01*
X132695871Y-89095039D01*
X132695871Y-89470112D01*
X132305794Y-89470112D01*
X132305794Y-90250266D01*
X133461022Y-90250266D01*
X133461022Y-91015417D01*
X133085948Y-91015417D01*
X133085948Y-90625340D01*
X131930720Y-90625340D01*
X131930720Y-89470112D01*
X131540644Y-89470112D01*
X131540644Y-89095039D01*
X131930720Y-89095039D01*
X132305794Y-89095039D01*
X132305794Y-88704962D01*
X131930720Y-88704962D01*
X131930720Y-89095039D01*
X131540644Y-89095039D01*
X131150567Y-89095039D01*
X131150567Y-89470112D01*
X130775493Y-89470112D01*
X130775493Y-89095039D01*
X130385416Y-89095039D01*
X130385416Y-89470112D01*
X130775493Y-89470112D01*
X130775493Y-89860189D01*
X130385416Y-89860189D01*
X130385416Y-90250266D01*
X129620266Y-90250266D01*
X129620266Y-90625340D01*
X129995339Y-90625340D01*
X129995339Y-91015417D01*
X130385416Y-91015417D01*
X130385416Y-91405493D01*
X130775493Y-91405493D01*
X130775493Y-91015417D01*
X131150567Y-91015417D01*
X131150567Y-90625340D01*
X131540644Y-90625340D01*
X131540644Y-91015417D01*
X132305794Y-91015417D01*
X132305794Y-91405493D01*
X132695871Y-91405493D01*
X132695871Y-91015417D01*
X133085948Y-91015417D01*
X133085948Y-91405493D01*
X132695871Y-91405493D01*
X132695871Y-91780567D01*
X133851098Y-91780567D01*
X133851098Y-91015417D01*
X134226172Y-91015417D01*
X134226172Y-91405493D01*
X134616249Y-91405493D01*
X134616249Y-91780567D01*
X134226172Y-91780567D01*
X134226172Y-92170644D01*
X133461022Y-92170644D01*
X133461022Y-92560721D01*
X133851098Y-92560721D01*
X133851098Y-92935795D01*
X132695871Y-92935795D01*
X132695871Y-92560721D01*
X133085948Y-92560721D01*
X133085948Y-92170644D01*
X132305794Y-92170644D01*
X132305794Y-91780567D01*
X131540644Y-91780567D01*
X131540644Y-92170644D01*
X132305794Y-92170644D01*
X132305794Y-93325871D01*
X131930720Y-93325871D01*
X131930720Y-93715948D01*
X132305794Y-93715948D01*
X132305794Y-94481099D01*
X131930720Y-94481099D01*
X131930720Y-93715948D01*
X131150567Y-93715948D01*
X131150567Y-92935795D01*
X131540644Y-92935795D01*
X131930720Y-92935795D01*
X131930720Y-92560721D01*
X131540644Y-92560721D01*
X131540644Y-92935795D01*
X131150567Y-92935795D01*
X131150567Y-92560721D01*
X130775493Y-92560721D01*
X130775493Y-92170644D01*
X130385416Y-92170644D01*
X130385416Y-92560721D01*
X130775493Y-92560721D01*
X130775493Y-92935795D01*
X130385416Y-92935795D01*
X130385416Y-93325871D01*
X129620266Y-93325871D01*
X129620266Y-93715948D01*
X129995339Y-93715948D01*
X129995339Y-94091022D01*
X130385416Y-94091022D01*
X130385416Y-94481099D01*
X130775493Y-94481099D01*
X130775493Y-94091022D01*
X131540644Y-94091022D01*
X131540644Y-94481099D01*
X131930720Y-94481099D01*
X131930720Y-94856173D01*
X131540644Y-94856173D01*
X131540644Y-95246249D01*
X132305794Y-95246249D01*
X132305794Y-96011400D01*
X131150567Y-96011400D01*
X131150567Y-95636326D01*
X130775493Y-95636326D01*
X130775493Y-95246249D01*
X130385416Y-95246249D01*
X130385416Y-95636326D01*
X130775493Y-95636326D01*
X130775493Y-96011400D01*
X129995339Y-96011400D01*
X129995339Y-95246249D01*
X129620266Y-95246249D01*
X129620266Y-95636326D01*
X128840112Y-95636326D01*
X128840112Y-96011400D01*
X128074961Y-96011400D01*
X128074961Y-95636326D01*
X127699888Y-95636326D01*
X127699888Y-96011400D01*
X127309811Y-96011400D01*
X127309811Y-95636326D01*
X126919734Y-95636326D01*
X126919734Y-96011400D01*
X125389433Y-96011400D01*
X125389433Y-95636326D01*
X124999356Y-95636326D01*
X124999356Y-95246249D01*
X125389433Y-95246249D01*
X125389433Y-95636326D01*
X126544660Y-95636326D01*
X126544660Y-95246249D01*
X127309811Y-95246249D01*
X127309811Y-95636326D01*
X127699888Y-95636326D01*
X127699888Y-95246249D01*
X128465038Y-95246249D01*
X128465038Y-94856173D01*
X129620266Y-94856173D01*
X130385416Y-94856173D01*
X130775493Y-94856173D01*
X131150567Y-94856173D01*
X131150567Y-94481099D01*
X130775493Y-94481099D01*
X130775493Y-94856173D01*
X130385416Y-94856173D01*
X130385416Y-94481099D01*
X129620266Y-94481099D01*
X129620266Y-94856173D01*
X128465038Y-94856173D01*
X128465038Y-94481099D01*
X128840112Y-94481099D01*
X129230189Y-94481099D01*
X129230189Y-94091022D01*
X129620266Y-94091022D01*
X129620266Y-93715948D01*
X129230189Y-93715948D01*
X129230189Y-93325871D01*
X128840112Y-93325871D01*
X128840112Y-94481099D01*
X128465038Y-94481099D01*
X128465038Y-93715948D01*
X128074961Y-93715948D01*
X128074961Y-94091022D01*
X127699888Y-94091022D01*
X127699888Y-94481099D01*
X127309811Y-94481099D01*
X127309811Y-94091022D01*
X126919734Y-94091022D01*
X126919734Y-94856173D01*
X126544660Y-94856173D01*
X126544660Y-94091022D01*
X126154583Y-94091022D01*
X126154583Y-94481099D01*
X125389433Y-94481099D01*
X125389433Y-94856173D01*
X124999356Y-94856173D01*
X124999356Y-95246249D01*
X124234205Y-95246249D01*
X124234205Y-95636326D01*
X123844129Y-95636326D01*
X123844129Y-95246249D01*
X124234205Y-95246249D01*
X124234205Y-94856173D01*
X124609279Y-94856173D01*
X124609279Y-94481099D01*
X125389433Y-94481099D01*
X125389433Y-94091022D01*
X125764507Y-94091022D01*
X125764507Y-93715948D01*
X124999356Y-93715948D01*
X124999356Y-93325871D01*
X125389433Y-93325871D01*
X126919734Y-93325871D01*
X126919734Y-92935795D01*
X127309811Y-92935795D01*
X127309811Y-93715948D01*
X128074961Y-93715948D01*
X128074961Y-93325871D01*
X128840112Y-93325871D01*
X128840112Y-92935795D01*
X129995339Y-92935795D01*
X129995339Y-92170644D01*
X128840112Y-92170644D01*
X128840112Y-92935795D01*
X128465038Y-92935795D01*
X128465038Y-92560721D01*
X127699888Y-92560721D01*
X127699888Y-92935795D01*
X127309811Y-92935795D01*
X127309811Y-92560721D01*
X126919734Y-92560721D01*
X126919734Y-92170644D01*
X126544660Y-92170644D01*
X126544660Y-92560721D01*
X126919734Y-92560721D01*
X126919734Y-92935795D01*
X125389433Y-92935795D01*
X125389433Y-93325871D01*
X124999356Y-93325871D01*
X124609279Y-93325871D01*
X124609279Y-93715948D01*
X124999356Y-93715948D01*
X124999356Y-94091022D01*
X124609279Y-94091022D01*
X124609279Y-94481099D01*
X123844129Y-94481099D01*
X123844129Y-95246249D01*
X123078978Y-95246249D01*
X123078978Y-94481099D01*
X122688901Y-94481099D01*
X122688901Y-94091022D01*
X123078978Y-94091022D01*
X124234205Y-94091022D01*
X124234205Y-92935795D01*
X123078978Y-92935795D01*
X123078978Y-94091022D01*
X122688901Y-94091022D01*
X122688901Y-93715948D01*
X122313827Y-93715948D01*
X122313827Y-93325871D01*
X122688901Y-93325871D01*
X122688901Y-92170644D01*
X123454052Y-92170644D01*
X123454052Y-92560721D01*
X123844129Y-92560721D01*
X123844129Y-91405493D01*
X123078978Y-91405493D01*
X123078978Y-90250266D01*
X123454052Y-90250266D01*
X123454052Y-89470112D01*
X124234205Y-89470112D01*
X124234205Y-89860189D01*
X123844129Y-89860189D01*
X123844129Y-90250266D01*
X123454052Y-90250266D01*
X123454052Y-91015417D01*
X123844129Y-91015417D01*
X123844129Y-91405493D01*
X124609279Y-91405493D01*
X124609279Y-91780567D01*
X124234205Y-91780567D01*
X124234205Y-92170644D01*
X124609279Y-92170644D01*
X124609279Y-92560721D01*
X124999356Y-92560721D01*
X124999356Y-92935795D01*
X125389433Y-92935795D01*
X125389433Y-92560721D01*
X125764507Y-92560721D01*
X125764507Y-92170644D01*
X126154583Y-92170644D01*
X126154583Y-91780567D01*
X126544660Y-91780567D01*
X126919734Y-91780567D01*
X126919734Y-92170644D01*
X127309811Y-92170644D01*
X127309811Y-91780567D01*
X127699888Y-91780567D01*
X127699888Y-92170644D01*
X128465038Y-92170644D01*
X128465038Y-91780567D01*
X128840112Y-91780567D01*
X129230189Y-91780567D01*
X129620266Y-91780567D01*
X130385416Y-91780567D01*
X130775493Y-91780567D01*
X131150567Y-91780567D01*
X131150567Y-91405493D01*
X130775493Y-91405493D01*
X130775493Y-91780567D01*
X130385416Y-91780567D01*
X130385416Y-91405493D01*
X129620266Y-91405493D01*
X129620266Y-91780567D01*
X129230189Y-91780567D01*
X129230189Y-91405493D01*
X129620266Y-91405493D01*
X129620266Y-91015417D01*
X128840112Y-91015417D01*
X128840112Y-91780567D01*
X128465038Y-91780567D01*
X127699888Y-91780567D01*
X127699888Y-91405493D01*
X128074961Y-91405493D01*
X128465038Y-91405493D01*
X128465038Y-91015417D01*
X128074961Y-91015417D01*
X128074961Y-91405493D01*
X127699888Y-91405493D01*
X127309811Y-91405493D01*
X127309811Y-91780567D01*
X126919734Y-91780567D01*
X126919734Y-91405493D01*
X126544660Y-91405493D01*
X126544660Y-91780567D01*
X126154583Y-91780567D01*
X125764507Y-91780567D01*
X125764507Y-91405493D01*
X125389433Y-91405493D01*
X125389433Y-91015417D01*
X124999356Y-91015417D01*
X124999356Y-90625340D01*
X124609279Y-90625340D01*
X124609279Y-90250266D01*
X124234205Y-90250266D01*
X124234205Y-89860189D01*
X124999356Y-89860189D01*
X124999356Y-90625340D01*
X125389433Y-90625340D01*
X125389433Y-91015417D01*
X125764507Y-91015417D01*
X125764507Y-91405493D01*
X126544660Y-91405493D01*
X126544660Y-91015417D01*
X126919734Y-91015417D01*
X126919734Y-90625340D01*
X126544660Y-90625340D01*
X126544660Y-91015417D01*
X126154583Y-91015417D01*
X126154583Y-90250266D01*
X126544660Y-90250266D01*
X126919734Y-90250266D01*
X126919734Y-89860189D01*
X126544660Y-89860189D01*
X126544660Y-90250266D01*
X126154583Y-90250266D01*
X125764507Y-90250266D01*
X125764507Y-89860189D01*
X126544660Y-89860189D01*
X126544660Y-89470112D01*
X126154583Y-89470112D01*
X126154583Y-88704962D01*
X125389433Y-88704962D01*
X125389433Y-89470112D01*
X124609279Y-89470112D01*
X124609279Y-88704962D01*
X124234205Y-88704962D01*
X124234205Y-88329888D01*
X124609279Y-88329888D01*
X124999356Y-88329888D01*
X126919734Y-88329888D01*
X126919734Y-88704962D01*
X126544660Y-88704962D01*
X126544660Y-89095039D01*
X127309811Y-89095039D01*
X127309811Y-89860189D01*
X127699888Y-89860189D01*
X127699888Y-90625340D01*
X127309811Y-90625340D01*
X127309811Y-91015417D01*
X128074961Y-91015417D01*
X128074961Y-90625340D01*
X128840112Y-90625340D01*
X128840112Y-89860189D01*
X129230189Y-89860189D01*
X129230189Y-90250266D01*
X129620266Y-90250266D01*
X129620266Y-89860189D01*
X129995339Y-89860189D01*
X129995339Y-89095039D01*
X129230189Y-89095039D01*
X129230189Y-88704962D01*
X129995339Y-88704962D01*
X130385416Y-88704962D01*
X130385416Y-88329888D01*
X129995339Y-88329888D01*
X129995339Y-88704962D01*
X129230189Y-88704962D01*
X128840112Y-88704962D01*
X128840112Y-88329888D01*
X128465038Y-88329888D01*
X128465038Y-87939811D01*
X128074961Y-87939811D01*
X128074961Y-87174661D01*
X128465038Y-87174661D01*
X128840112Y-87174661D01*
X128840112Y-87549734D01*
X129230189Y-87549734D01*
X129230189Y-87174661D01*
X128840112Y-87174661D01*
X128840112Y-86784584D01*
X128465038Y-86784584D01*
X128465038Y-87174661D01*
X128074961Y-87174661D01*
X128074961Y-86784584D01*
X128465038Y-86784584D01*
X128465038Y-86019433D01*
X128840112Y-86019433D01*
X128840112Y-85239280D01*
X128465038Y-85239280D01*
X128465038Y-84864206D01*
X127699888Y-84864206D01*
X127699888Y-84474129D01*
X128074961Y-84474129D01*
X128074961Y-84084052D01*
X127699888Y-84084052D01*
X127699888Y-84474129D01*
X127309811Y-84474129D01*
X127309811Y-84864206D01*
X126919734Y-84864206D01*
X126919734Y-85239280D01*
X127699888Y-85239280D01*
X127699888Y-86019433D01*
X127309811Y-86019433D01*
X127309811Y-86784584D01*
X126544660Y-86784584D01*
X126544660Y-87174661D01*
X127309811Y-87174661D01*
X127309811Y-88329888D01*
X126544660Y-88329888D01*
X126544660Y-87939811D01*
X126919734Y-87939811D01*
X126919734Y-87549734D01*
X126544660Y-87549734D01*
X126544660Y-87939811D01*
X126154583Y-87939811D01*
X126154583Y-87549734D01*
X125389433Y-87549734D01*
X125389433Y-87174661D01*
X124999356Y-87174661D01*
X124999356Y-87549734D01*
X125389433Y-87549734D01*
X125389433Y-87939811D01*
X124999356Y-87939811D01*
X124999356Y-88329888D01*
X124609279Y-88329888D01*
X124609279Y-87549734D01*
X124234205Y-87549734D01*
X124234205Y-88329888D01*
X123844129Y-88329888D01*
X123844129Y-88704962D01*
X123454052Y-88704962D01*
X123454052Y-87939811D01*
X123844129Y-87939811D01*
X123844129Y-87549734D01*
X123454052Y-87549734D01*
X123454052Y-87939811D01*
X123078978Y-87939811D01*
X123078978Y-87549734D01*
X122313827Y-87549734D01*
X122313827Y-87174661D01*
X122688901Y-87174661D01*
X123078978Y-87174661D01*
X123454052Y-87174661D01*
X123844129Y-87174661D01*
X124234205Y-87174661D01*
X124234205Y-86784584D01*
X123844129Y-86784584D01*
X123844129Y-87174661D01*
X123454052Y-87174661D01*
X123454052Y-86784584D01*
X123078978Y-86784584D01*
X123078978Y-87174661D01*
X122688901Y-87174661D01*
X122688901Y-86784584D01*
X121923751Y-86784584D01*
X121923751Y-86394507D01*
X121533674Y-86394507D01*
X121533674Y-86019433D01*
X121923751Y-86019433D01*
X121923751Y-85629356D01*
X122313827Y-85629356D01*
X122313827Y-85239280D01*
X121158600Y-85239280D01*
X121158600Y-84864206D01*
X122688901Y-84864206D01*
X122688901Y-85239280D01*
X123078978Y-85239280D01*
X123078978Y-84864206D01*
X123454052Y-84864206D01*
X123454052Y-85239280D01*
X123078978Y-85239280D01*
X123078978Y-85629356D01*
X122313827Y-85629356D01*
X122313827Y-86394507D01*
X122688901Y-86394507D01*
X124234205Y-86394507D01*
X124609279Y-86394507D01*
X124609279Y-86784584D01*
X125389433Y-86784584D01*
X125389433Y-87174661D01*
X125764507Y-87174661D01*
X125764507Y-86784584D01*
X126154583Y-86784584D01*
X126154583Y-86394507D01*
X126544660Y-86394507D01*
X126544660Y-86019433D01*
X124234205Y-86019433D01*
X124234205Y-86394507D01*
X122688901Y-86394507D01*
X122688901Y-86019433D01*
X123078978Y-86019433D01*
X123078978Y-85629356D01*
X123454052Y-85629356D01*
X123454052Y-86019433D01*
X123844129Y-86019433D01*
X123844129Y-85629356D01*
X123454052Y-85629356D01*
X123454052Y-85239280D01*
X123844129Y-85239280D01*
X123844129Y-85629356D01*
X124234205Y-85629356D01*
X124234205Y-85239280D01*
X124609279Y-85239280D01*
X124999356Y-85239280D01*
X125389433Y-85239280D01*
X125389433Y-85629356D01*
X126919734Y-85629356D01*
X126919734Y-85239280D01*
X125764507Y-85239280D01*
X125764507Y-84084052D01*
X125389433Y-84084052D01*
X125389433Y-84864206D01*
X124999356Y-84864206D01*
X124999356Y-85239280D01*
X124609279Y-85239280D01*
X124609279Y-84864206D01*
X124234205Y-84864206D01*
X124234205Y-84474129D01*
X124609279Y-84474129D01*
X124999356Y-84474129D01*
X124999356Y-83708978D01*
X124609279Y-83708978D01*
X124609279Y-84474129D01*
X124234205Y-84474129D01*
X124234205Y-82943828D01*
X124609279Y-82943828D01*
X124609279Y-83318902D01*
X124999356Y-83318902D01*
X124999356Y-82163674D01*
X125764507Y-82163674D01*
X125764507Y-82553751D01*
X125389433Y-82553751D01*
X125389433Y-82943828D01*
X125764507Y-82943828D01*
X125764507Y-83708978D01*
X126154583Y-83708978D01*
X126154583Y-84864206D01*
X126544660Y-84864206D01*
X126544660Y-84084052D01*
X126919734Y-84084052D01*
X126919734Y-84474129D01*
X127309811Y-84474129D01*
X127309811Y-84084052D01*
X127699888Y-84084052D01*
X127699888Y-83318902D01*
X128074961Y-83318902D01*
X128074961Y-82943828D01*
X128465038Y-82943828D01*
X128465038Y-82163674D01*
X128074961Y-82163674D01*
X128074961Y-82553751D01*
X127699888Y-82553751D01*
X127699888Y-83318902D01*
X127309811Y-83318902D01*
X127309811Y-82943828D01*
X126919734Y-82943828D01*
X126919734Y-82553751D01*
X127699888Y-82553751D01*
X127699888Y-82163674D01*
X128074961Y-82163674D01*
X128074961Y-81788600D01*
X129230189Y-81788600D01*
X129230189Y-82163674D01*
X128840112Y-82163674D01*
X128840112Y-82553751D01*
X129620266Y-82553751D01*
X129620266Y-82943828D01*
X130385416Y-82943828D01*
X130385416Y-83318902D01*
X129995339Y-83318902D01*
X129995339Y-83708978D01*
X129230189Y-83708978D01*
X129230189Y-83318902D01*
X128840112Y-83318902D01*
X128840112Y-82943828D01*
X128465038Y-82943828D01*
X128465038Y-83318902D01*
X128840112Y-83318902D01*
X128840112Y-83708978D01*
X128465038Y-83708978D01*
X128465038Y-84474129D01*
X128840112Y-84474129D01*
X128840112Y-85239280D01*
X129620266Y-85239280D01*
X129620266Y-85629356D01*
X129995339Y-85629356D01*
X129995339Y-85239280D01*
X130775493Y-85239280D01*
X130775493Y-84864206D01*
X131150567Y-84864206D01*
X131150567Y-85239280D01*
X130775493Y-85239280D01*
X130775493Y-85629356D01*
X131150567Y-85629356D01*
X131150567Y-85239280D01*
X131540644Y-85239280D01*
G37*
G36*
X129230189Y-83708978D02*
G01*
X129230189Y-84474129D01*
X128840112Y-84474129D01*
X128840112Y-83708978D01*
X129230189Y-83708978D01*
G37*
G36*
X126154583Y-82553751D02*
G01*
X126154583Y-82943828D01*
X125764507Y-82943828D01*
X125764507Y-82553751D01*
X126154583Y-82553751D01*
G37*
G36*
X123454052Y-89095039D02*
G01*
X123078978Y-89095039D01*
X123078978Y-88704962D01*
X123454052Y-88704962D01*
X123454052Y-89095039D01*
G37*
G36*
X124609279Y-82163674D02*
G01*
X124234205Y-82163674D01*
X124234205Y-81788600D01*
X124609279Y-81788600D01*
X124609279Y-82163674D01*
G37*
G36*
X122313827Y-95636326D02*
G01*
X122688901Y-95636326D01*
X122688901Y-95246249D01*
X123078978Y-95246249D01*
X123078978Y-95636326D01*
X123844129Y-95636326D01*
X123844129Y-96011400D01*
X121158600Y-96011400D01*
X121158600Y-95636326D01*
X121533674Y-95636326D01*
X121533674Y-95246249D01*
X121923751Y-95246249D01*
X121923751Y-94856173D01*
X122313827Y-94856173D01*
X122313827Y-95636326D01*
G37*
G36*
X123078978Y-89470112D02*
G01*
X122688901Y-89470112D01*
X122688901Y-89095039D01*
X123078978Y-89095039D01*
X123078978Y-89470112D01*
G37*
G36*
X128074961Y-93325871D02*
G01*
X127699888Y-93325871D01*
X127699888Y-92935795D01*
X128074961Y-92935795D01*
X128074961Y-93325871D01*
G37*
G36*
X134616249Y-95246249D02*
G01*
X133461022Y-95246249D01*
X133461022Y-94091022D01*
X134616249Y-94091022D01*
X134616249Y-95246249D01*
G37*
G36*
X122688901Y-94856173D02*
G01*
X122313827Y-94856173D01*
X122313827Y-94481099D01*
X122688901Y-94481099D01*
X122688901Y-94856173D01*
G37*
G36*
X126544660Y-83708978D02*
G01*
X126154583Y-83708978D01*
X126154583Y-83318902D01*
X126544660Y-83318902D01*
X126544660Y-83708978D01*
G37*
G36*
X126544660Y-82163674D02*
G01*
X126154583Y-82163674D01*
X126154583Y-81788600D01*
X126544660Y-81788600D01*
X126544660Y-82163674D01*
G37*
G36*
X132305794Y-87939811D02*
G01*
X131930720Y-87939811D01*
X131930720Y-87549734D01*
X132305794Y-87549734D01*
X132305794Y-87939811D01*
G37*
G36*
X123844129Y-93715948D02*
G01*
X123454052Y-93715948D01*
X123454052Y-93325871D01*
X123844129Y-93325871D01*
X123844129Y-93715948D01*
G37*
G36*
X128074961Y-88329888D02*
G01*
X127699888Y-88329888D01*
X127699888Y-87939811D01*
X128074961Y-87939811D01*
X128074961Y-88329888D01*
G37*
G36*
X131930720Y-84864206D02*
G01*
X131540644Y-84864206D01*
X131540644Y-84474129D01*
X131930720Y-84474129D01*
X131930720Y-84864206D01*
G37*
G36*
X133085948Y-86019433D02*
G01*
X132695871Y-86019433D01*
X132695871Y-85629356D01*
X133085948Y-85629356D01*
X133085948Y-86019433D01*
G37*
G36*
X121533674Y-93325871D02*
G01*
X121158600Y-93325871D01*
X121158600Y-92935795D01*
X121533674Y-92935795D01*
X121533674Y-93325871D01*
G37*
G36*
X123078978Y-88704962D02*
G01*
X122313827Y-88704962D01*
X122313827Y-87939811D01*
X123078978Y-87939811D01*
X123078978Y-88704962D01*
G37*
G36*
X134616249Y-83708978D02*
G01*
X133461022Y-83708978D01*
X133461022Y-82553751D01*
X134616249Y-82553751D01*
X134616249Y-83708978D01*
G37*
G36*
X129230189Y-89470112D02*
G01*
X128840112Y-89470112D01*
X128840112Y-89860189D01*
X128465038Y-89860189D01*
X128465038Y-89095039D01*
X129230189Y-89095039D01*
X129230189Y-89470112D01*
G37*
G36*
X131150567Y-88329888D02*
G01*
X130775493Y-88329888D01*
X130775493Y-87939811D01*
X131150567Y-87939811D01*
X131150567Y-88329888D01*
G37*
G36*
X124999356Y-92170644D02*
G01*
X124609279Y-92170644D01*
X124609279Y-91780567D01*
X124999356Y-91780567D01*
X124999356Y-92170644D01*
G37*
G36*
X135381400Y-87174661D02*
G01*
X135006326Y-87174661D01*
X135006326Y-86784584D01*
X135381400Y-86784584D01*
X135381400Y-87174661D01*
G37*
G36*
X135381400Y-85629356D02*
G01*
X135006326Y-85629356D01*
X135006326Y-85239280D01*
X134616249Y-85239280D01*
X134616249Y-85629356D01*
X135006326Y-85629356D01*
X135006326Y-86019433D01*
X134616249Y-86019433D01*
X134616249Y-86394507D01*
X134226172Y-86394507D01*
X134226172Y-86784584D01*
X133851098Y-86784584D01*
X133851098Y-85629356D01*
X134226172Y-85629356D01*
X134226172Y-85239280D01*
X134616249Y-85239280D01*
X134616249Y-84864206D01*
X135381400Y-84864206D01*
X135381400Y-85629356D01*
G37*
G36*
X130775493Y-87939811D02*
G01*
X130385416Y-87939811D01*
X130385416Y-87549734D01*
X130775493Y-87549734D01*
X130775493Y-87939811D01*
G37*
G36*
X128465038Y-86019433D02*
G01*
X128074961Y-86019433D01*
X128074961Y-85629356D01*
X128465038Y-85629356D01*
X128465038Y-86019433D01*
G37*
G36*
X130775493Y-82163674D02*
G01*
X130385416Y-82163674D01*
X130385416Y-82553751D01*
X129995339Y-82553751D01*
X129995339Y-81788600D01*
X130775493Y-81788600D01*
X130775493Y-82163674D01*
G37*
G36*
X132695871Y-84474129D02*
G01*
X132695871Y-84084052D01*
X133085948Y-84084052D01*
X135006326Y-84084052D01*
X135006326Y-82163674D01*
X133085948Y-82163674D01*
X133085948Y-84084052D01*
X132695871Y-84084052D01*
X132695871Y-81788600D01*
X135381400Y-81788600D01*
X135381400Y-84474129D01*
X132695871Y-84474129D01*
G37*
G36*
X121533674Y-89860189D02*
G01*
X121158600Y-89860189D01*
X121158600Y-89470112D01*
X121533674Y-89470112D01*
X121533674Y-89860189D01*
G37*
G36*
X133851098Y-85239280D02*
G01*
X132695871Y-85239280D01*
X132695871Y-84864206D01*
X133851098Y-84864206D01*
X133851098Y-85239280D01*
G37*
G36*
X135381400Y-92935795D02*
G01*
X134616249Y-92935795D01*
X134616249Y-92560721D01*
X135381400Y-92560721D01*
X135381400Y-92935795D01*
G37*
G36*
X130775493Y-94091022D02*
G01*
X130385416Y-94091022D01*
X130385416Y-93715948D01*
X130775493Y-93715948D01*
X130775493Y-94091022D01*
G37*
G36*
X123078978Y-83708978D02*
G01*
X121923751Y-83708978D01*
X121923751Y-82553751D01*
X123078978Y-82553751D01*
X123078978Y-83708978D01*
G37*
G36*
X121923751Y-94856173D02*
G01*
X121158600Y-94856173D01*
X121158600Y-94481099D01*
X121923751Y-94481099D01*
X121923751Y-94856173D01*
G37*
G36*
X131150567Y-84084052D02*
G01*
X130775493Y-84084052D01*
X130775493Y-84864206D01*
X130385416Y-84864206D01*
X130385416Y-83708978D01*
X131150567Y-83708978D01*
X131150567Y-84084052D01*
G37*
G36*
X129995339Y-84864206D02*
G01*
X129230189Y-84864206D01*
X129230189Y-84474129D01*
X129620266Y-84474129D01*
X129620266Y-84084052D01*
X129995339Y-84084052D01*
X129995339Y-84864206D01*
G37*
G36*
X126544660Y-95246249D02*
G01*
X125389433Y-95246249D01*
X125389433Y-94856173D01*
X126544660Y-94856173D01*
X126544660Y-95246249D01*
G37*
G36*
X131540644Y-87939811D02*
G01*
X131150567Y-87939811D01*
X131150567Y-87549734D01*
X131540644Y-87549734D01*
X131540644Y-87939811D01*
G37*
G36*
X130775493Y-91015417D02*
G01*
X130385416Y-91015417D01*
X130385416Y-90625340D01*
X130775493Y-90625340D01*
X130775493Y-91015417D01*
G37*
G36*
X130775493Y-86784584D02*
G01*
X130385416Y-86784584D01*
X130385416Y-86394507D01*
X130775493Y-86394507D01*
X130775493Y-86784584D01*
G37*
G36*
X124609279Y-91015417D02*
G01*
X124234205Y-91015417D01*
X124234205Y-90625340D01*
X124609279Y-90625340D01*
X124609279Y-91015417D01*
G37*
G36*
X124234205Y-90625340D02*
G01*
X123844129Y-90625340D01*
X123844129Y-90250266D01*
X124234205Y-90250266D01*
X124234205Y-90625340D01*
G37*
G36*
X122313827Y-94481099D02*
G01*
X121923751Y-94481099D01*
X121923751Y-94091022D01*
X121158600Y-94091022D01*
X121158600Y-93715948D01*
X122313827Y-93715948D01*
X122313827Y-94481099D01*
G37*
G36*
X132695871Y-96011400D02*
G01*
X132695871Y-95636326D01*
X133085948Y-95636326D01*
X135006326Y-95636326D01*
X135006326Y-93715948D01*
X133085948Y-93715948D01*
X133085948Y-95636326D01*
X132695871Y-95636326D01*
X132695871Y-93325871D01*
X135381400Y-93325871D01*
X135381400Y-96011400D01*
X132695871Y-96011400D01*
G37*
%TO.C,TP1*%
X170100000Y-148400000D02*
G75*
G03*
X170100000Y-148400000I-700000J0D01*
G01*
%TO.C,TP5*%
X99900000Y-102400000D02*
G75*
G03*
X99900000Y-102400000I-700000J0D01*
G01*
%TO.C,TP3*%
X166200000Y-90200000D02*
G75*
G03*
X166200000Y-90200000I-700000J0D01*
G01*
%TO.C,TP4*%
X148200000Y-147100000D02*
G75*
G03*
X148200000Y-147100000I-700000J0D01*
G01*
%TD*%
M02*
