<?xml version="1.0" standalone="no"?>
 <!DOCTYPE svg PUBLIC "-//W3C//DTD SVG 1.1//EN" 
 "http://www.w3.org/Graphics/SVG/1.1/DTD/svg11.dtd"> 
<svg
  xmlns:svg="http://www.w3.org/2000/svg"
  xmlns="http://www.w3.org/2000/svg"
  xmlns:xlink="http://www.w3.org/1999/xlink"
  version="1.1"
  width="29.700220cm" height="21.000720cm" viewBox="0 0 116930 82680">
<title>SVG Picture created as main-Sensing-Temperature_Sensor.svg date 2022/04/08 16:21:17 </title>
  <desc>Picture generated by Eeschema-SVG </desc>
<g style="fill:#000000; fill-opacity:1.000000;stroke:#000000; stroke-opacity:1.000000;
stroke-linecap:round; stroke-linejoin:round;"
 transform="translate(0 0) scale(1 1)">
</g>
<g style="fill:#840000; fill-opacity:0.0; 
stroke:#840000; stroke-width:0.000000; stroke-opacity:1; 
stroke-linecap:round; stroke-linejoin:round;">
</g>
<g style="fill:#840000; fill-opacity:0.0; 
stroke:#840000; stroke-width:60.000000; stroke-opacity:1; 
stroke-linecap:round; stroke-linejoin:round;">
<rect x="69685.905512" y="65357.165354" width="42519.685039" height="12598.425197" rx="0.000000" />
<rect x="3937.007874" y="3937.007874" width="109055.984252" height="74805.984252" rx="0.000000" />
<rect x="4724.409449" y="4724.409449" width="107481.181102" height="73231.181102" rx="0.000000" />
<path d="M23622 4724
L23622 3937
" />
<path d="M43307 4724
L43307 3937
" />
<path d="M62992 4724
L62992 3937
" />
<path d="M82677 4724
L82677 3937
" />
<path d="M102362 4724
L102362 3937
" />
<text x="13779.527559" y="4586.614173"
textLength="549.960630" font-size="682.401575" lengthAdjust="spacingAndGlyphs"
text-anchor="start" opacity="0">1</text>
<g class="stroked-text"><desc>1</desc>
<path d="M14199 4562
L13907 4562
" />
<path d="M14053 4562
L14053 4050
L14004 4123
L13955 4172
L13907 4196
" />
</g><text x="33464.566929" y="4586.614173"
textLength="547.440945" font-size="682.401575" lengthAdjust="spacingAndGlyphs"
text-anchor="start" opacity="0">2</text>
<g class="stroked-text"><desc>2</desc>
<path d="M33592 4099
L33616 4074
L33665 4050
L33787 4050
L33835 4074
L33860 4099
L33884 4147
L33884 4196
L33860 4269
L33567 4562
L33884 4562
" />
</g><text x="53149.606299" y="4586.614173"
textLength="547.440945" font-size="682.401575" lengthAdjust="spacingAndGlyphs"
text-anchor="start" opacity="0">3</text>
<g class="stroked-text"><desc>3</desc>
<path d="M53252 4050
L53569 4050
L53398 4245
L53472 4245
L53520 4269
L53545 4294
L53569 4342
L53569 4464
L53545 4513
L53520 4537
L53472 4562
L53325 4562
L53277 4537
L53252 4513
" />
</g><text x="72834.645669" y="4586.614173"
textLength="547.440945" font-size="682.401575" lengthAdjust="spacingAndGlyphs"
text-anchor="start" opacity="0">4</text>
<g class="stroked-text"><desc>4</desc>
<path d="M73205 4221
L73205 4562
" />
<path d="M73083 4026
L72962 4391
L73278 4391
" />
</g><text x="92519.685039" y="4586.614173"
textLength="547.440945" font-size="682.401575" lengthAdjust="spacingAndGlyphs"
text-anchor="start" opacity="0">5</text>
<g class="stroked-text"><desc>5</desc>
<path d="M92915 4050
L92671 4050
L92647 4294
L92671 4269
L92720 4245
L92842 4245
L92890 4269
L92915 4294
L92939 4342
L92939 4464
L92915 4513
L92890 4537
L92842 4562
L92720 4562
L92671 4537
L92647 4513
" />
</g><text x="112204.724409" y="4586.614173"
textLength="547.440945" font-size="682.401575" lengthAdjust="spacingAndGlyphs"
text-anchor="start" opacity="0">6</text>
<g class="stroked-text"><desc>6</desc>
<path d="M112575 4050
L112478 4050
L112429 4074
L112405 4099
L112356 4172
L112332 4269
L112332 4464
L112356 4513
L112380 4537
L112429 4562
L112527 4562
L112575 4537
L112600 4513
L112624 4464
L112624 4342
L112600 4294
L112575 4269
L112527 4245
L112429 4245
L112380 4269
L112356 4294
L112332 4342
" />
</g><path d="M23622 77955
L23622 78742
" />
<path d="M43307 77955
L43307 78742
" />
<path d="M62992 77955
L62992 78742
" />
<path d="M82677 77955
L82677 78742
" />
<path d="M102362 77955
L102362 78742
" />
<text x="13779.527559" y="78605.196850"
textLength="547.440945" font-size="682.401575" lengthAdjust="spacingAndGlyphs"
text-anchor="start" opacity="0">1</text>
<g class="stroked-text"><desc>1</desc>
<path d="M14199 78580
L13907 78580
" />
<path d="M14053 78580
L14053 78068
L14004 78142
L13955 78190
L13907 78215
" />
</g><text x="33464.566929" y="78605.196850"
textLength="547.440945" font-size="682.401575" lengthAdjust="spacingAndGlyphs"
text-anchor="start" opacity="0">2</text>
<g class="stroked-text"><desc>2</desc>
<path d="M33592 78117
L33616 78093
L33665 78068
L33787 78068
L33835 78093
L33860 78117
L33884 78166
L33884 78215
L33860 78288
L33567 78580
L33884 78580
" />
</g><text x="53149.606299" y="78605.196850"
textLength="547.440945" font-size="682.401575" lengthAdjust="spacingAndGlyphs"
text-anchor="start" opacity="0">3</text>
<g class="stroked-text"><desc>3</desc>
<path d="M53252 78068
L53569 78068
L53398 78263
L53472 78263
L53520 78288
L53545 78312
L53569 78361
L53569 78483
L53545 78532
L53520 78556
L53472 78580
L53325 78580
L53277 78556
L53252 78532
" />
</g><text x="72834.645669" y="78605.196850"
textLength="547.440945" font-size="682.401575" lengthAdjust="spacingAndGlyphs"
text-anchor="start" opacity="0">4</text>
<g class="stroked-text"><desc>4</desc>
<path d="M73205 78239
L73205 78580
" />
<path d="M73083 78044
L72962 78410
L73278 78410
" />
</g><text x="92519.685039" y="78605.196850"
textLength="547.440945" font-size="682.401575" lengthAdjust="spacingAndGlyphs"
text-anchor="start" opacity="0">5</text>
<g class="stroked-text"><desc>5</desc>
<path d="M92915 78068
L92671 78068
L92647 78312
L92671 78288
L92720 78263
L92842 78263
L92890 78288
L92915 78312
L92939 78361
L92939 78483
L92915 78532
L92890 78556
L92842 78580
L92720 78580
L92671 78556
L92647 78532
" />
</g><text x="112204.724409" y="78605.196850"
textLength="547.440945" font-size="682.401575" lengthAdjust="spacingAndGlyphs"
text-anchor="start" opacity="0">6</text>
<g class="stroked-text"><desc>6</desc>
<path d="M112575 78068
L112478 78068
L112429 78093
L112405 78117
L112356 78190
L112332 78288
L112332 78483
L112356 78532
L112380 78556
L112429 78580
L112527 78580
L112575 78556
L112600 78532
L112624 78483
L112624 78361
L112600 78312
L112575 78288
L112527 78263
L112429 78263
L112380 78288
L112356 78312
L112332 78361
" />
</g><path d="M3937 23622
L4724 23622
" />
<path d="M3937 43307
L4724 43307
" />
<path d="M3937 62992
L4724 62992
" />
<text x="4330.708661" y="14035.433071"
textLength="498.700787" font-size="682.401575" lengthAdjust="spacingAndGlyphs"
text-anchor="middle" opacity="0">A</text>
<g class="stroked-text"><desc>A</desc>
<path d="M4208 13864
L4452 13864
" />
<path d="M4160 14011
L4330 13499
L4501 14011
" />
</g><text x="4330.708661" y="33720.472441"
textLength="571.811024" font-size="682.401575" lengthAdjust="spacingAndGlyphs"
text-anchor="middle" opacity="0">B</text>
<g class="stroked-text"><desc>B</desc>
<path d="M4367 33427
L4440 33452
L4464 33476
L4489 33525
L4489 33598
L4464 33647
L4440 33671
L4391 33696
L4196 33696
L4196 33184
L4367 33184
L4415 33208
L4440 33233
L4464 33281
L4464 33330
L4440 33379
L4415 33403
L4367 33427
L4196 33427
" />
</g><text x="4330.708661" y="53405.511811"
textLength="571.811024" font-size="682.401575" lengthAdjust="spacingAndGlyphs"
text-anchor="middle" opacity="0">C</text>
<g class="stroked-text"><desc>C</desc>
<path d="M4489 53332
L4464 53356
L4391 53381
L4342 53381
L4269 53356
L4221 53307
L4196 53259
L4172 53161
L4172 53088
L4196 52991
L4221 52942
L4269 52893
L4342 52869
L4391 52869
L4464 52893
L4489 52918
" />
</g><text x="4330.708661" y="73090.551181"
textLength="571.811024" font-size="682.401575" lengthAdjust="spacingAndGlyphs"
text-anchor="middle" opacity="0">D</text>
<g class="stroked-text"><desc>D</desc>
<path d="M4196 73066
L4196 72554
L4318 72554
L4391 72578
L4440 72627
L4464 72676
L4489 72773
L4489 72846
L4464 72944
L4440 72993
L4391 73041
L4318 73066
L4196 73066
" />
</g><path d="M112992 23622
L112205 23622
" />
<path d="M112992 43307
L112205 43307
" />
<path d="M112992 62992
L112205 62992
" />
<text x="112599.291339" y="14035.433071"
textLength="498.700787" font-size="682.401575" lengthAdjust="spacingAndGlyphs"
text-anchor="middle" opacity="0">A</text>
<g class="stroked-text"><desc>A</desc>
<path d="M112477 13864
L112721 13864
" />
<path d="M112428 14011
L112599 13499
L112769 14011
" />
</g><text x="112599.291339" y="33720.472441"
textLength="571.811024" font-size="682.401575" lengthAdjust="spacingAndGlyphs"
text-anchor="middle" opacity="0">B</text>
<g class="stroked-text"><desc>B</desc>
<path d="M112635 33427
L112708 33452
L112733 33476
L112757 33525
L112757 33598
L112733 33647
L112708 33671
L112660 33696
L112465 33696
L112465 33184
L112635 33184
L112684 33208
L112708 33233
L112733 33281
L112733 33330
L112708 33379
L112684 33403
L112635 33427
L112465 33427
" />
</g><text x="112599.291339" y="53405.511811"
textLength="571.811024" font-size="682.401575" lengthAdjust="spacingAndGlyphs"
text-anchor="middle" opacity="0">C</text>
<g class="stroked-text"><desc>C</desc>
<path d="M112757 53332
L112733 53356
L112660 53381
L112611 53381
L112538 53356
L112489 53307
L112465 53259
L112440 53161
L112440 53088
L112465 52991
L112489 52942
L112538 52893
L112611 52869
L112660 52869
L112733 52893
L112757 52918
" />
</g><text x="112599.291339" y="73090.551181"
textLength="571.811024" font-size="682.401575" lengthAdjust="spacingAndGlyphs"
text-anchor="middle" opacity="0">D</text>
<g class="stroked-text"><desc>D</desc>
<path d="M112465 73066
L112465 72554
L112587 72554
L112660 72578
L112708 72627
L112733 72676
L112757 72773
L112757 72846
L112733 72944
L112708 72993
L112660 73041
L112587 73066
L112465 73066
" />
</g><text x="78741.023622" y="76321.732283"
textLength="8721.417323" font-size="787.401575" lengthAdjust="spacingAndGlyphs"
text-anchor="start" opacity="0">Date: 2022-03-09</text>
<g class="stroked-text"><desc>Date: 2022-03-09</desc>
<path d="M78911 76293
L78911 75703
L79052 75703
L79136 75731
L79192 75787
L79220 75843
L79249 75956
L79249 76040
L79220 76152
L79192 76209
L79136 76265
L79052 76293
L78911 76293
" />
<path d="M79755 76293
L79755 75984
L79727 75928
L79670 75899
L79558 75899
L79502 75928
" />
<path d="M79755 76265
L79699 76293
L79558 76293
L79502 76265
L79474 76209
L79474 76152
L79502 76096
L79558 76068
L79699 76068
L79755 76040
" />
<path d="M79952 75899
L80177 75899
" />
<path d="M80036 75703
L80036 76209
L80064 76265
L80120 76293
L80177 76293
" />
<path d="M80598 76265
L80542 76293
L80430 76293
L80373 76265
L80345 76209
L80345 75984
L80373 75928
L80430 75899
L80542 75899
L80598 75928
L80627 75984
L80627 76040
L80345 76096
" />
<path d="M80880 76237
L80908 76265
L80880 76293
L80852 76265
L80880 76237
L80880 76293
" />
<path d="M80880 75928
L80908 75956
L80880 75984
L80852 75956
L80880 75928
L80880 75984
" />
<path d="M81583 75759
L81611 75731
L81667 75703
L81808 75703
L81864 75731
L81892 75759
L81920 75815
L81920 75871
L81892 75956
L81555 76293
L81920 76293
" />
<path d="M82286 75703
L82342 75703
L82398 75731
L82426 75759
L82454 75815
L82483 75928
L82483 76068
L82454 76181
L82426 76237
L82398 76265
L82342 76293
L82286 76293
L82229 76265
L82201 76237
L82173 76181
L82145 76068
L82145 75928
L82173 75815
L82201 75759
L82229 75731
L82286 75703
" />
<path d="M82708 75759
L82736 75731
L82792 75703
L82932 75703
L82989 75731
L83017 75759
L83045 75815
L83045 75871
L83017 75956
L82679 76293
L83045 76293
" />
<path d="M83270 75759
L83298 75731
L83354 75703
L83495 75703
L83551 75731
L83579 75759
L83607 75815
L83607 75871
L83579 75956
L83242 76293
L83607 76293
" />
<path d="M83860 76068
L84310 76068
" />
<path d="M84704 75703
L84760 75703
L84817 75731
L84845 75759
L84873 75815
L84901 75928
L84901 76068
L84873 76181
L84845 76237
L84817 76265
L84760 76293
L84704 76293
L84648 76265
L84620 76237
L84592 76181
L84564 76068
L84564 75928
L84592 75815
L84620 75759
L84648 75731
L84704 75703
" />
<path d="M85098 75703
L85463 75703
L85267 75928
L85351 75928
L85407 75956
L85435 75984
L85463 76040
L85463 76181
L85435 76237
L85407 76265
L85351 76293
L85182 76293
L85126 76265
L85098 76237
" />
<path d="M85717 76068
L86166 76068
" />
<path d="M86560 75703
L86616 75703
L86673 75731
L86701 75759
L86729 75815
L86757 75928
L86757 76068
L86729 76181
L86701 76237
L86673 76265
L86616 76293
L86560 76293
L86504 76265
L86476 76237
L86448 76181
L86420 76068
L86420 75928
L86448 75815
L86476 75759
L86504 75731
L86560 75703
" />
<path d="M87038 76293
L87151 76293
L87207 76265
L87235 76237
L87291 76152
L87319 76040
L87319 75815
L87291 75759
L87263 75731
L87207 75703
L87094 75703
L87038 75731
L87010 75759
L86982 75815
L86982 75956
L87010 76012
L87038 76040
L87094 76068
L87207 76068
L87263 76040
L87291 76012
L87319 75956
" />
</g><path d="M69685 76577
L112205 76577
" />
<text x="70079.606299" y="77424.094488"
textLength="12236.614173" font-size="787.401575" lengthAdjust="spacingAndGlyphs"
text-anchor="start" opacity="0">KiCad E.D.A.  kicad (6.0.2)</text>
<g class="stroked-text"><desc>KiCad E.D.A.  kicad (6.0.2)</desc>
<path d="M70250 77395
L70250 76805
" />
<path d="M70587 77395
L70334 77058
" />
<path d="M70587 76805
L70250 77142
" />
<path d="M70840 77395
L70840 77002
" />
<path d="M70840 76805
L70812 76833
L70840 76861
L70868 76833
L70840 76805
L70840 76861
" />
<path d="M71459 77339
L71431 77367
L71346 77395
L71290 77395
L71206 77367
L71150 77311
L71121 77255
L71093 77142
L71093 77058
L71121 76946
L71150 76889
L71206 76833
L71290 76805
L71346 76805
L71431 76833
L71459 76861
" />
<path d="M71965 77395
L71965 77086
L71937 77030
L71881 77002
L71768 77002
L71712 77030
" />
<path d="M71965 77367
L71909 77395
L71768 77395
L71712 77367
L71684 77311
L71684 77255
L71712 77199
L71768 77170
L71909 77170
L71965 77142
" />
<path d="M72499 77395
L72499 76805
" />
<path d="M72499 77367
L72443 77395
L72331 77395
L72274 77367
L72246 77339
L72218 77283
L72218 77114
L72246 77058
L72274 77030
L72331 77002
L72443 77002
L72499 77030
" />
<path d="M73231 77086
L73427 77086
" />
<path d="M73512 77395
L73231 77395
L73231 76805
L73512 76805
" />
<path d="M73765 77339
L73793 77367
L73765 77395
L73737 77367
L73765 77339
L73765 77395
" />
<path d="M74046 77395
L74046 76805
L74187 76805
L74271 76833
L74327 76889
L74355 76946
L74384 77058
L74384 77142
L74355 77255
L74327 77311
L74271 77367
L74187 77395
L74046 77395
" />
<path d="M74637 77339
L74665 77367
L74637 77395
L74609 77367
L74637 77339
L74637 77395
" />
<path d="M74890 77227
L75171 77227
" />
<path d="M74834 77395
L75030 76805
L75227 77395
" />
<path d="M75424 77339
L75452 77367
L75424 77395
L75396 77367
L75424 77339
L75424 77395
" />
<path d="M76605 77395
L76605 76805
" />
<path d="M76661 77170
L76830 77395
" />
<path d="M76830 77002
L76605 77227
" />
<path d="M77083 77395
L77083 77002
" />
<path d="M77083 76805
L77055 76833
L77083 76861
L77111 76833
L77083 76805
L77083 76861
" />
<path d="M77618 77367
L77561 77395
L77449 77395
L77393 77367
L77364 77339
L77336 77283
L77336 77114
L77364 77058
L77393 77030
L77449 77002
L77561 77002
L77618 77030
" />
<path d="M78124 77395
L78124 77086
L78096 77030
L78039 77002
L77927 77002
L77871 77030
" />
<path d="M78124 77367
L78067 77395
L77927 77395
L77871 77367
L77842 77311
L77842 77255
L77871 77199
L77927 77170
L78067 77170
L78124 77142
" />
<path d="M78658 77395
L78658 76805
" />
<path d="M78658 77367
L78602 77395
L78489 77395
L78433 77367
L78405 77339
L78377 77283
L78377 77114
L78405 77058
L78433 77030
L78489 77002
L78602 77002
L78658 77030
" />
<path d="M79558 77620
L79530 77592
L79474 77508
L79445 77452
L79417 77367
L79389 77227
L79389 77114
L79417 76974
L79445 76889
L79474 76833
L79530 76749
L79558 76721
" />
<path d="M80036 76805
L79923 76805
L79867 76833
L79839 76861
L79783 76946
L79755 77058
L79755 77283
L79783 77339
L79811 77367
L79867 77395
L79980 77395
L80036 77367
L80064 77339
L80092 77283
L80092 77142
L80064 77086
L80036 77058
L79980 77030
L79867 77030
L79811 77058
L79783 77086
L79755 77142
" />
<path d="M80345 77339
L80373 77367
L80345 77395
L80317 77367
L80345 77339
L80345 77395
" />
<path d="M80739 76805
L80795 76805
L80852 76833
L80880 76861
L80908 76917
L80936 77030
L80936 77170
L80908 77283
L80880 77339
L80852 77367
L80795 77395
L80739 77395
L80683 77367
L80655 77339
L80627 77283
L80598 77170
L80598 77030
L80627 76917
L80655 76861
L80683 76833
L80739 76805
" />
<path d="M81189 77339
L81217 77367
L81189 77395
L81161 77367
L81189 77339
L81189 77395
" />
<path d="M81442 76861
L81470 76833
L81526 76805
L81667 76805
L81723 76833
L81751 76861
L81780 76917
L81780 76974
L81751 77058
L81414 77395
L81780 77395
" />
<path d="M81976 77620
L82004 77592
L82061 77508
L82089 77452
L82117 77367
L82145 77227
L82145 77114
L82117 76974
L82089 76889
L82061 76833
L82004 76749
L81976 76721
" />
</g><path d="M69685 75396
L112205 75396
" />
</g>
<g style="fill:#840000; fill-opacity:0.0; 
stroke:#840000; stroke-width:118.110236; stroke-opacity:1; 
stroke-linecap:round; stroke-linejoin:round;">
<text x="103544.173228" y="76321.732283"
textLength="4193.858268" font-size="787.401575" lengthAdjust="spacingAndGlyphs"
text-anchor="start" opacity="0">Rev: v1.0</text>
<g class="stroked-text"><desc>Rev: v1.0</desc>
<path d="M104098 76293
L103902 76012
" />
<path d="M103761 76293
L103761 75703
L103986 75703
L104042 75731
L104070 75759
L104098 75815
L104098 75899
L104070 75956
L104042 75984
L103986 76012
L103761 76012
" />
<path d="M104577 76265
L104520 76293
L104408 76293
L104352 76265
L104323 76209
L104323 75984
L104352 75928
L104408 75899
L104520 75899
L104577 75928
L104605 75984
L104605 76040
L104323 76096
" />
<path d="M104802 75899
L104942 76293
L105083 75899
" />
<path d="M105308 76237
L105336 76265
L105308 76293
L105280 76265
L105308 76237
L105308 76293
" />
<path d="M105308 75928
L105336 75956
L105308 75984
L105280 75956
L105308 75928
L105308 75984
" />
<path d="M105983 75899
L106123 76293
L106264 75899
" />
<path d="M106798 76293
L106461 76293
" />
<path d="M106629 76293
L106629 75703
L106573 75787
L106517 75843
L106461 75871
" />
<path d="M107051 76237
L107079 76265
L107051 76293
L107023 76265
L107051 76237
L107051 76293
" />
<path d="M107445 75703
L107501 75703
L107557 75731
L107586 75759
L107614 75815
L107642 75928
L107642 76068
L107614 76181
L107586 76237
L107557 76265
L107501 76293
L107445 76293
L107389 76265
L107361 76237
L107332 76181
L107304 76068
L107304 75928
L107332 75815
L107361 75759
L107389 75731
L107445 75703
" />
</g></g>
<g style="fill:#840000; fill-opacity:0.0; 
stroke:#840000; stroke-width:60.000000; stroke-opacity:1; 
stroke-linecap:round; stroke-linejoin:round;">
<text x="70079.606299" y="76321.732283"
textLength="3781.220472" font-size="787.401575" lengthAdjust="spacingAndGlyphs"
text-anchor="start" opacity="0">Size: A4</text>
<g class="stroked-text"><desc>Size: A4</desc>
<path d="M70222 76265
L70306 76293
L70447 76293
L70503 76265
L70531 76237
L70559 76181
L70559 76124
L70531 76068
L70503 76040
L70447 76012
L70334 75984
L70278 75956
L70250 75928
L70222 75871
L70222 75815
L70250 75759
L70278 75731
L70334 75703
L70475 75703
L70559 75731
" />
<path d="M70812 76293
L70812 75899
" />
<path d="M70812 75703
L70784 75731
L70812 75759
L70840 75731
L70812 75703
L70812 75759
" />
<path d="M71037 75899
L71346 75899
L71037 76293
L71346 76293
" />
<path d="M71796 76265
L71740 76293
L71628 76293
L71571 76265
L71543 76209
L71543 75984
L71571 75928
L71628 75899
L71740 75899
L71796 75928
L71825 75984
L71825 76040
L71543 76096
" />
<path d="M72078 76237
L72106 76265
L72078 76293
L72049 76265
L72078 76237
L72078 76293
" />
<path d="M72078 75928
L72106 75956
L72078 75984
L72049 75956
L72078 75928
L72078 75984
" />
<path d="M72781 76124
L73062 76124
" />
<path d="M72724 76293
L72921 75703
L73118 76293
" />
<path d="M73568 75899
L73568 76293
" />
<path d="M73427 75674
L73287 76096
L73652 76096
" />
</g><text x="103544.173228" y="77424.094488"
textLength="3378.346457" font-size="787.401575" lengthAdjust="spacingAndGlyphs"
text-anchor="start" opacity="0">Id: #/7</text>
<g class="stroked-text"><desc>Id: #/7</desc>
<path d="M103714 77395
L103714 76805
" />
<path d="M104249 77395
L104249 76805
" />
<path d="M104249 77367
L104192 77395
L104080 77395
L104024 77367
L103995 77339
L103967 77283
L103967 77114
L103995 77058
L104024 77030
L104080 77002
L104192 77002
L104249 77030
" />
<path d="M104530 77339
L104558 77367
L104530 77395
L104502 77367
L104530 77339
L104530 77395
" />
<path d="M104530 77030
L104558 77058
L104530 77086
L104502 77058
L104530 77030
L104530 77086
" />
<path d="M105233 77002
L105655 77002
" />
<path d="M105402 76749
L105233 77508
" />
<path d="M105598 77255
L105177 77255
" />
<path d="M105430 77508
L105598 76749
" />
<path d="M106273 76777
L105767 77536
" />
<path d="M106414 76805
L106808 76805
L106555 77395
" />
</g><path d="M69685 73821
L112205 73821
" />
</g>
<g style="fill:#840000; fill-opacity:0.0; 
stroke:#840000; stroke-width:157.480315; stroke-opacity:1; 
stroke-linecap:round; stroke-linejoin:round;">
<text x="70079.606299" y="74924.094488"
textLength="15516.535433" font-size="1049.842520" lengthAdjust="spacingAndGlyphs"
text-anchor="start" opacity="0">Title: Temperature Sensor</text>
<g class="stroked-text"><desc>Title: Temperature Sensor</desc>
<path d="M70360 74099
L70810 74099
" />
<path d="M70486 74886
L70585 74099
" />
<path d="M70974 74886
L71039 74361
" />
<path d="M71072 74099
L71030 74136
L71063 74174
L71105 74136
L71072 74099
L71063 74174
" />
<path d="M71302 74361
L71602 74361
" />
<path d="M71447 74099
L71363 74774
L71391 74849
L71461 74886
L71536 74886
" />
<path d="M71911 74886
L71841 74849
L71812 74774
L71897 74099
" />
<path d="M72516 74849
L72436 74886
L72286 74886
L72216 74849
L72187 74774
L72225 74474
L72272 74399
L72352 74361
L72501 74361
L72572 74399
L72600 74474
L72591 74549
L72206 74624
" />
<path d="M72895 74811
L72928 74849
L72886 74886
L72853 74849
L72895 74811
L72886 74886
" />
<path d="M72947 74399
L72980 74436
L72937 74474
L72905 74436
L72947 74399
L72937 74474
" />
<path d="M73847 74099
L74297 74099
" />
<path d="M73973 74886
L74072 74099
" />
<path d="M74765 74849
L74686 74886
L74536 74886
L74465 74849
L74437 74774
L74475 74474
L74522 74399
L74601 74361
L74751 74361
L74822 74399
L74850 74474
L74840 74549
L74456 74624
" />
<path d="M75136 74886
L75201 74361
" />
<path d="M75192 74436
L75234 74399
L75314 74361
L75426 74361
L75496 74399
L75525 74474
L75473 74886
" />
<path d="M75525 74474
L75571 74399
L75651 74361
L75764 74361
L75834 74399
L75862 74474
L75810 74886
" />
<path d="M76251 74361
L76153 75149
" />
<path d="M76246 74399
L76326 74361
L76476 74361
L76546 74399
L76579 74436
L76607 74511
L76579 74736
L76532 74811
L76490 74849
L76410 74886
L76260 74886
L76190 74849
" />
<path d="M77202 74849
L77123 74886
L76973 74886
L76902 74849
L76874 74774
L76912 74474
L76959 74399
L77038 74361
L77188 74361
L77259 74399
L77287 74474
L77277 74549
L76893 74624
" />
<path d="M77573 74886
L77638 74361
" />
<path d="M77620 74511
L77666 74436
L77709 74399
L77788 74361
L77863 74361
" />
<path d="M78398 74886
L78449 74474
L78421 74399
L78351 74361
L78201 74361
L78121 74399
" />
<path d="M78402 74849
L78323 74886
L78135 74886
L78065 74849
L78037 74774
L78046 74699
L78093 74624
L78173 74586
L78360 74586
L78440 74549
" />
<path d="M78726 74361
L79026 74361
" />
<path d="M78871 74099
L78787 74774
L78815 74849
L78885 74886
L78960 74886
" />
<path d="M79626 74361
L79560 74886
" />
<path d="M79288 74361
L79237 74774
L79265 74849
L79335 74886
L79447 74886
L79527 74849
L79569 74811
" />
<path d="M79935 74886
L80001 74361
" />
<path d="M79982 74511
L80029 74436
L80071 74399
L80151 74361
L80226 74361
" />
<path d="M80727 74849
L80647 74886
L80497 74886
L80427 74849
L80399 74774
L80436 74474
L80483 74399
L80563 74361
L80713 74361
L80783 74399
L80811 74474
L80802 74549
L80418 74624
" />
<path d="M81664 74849
L81772 74886
L81960 74886
L82039 74849
L82082 74811
L82128 74736
L82138 74661
L82110 74586
L82077 74549
L82007 74511
L81861 74474
L81791 74436
L81758 74399
L81730 74324
L81739 74249
L81786 74174
L81828 74136
L81908 74099
L82096 74099
L82203 74136
" />
<path d="M82752 74849
L82672 74886
L82522 74886
L82452 74849
L82424 74774
L82461 74474
L82508 74399
L82588 74361
L82738 74361
L82808 74399
L82836 74474
L82827 74549
L82442 74624
" />
<path d="M83188 74361
L83122 74886
" />
<path d="M83178 74436
L83220 74399
L83300 74361
L83413 74361
L83483 74399
L83511 74474
L83459 74886
" />
<path d="M83802 74849
L83872 74886
L84022 74886
L84102 74849
L84148 74774
L84153 74736
L84125 74661
L84055 74624
L83942 74624
L83872 74586
L83844 74511
L83848 74474
L83895 74399
L83975 74361
L84088 74361
L84158 74399
" />
<path d="M84584 74886
L84514 74849
L84481 74811
L84453 74736
L84481 74511
L84528 74436
L84570 74399
L84650 74361
L84762 74361
L84833 74399
L84866 74436
L84894 74511
L84866 74736
L84819 74811
L84777 74849
L84697 74886
L84584 74886
" />
<path d="M85184 74886
L85250 74361
" />
<path d="M85231 74511
L85278 74436
L85320 74399
L85400 74361
L85475 74361
" />
</g></g>
<g style="fill:#840000; fill-opacity:0.0; 
stroke:#840000; stroke-width:60.000000; stroke-opacity:1; 
stroke-linecap:round; stroke-linejoin:round;">
<text x="70079.606299" y="73408.346457"
textLength="15784.015748" font-size="787.401575" lengthAdjust="spacingAndGlyphs"
text-anchor="start" opacity="0">File: temperature_sensor.kicad_sch</text>
<g class="stroked-text"><desc>File: temperature_sensor.kicad_sch</desc>
<path d="M70447 73070
L70250 73070
" />
<path d="M70250 73380
L70250 72789
L70531 72789
" />
<path d="M70756 73380
L70756 72986
" />
<path d="M70756 72789
L70728 72817
L70756 72845
L70784 72817
L70756 72789
L70756 72845
" />
<path d="M71121 73380
L71065 73352
L71037 73295
L71037 72789
" />
<path d="M71571 73352
L71515 73380
L71403 73380
L71346 73352
L71318 73295
L71318 73070
L71346 73014
L71403 72986
L71515 72986
L71571 73014
L71600 73070
L71600 73127
L71318 73183
" />
<path d="M71853 73323
L71881 73352
L71853 73380
L71825 73352
L71853 73323
L71853 73380
" />
<path d="M71853 73014
L71881 73042
L71853 73070
L71825 73042
L71853 73014
L71853 73070
" />
<path d="M72499 72986
L72724 72986
" />
<path d="M72584 72789
L72584 73295
L72612 73352
L72668 73380
L72724 73380
" />
<path d="M73146 73352
L73090 73380
L72977 73380
L72921 73352
L72893 73295
L72893 73070
L72921 73014
L72977 72986
L73090 72986
L73146 73014
L73174 73070
L73174 73127
L72893 73183
" />
<path d="M73427 73380
L73427 72986
" />
<path d="M73427 73042
L73456 73014
L73512 72986
L73596 72986
L73652 73014
L73681 73070
L73681 73380
" />
<path d="M73681 73070
L73709 73014
L73765 72986
L73849 72986
L73905 73014
L73934 73070
L73934 73380
" />
<path d="M74215 72986
L74215 73577
" />
<path d="M74215 73014
L74271 72986
L74384 72986
L74440 73014
L74468 73042
L74496 73098
L74496 73267
L74468 73323
L74440 73352
L74384 73380
L74271 73380
L74215 73352
" />
<path d="M74974 73352
L74918 73380
L74805 73380
L74749 73352
L74721 73295
L74721 73070
L74749 73014
L74805 72986
L74918 72986
L74974 73014
L75002 73070
L75002 73127
L74721 73183
" />
<path d="M75255 73380
L75255 72986
" />
<path d="M75255 73098
L75283 73042
L75312 73014
L75368 72986
L75424 72986
" />
<path d="M75874 73380
L75874 73070
L75846 73014
L75790 72986
L75677 72986
L75621 73014
" />
<path d="M75874 73352
L75818 73380
L75677 73380
L75621 73352
L75593 73295
L75593 73239
L75621 73183
L75677 73155
L75818 73155
L75874 73127
" />
<path d="M76071 72986
L76296 72986
" />
<path d="M76155 72789
L76155 73295
L76183 73352
L76240 73380
L76296 73380
" />
<path d="M76746 72986
L76746 73380
" />
<path d="M76493 72986
L76493 73295
L76521 73352
L76577 73380
L76661 73380
L76718 73352
L76746 73323
" />
<path d="M77027 73380
L77027 72986
" />
<path d="M77027 73098
L77055 73042
L77083 73014
L77139 72986
L77196 72986
" />
<path d="M77618 73352
L77561 73380
L77449 73380
L77393 73352
L77364 73295
L77364 73070
L77393 73014
L77449 72986
L77561 72986
L77618 73014
L77646 73070
L77646 73127
L77364 73183
" />
<path d="M77758 73436
L78208 73436
" />
<path d="M78321 73352
L78377 73380
L78489 73380
L78546 73352
L78574 73295
L78574 73267
L78546 73211
L78489 73183
L78405 73183
L78349 73155
L78321 73098
L78321 73070
L78349 73014
L78405 72986
L78489 72986
L78546 73014
" />
<path d="M79052 73352
L78995 73380
L78883 73380
L78827 73352
L78799 73295
L78799 73070
L78827 73014
L78883 72986
L78995 72986
L79052 73014
L79080 73070
L79080 73127
L78799 73183
" />
<path d="M79333 72986
L79333 73380
" />
<path d="M79333 73042
L79361 73014
L79417 72986
L79502 72986
L79558 73014
L79586 73070
L79586 73380
" />
<path d="M79839 73352
L79895 73380
L80008 73380
L80064 73352
L80092 73295
L80092 73267
L80064 73211
L80008 73183
L79923 73183
L79867 73155
L79839 73098
L79839 73070
L79867 73014
L79923 72986
L80008 72986
L80064 73014
" />
<path d="M80430 73380
L80373 73352
L80345 73323
L80317 73267
L80317 73098
L80345 73042
L80373 73014
L80430 72986
L80514 72986
L80570 73014
L80598 73042
L80627 73098
L80627 73267
L80598 73323
L80570 73352
L80514 73380
L80430 73380
" />
<path d="M80880 73380
L80880 72986
" />
<path d="M80880 73098
L80908 73042
L80936 73014
L80992 72986
L81048 72986
" />
<path d="M81245 73323
L81273 73352
L81245 73380
L81217 73352
L81245 73323
L81245 73380
" />
<path d="M81526 73380
L81526 72789
" />
<path d="M81583 73155
L81751 73380
" />
<path d="M81751 72986
L81526 73211
" />
<path d="M82004 73380
L82004 72986
" />
<path d="M82004 72789
L81976 72817
L82004 72845
L82033 72817
L82004 72789
L82004 72845
" />
<path d="M82539 73352
L82483 73380
L82370 73380
L82314 73352
L82286 73323
L82258 73267
L82258 73098
L82286 73042
L82314 73014
L82370 72986
L82483 72986
L82539 73014
" />
<path d="M83045 73380
L83045 73070
L83017 73014
L82961 72986
L82848 72986
L82792 73014
" />
<path d="M83045 73352
L82989 73380
L82848 73380
L82792 73352
L82764 73295
L82764 73239
L82792 73183
L82848 73155
L82989 73155
L83045 73127
" />
<path d="M83579 73380
L83579 72789
" />
<path d="M83579 73352
L83523 73380
L83411 73380
L83354 73352
L83326 73323
L83298 73267
L83298 73098
L83326 73042
L83354 73014
L83411 72986
L83523 72986
L83579 73014
" />
<path d="M83720 73436
L84170 73436
" />
<path d="M84282 73352
L84339 73380
L84451 73380
L84507 73352
L84535 73295
L84535 73267
L84507 73211
L84451 73183
L84367 73183
L84310 73155
L84282 73098
L84282 73070
L84310 73014
L84367 72986
L84451 72986
L84507 73014
" />
<path d="M85042 73352
L84985 73380
L84873 73380
L84817 73352
L84789 73323
L84760 73267
L84760 73098
L84789 73042
L84817 73014
L84873 72986
L84985 72986
L85042 73014
" />
<path d="M85295 73380
L85295 72789
" />
<path d="M85548 73380
L85548 73070
L85520 73014
L85463 72986
L85379 72986
L85323 73014
L85295 73042
" />
</g><path d="M69685 71459
L112205 71459
" />
<text x="70079.606299" y="72345.354331"
textLength="17382.834646" font-size="787.401575" lengthAdjust="spacingAndGlyphs"
text-anchor="start" opacity="0">Sheet: /Sensing/Temperature_Sensor/</text>
<g class="stroked-text"><desc>Sheet: /Sensing/Temperature_Sensor/</desc>
<path d="M70222 72289
L70306 72317
L70447 72317
L70503 72289
L70531 72260
L70559 72204
L70559 72148
L70531 72092
L70503 72064
L70447 72035
L70334 72007
L70278 71979
L70250 71951
L70222 71895
L70222 71839
L70250 71782
L70278 71754
L70334 71726
L70475 71726
L70559 71754
" />
<path d="M70812 72317
L70812 71726
" />
<path d="M71065 72317
L71065 72007
L71037 71951
L70981 71923
L70897 71923
L70840 71951
L70812 71979
" />
<path d="M71571 72289
L71515 72317
L71403 72317
L71346 72289
L71318 72232
L71318 72007
L71346 71951
L71403 71923
L71515 71923
L71571 71951
L71600 72007
L71600 72064
L71318 72120
" />
<path d="M72078 72289
L72021 72317
L71909 72317
L71853 72289
L71825 72232
L71825 72007
L71853 71951
L71909 71923
L72021 71923
L72078 71951
L72106 72007
L72106 72064
L71825 72120
" />
<path d="M72274 71923
L72499 71923
" />
<path d="M72359 71726
L72359 72232
L72387 72289
L72443 72317
L72499 72317
" />
<path d="M72696 72260
L72724 72289
L72696 72317
L72668 72289
L72696 72260
L72696 72317
" />
<path d="M72696 71951
L72724 71979
L72696 72007
L72668 71979
L72696 71951
L72696 72007
" />
<path d="M73849 71698
L73343 72457
" />
<path d="M74018 72289
L74102 72317
L74243 72317
L74299 72289
L74327 72260
L74355 72204
L74355 72148
L74327 72092
L74299 72064
L74243 72035
L74130 72007
L74074 71979
L74046 71951
L74018 71895
L74018 71839
L74046 71782
L74074 71754
L74130 71726
L74271 71726
L74355 71754
" />
<path d="M74834 72289
L74777 72317
L74665 72317
L74609 72289
L74580 72232
L74580 72007
L74609 71951
L74665 71923
L74777 71923
L74834 71951
L74862 72007
L74862 72064
L74580 72120
" />
<path d="M75115 71923
L75115 72317
" />
<path d="M75115 71979
L75143 71951
L75199 71923
L75283 71923
L75340 71951
L75368 72007
L75368 72317
" />
<path d="M75621 72289
L75677 72317
L75790 72317
L75846 72289
L75874 72232
L75874 72204
L75846 72148
L75790 72120
L75705 72120
L75649 72092
L75621 72035
L75621 72007
L75649 71951
L75705 71923
L75790 71923
L75846 71951
" />
<path d="M76127 72317
L76127 71923
" />
<path d="M76127 71726
L76099 71754
L76127 71782
L76155 71754
L76127 71726
L76127 71782
" />
<path d="M76408 71923
L76408 72317
" />
<path d="M76408 71979
L76436 71951
L76493 71923
L76577 71923
L76633 71951
L76661 72007
L76661 72317
" />
<path d="M77196 71923
L77196 72401
L77168 72457
L77139 72485
L77083 72514
L76999 72514
L76943 72485
" />
<path d="M77196 72289
L77139 72317
L77027 72317
L76971 72289
L76943 72260
L76915 72204
L76915 72035
L76943 71979
L76971 71951
L77027 71923
L77139 71923
L77196 71951
" />
<path d="M77899 71698
L77393 72457
" />
<path d="M78011 71726
L78349 71726
" />
<path d="M78180 72317
L78180 71726
" />
<path d="M78771 72289
L78714 72317
L78602 72317
L78546 72289
L78517 72232
L78517 72007
L78546 71951
L78602 71923
L78714 71923
L78771 71951
L78799 72007
L78799 72064
L78517 72120
" />
<path d="M79052 72317
L79052 71923
" />
<path d="M79052 71979
L79080 71951
L79136 71923
L79220 71923
L79277 71951
L79305 72007
L79305 72317
" />
<path d="M79305 72007
L79333 71951
L79389 71923
L79474 71923
L79530 71951
L79558 72007
L79558 72317
" />
<path d="M79839 71923
L79839 72514
" />
<path d="M79839 71951
L79895 71923
L80008 71923
L80064 71951
L80092 71979
L80120 72035
L80120 72204
L80092 72260
L80064 72289
L80008 72317
L79895 72317
L79839 72289
" />
<path d="M80598 72289
L80542 72317
L80430 72317
L80373 72289
L80345 72232
L80345 72007
L80373 71951
L80430 71923
L80542 71923
L80598 71951
L80627 72007
L80627 72064
L80345 72120
" />
<path d="M80880 72317
L80880 71923
" />
<path d="M80880 72035
L80908 71979
L80936 71951
L80992 71923
L81048 71923
" />
<path d="M81498 72317
L81498 72007
L81470 71951
L81414 71923
L81301 71923
L81245 71951
" />
<path d="M81498 72289
L81442 72317
L81301 72317
L81245 72289
L81217 72232
L81217 72176
L81245 72120
L81301 72092
L81442 72092
L81498 72064
" />
<path d="M81695 71923
L81920 71923
" />
<path d="M81780 71726
L81780 72232
L81808 72289
L81864 72317
L81920 72317
" />
<path d="M82370 71923
L82370 72317
" />
<path d="M82117 71923
L82117 72232
L82145 72289
L82201 72317
L82286 72317
L82342 72289
L82370 72260
" />
<path d="M82651 72317
L82651 71923
" />
<path d="M82651 72035
L82679 71979
L82708 71951
L82764 71923
L82820 71923
" />
<path d="M83242 72289
L83186 72317
L83073 72317
L83017 72289
L82989 72232
L82989 72007
L83017 71951
L83073 71923
L83186 71923
L83242 71951
L83270 72007
L83270 72064
L82989 72120
" />
<path d="M83382 72373
L83832 72373
" />
<path d="M83945 72289
L84029 72317
L84170 72317
L84226 72289
L84254 72260
L84282 72204
L84282 72148
L84254 72092
L84226 72064
L84170 72035
L84057 72007
L84001 71979
L83973 71951
L83945 71895
L83945 71839
L83973 71782
L84001 71754
L84057 71726
L84198 71726
L84282 71754
" />
<path d="M84760 72289
L84704 72317
L84592 72317
L84535 72289
L84507 72232
L84507 72007
L84535 71951
L84592 71923
L84704 71923
L84760 71951
L84789 72007
L84789 72064
L84507 72120
" />
<path d="M85042 71923
L85042 72317
" />
<path d="M85042 71979
L85070 71951
L85126 71923
L85210 71923
L85267 71951
L85295 72007
L85295 72317
" />
<path d="M85548 72289
L85604 72317
L85717 72317
L85773 72289
L85801 72232
L85801 72204
L85773 72148
L85717 72120
L85632 72120
L85576 72092
L85548 72035
L85548 72007
L85576 71951
L85632 71923
L85717 71923
L85773 71951
" />
<path d="M86138 72317
L86082 72289
L86054 72260
L86026 72204
L86026 72035
L86054 71979
L86082 71951
L86138 71923
L86223 71923
L86279 71951
L86307 71979
L86335 72035
L86335 72204
L86307 72260
L86279 72289
L86223 72317
L86138 72317
" />
<path d="M86588 72317
L86588 71923
" />
<path d="M86588 72035
L86616 71979
L86645 71951
L86701 71923
L86757 71923
" />
<path d="M87376 71698
L86870 72457
" />
</g></g>
<g style="fill:#840000; fill-opacity:0.0; 
stroke:#840000; stroke-width:118.110236; stroke-opacity:1; 
stroke-linecap:round; stroke-linejoin:round;">
<text x="70079.606299" y="71164.251969"
textLength="10886.771654" font-size="787.401575" lengthAdjust="spacingAndGlyphs"
text-anchor="start" opacity="0">University of Cape Town</text>
<g class="stroked-text"><desc>University of Cape Town</desc>
<path d="M70296 70545
L70296 71023
L70325 71079
L70353 71107
L70409 71136
L70521 71136
L70578 71107
L70606 71079
L70634 71023
L70634 70545
" />
<path d="M70915 70742
L70915 71136
" />
<path d="M70915 70798
L70943 70770
L71000 70742
L71084 70742
L71140 70770
L71168 70826
L71168 71136
" />
<path d="M71449 71136
L71449 70742
" />
<path d="M71449 70545
L71421 70573
L71449 70601
L71478 70573
L71449 70545
L71449 70601
" />
<path d="M71674 70742
L71815 71136
L71956 70742
" />
<path d="M72406 71107
L72349 71136
L72237 71136
L72181 71107
L72152 71051
L72152 70826
L72181 70770
L72237 70742
L72349 70742
L72406 70770
L72434 70826
L72434 70883
L72152 70939
" />
<path d="M72687 71136
L72687 70742
" />
<path d="M72687 70854
L72715 70798
L72743 70770
L72799 70742
L72856 70742
" />
<path d="M73024 71107
L73080 71136
L73193 71136
L73249 71107
L73277 71051
L73277 71023
L73249 70967
L73193 70939
L73109 70939
L73052 70911
L73024 70854
L73024 70826
L73052 70770
L73109 70742
L73193 70742
L73249 70770
" />
<path d="M73530 71136
L73530 70742
" />
<path d="M73530 70545
L73502 70573
L73530 70601
L73559 70573
L73530 70545
L73530 70601
" />
<path d="M73727 70742
L73952 70742
" />
<path d="M73812 70545
L73812 71051
L73840 71107
L73896 71136
L73952 71136
" />
<path d="M74093 70742
L74233 71136
" />
<path d="M74374 70742
L74233 71136
L74177 71276
L74149 71304
L74093 71332
" />
<path d="M75133 71136
L75077 71107
L75049 71079
L75021 71023
L75021 70854
L75049 70798
L75077 70770
L75133 70742
L75218 70742
L75274 70770
L75302 70798
L75330 70854
L75330 71023
L75302 71079
L75274 71107
L75218 71136
L75133 71136
" />
<path d="M75499 70742
L75724 70742
" />
<path d="M75583 71136
L75583 70629
L75611 70573
L75668 70545
L75724 70545
" />
<path d="M76708 71079
L76680 71107
L76596 71136
L76539 71136
L76455 71107
L76399 71051
L76371 70995
L76343 70883
L76343 70798
L76371 70686
L76399 70629
L76455 70573
L76539 70545
L76596 70545
L76680 70573
L76708 70601
" />
<path d="M77214 71136
L77214 70826
L77186 70770
L77130 70742
L77017 70742
L76961 70770
" />
<path d="M77214 71107
L77158 71136
L77017 71136
L76961 71107
L76933 71051
L76933 70995
L76961 70939
L77017 70911
L77158 70911
L77214 70883
" />
<path d="M77496 70742
L77496 71332
" />
<path d="M77496 70770
L77552 70742
L77664 70742
L77721 70770
L77749 70798
L77777 70854
L77777 71023
L77749 71079
L77721 71107
L77664 71136
L77552 71136
L77496 71107
" />
<path d="M78255 71107
L78199 71136
L78086 71136
L78030 71107
L78002 71051
L78002 70826
L78030 70770
L78086 70742
L78199 70742
L78255 70770
L78283 70826
L78283 70883
L78002 70939
" />
<path d="M78902 70545
L79239 70545
" />
<path d="M79070 71136
L79070 70545
" />
<path d="M79520 71136
L79464 71107
L79436 71079
L79408 71023
L79408 70854
L79436 70798
L79464 70770
L79520 70742
L79605 70742
L79661 70770
L79689 70798
L79717 70854
L79717 71023
L79689 71079
L79661 71107
L79605 71136
L79520 71136
" />
<path d="M79914 70742
L80027 71136
L80139 70854
L80251 71136
L80364 70742
" />
<path d="M80589 70742
L80589 71136
" />
<path d="M80589 70798
L80617 70770
L80673 70742
L80758 70742
L80814 70770
L80842 70826
L80842 71136
" />
</g></g>
<g style="fill:#840000; fill-opacity:0.0; 
stroke:#840000; stroke-width:60.000000; stroke-opacity:1; 
stroke-linecap:round; stroke-linejoin:round;">
<text x="70079.606299" y="69983.149606"
textLength="153.543307" font-size="787.401575" lengthAdjust="spacingAndGlyphs"
text-anchor="start" opacity="0"></text>
<g class="stroked-text"><desc></desc>
</g><text x="70079.606299" y="68802.047244"
textLength="60.000000" font-size="787.401575" lengthAdjust="spacingAndGlyphs"
text-anchor="start" opacity="0"></text>
<g class="stroked-text"><desc></desc>
</g><text x="70079.606299" y="67620.944882"
textLength="60.000000" font-size="787.401575" lengthAdjust="spacingAndGlyphs"
text-anchor="start" opacity="0"></text>
<g class="stroked-text"><desc></desc>
</g><text x="70079.606299" y="66439.842520"
textLength="9733.779528" font-size="787.401575" lengthAdjust="spacingAndGlyphs"
text-anchor="start" opacity="0">Author: Kelvin Yankey</text>
<g class="stroked-text"><desc>Author: Kelvin Yankey</desc>
<path d="M70222 66242
L70503 66242
" />
<path d="M70165 66411
L70362 65821
L70559 66411
" />
<path d="M71009 66017
L71009 66411
" />
<path d="M70756 66017
L70756 66327
L70784 66383
L70840 66411
L70925 66411
L70981 66383
L71009 66355
" />
<path d="M71206 66017
L71431 66017
" />
<path d="M71290 65821
L71290 66327
L71318 66383
L71375 66411
L71431 66411
" />
<path d="M71628 66411
L71628 65821
" />
<path d="M71881 66411
L71881 66102
L71853 66046
L71796 66017
L71712 66017
L71656 66046
L71628 66074
" />
<path d="M72246 66411
L72190 66383
L72162 66355
L72134 66299
L72134 66130
L72162 66074
L72190 66046
L72246 66017
L72331 66017
L72387 66046
L72415 66074
L72443 66130
L72443 66299
L72415 66355
L72387 66383
L72331 66411
L72246 66411
" />
<path d="M72696 66411
L72696 66017
" />
<path d="M72696 66130
L72724 66074
L72752 66046
L72809 66017
L72865 66017
" />
<path d="M73062 66355
L73090 66383
L73062 66411
L73034 66383
L73062 66355
L73062 66411
" />
<path d="M73062 66046
L73090 66074
L73062 66102
L73034 66074
L73062 66046
L73062 66102
" />
<path d="M73793 66411
L73793 65821
" />
<path d="M74130 66411
L73877 66074
" />
<path d="M74130 65821
L73793 66158
" />
<path d="M74609 66383
L74552 66411
L74440 66411
L74384 66383
L74355 66327
L74355 66102
L74384 66046
L74440 66017
L74552 66017
L74609 66046
L74637 66102
L74637 66158
L74355 66214
" />
<path d="M74974 66411
L74918 66383
L74890 66327
L74890 65821
" />
<path d="M75143 66017
L75283 66411
L75424 66017
" />
<path d="M75649 66411
L75649 66017
" />
<path d="M75649 65821
L75621 65849
L75649 65877
L75677 65849
L75649 65821
L75649 65877
" />
<path d="M75930 66017
L75930 66411
" />
<path d="M75930 66074
L75958 66046
L76015 66017
L76099 66017
L76155 66046
L76183 66102
L76183 66411
" />
<path d="M77027 66130
L77027 66411
" />
<path d="M76830 65821
L77027 66130
L77224 65821
" />
<path d="M77674 66411
L77674 66102
L77646 66046
L77589 66017
L77477 66017
L77421 66046
" />
<path d="M77674 66383
L77618 66411
L77477 66411
L77421 66383
L77393 66327
L77393 66271
L77421 66214
L77477 66186
L77618 66186
L77674 66158
" />
<path d="M77955 66017
L77955 66411
" />
<path d="M77955 66074
L77983 66046
L78039 66017
L78124 66017
L78180 66046
L78208 66102
L78208 66411
" />
<path d="M78489 66411
L78489 65821
" />
<path d="M78546 66186
L78714 66411
" />
<path d="M78714 66017
L78489 66242
" />
<path d="M79192 66383
L79136 66411
L79024 66411
L78967 66383
L78939 66327
L78939 66102
L78967 66046
L79024 66017
L79136 66017
L79192 66046
L79220 66102
L79220 66158
L78939 66214
" />
<path d="M79417 66017
L79558 66411
" />
<path d="M79699 66017
L79558 66411
L79502 66552
L79474 66580
L79417 66608
" />
</g><path d="M77559 75396
L77559 76577
" />
<path d="M102756 75396
L102756 77955
" />
<g >
<circle cx="67250.000000" cy="30950.000000" r="300.000000" /> 
<path d="M67250 31250
L67250 32250
" />
</g>
<g style="fill:#006464; fill-opacity:0.0; 
stroke:#006464; stroke-width:60.000000; stroke-opacity:1; 
stroke-linecap:round; stroke-linejoin:round;">
<text x="68709.803150" y="30699.921260"
textLength="1417.125984" font-size="666.653543" lengthAdjust="spacingAndGlyphs"
text-anchor="middle" opacity="0">TP5</text>
<g class="stroked-text"><desc>TP5</desc>
<path d="M68078 30176
L68364 30176
" />
<path d="M68221 30676
L68221 30176
" />
<path d="M68531 30676
L68531 30176
L68721 30176
L68769 30199
L68793 30223
L68816 30271
L68816 30342
L68793 30390
L68769 30414
L68721 30437
L68531 30437
" />
<path d="M69269 30176
L69031 30176
L69007 30414
L69031 30390
L69078 30366
L69197 30366
L69245 30390
L69269 30414
L69293 30461
L69293 30580
L69269 30628
L69245 30652
L69197 30676
L69078 30676
L69031 30652
L69007 30628
" />
</g><text x="69626.496063" y="31699.921260"
textLength="3250.472441" font-size="666.653543" lengthAdjust="spacingAndGlyphs"
text-anchor="middle" opacity="0">TempOut</text>
<g class="stroked-text"><desc>TempOut</desc>
<path d="M68078 31176
L68364 31176
" />
<path d="M68221 31676
L68221 31176
" />
<path d="M68721 31652
L68674 31676
L68578 31676
L68531 31652
L68507 31604
L68507 31414
L68531 31366
L68578 31342
L68674 31342
L68721 31366
L68745 31414
L68745 31461
L68507 31509
" />
<path d="M68959 31676
L68959 31342
" />
<path d="M68959 31390
L68983 31366
L69031 31342
L69102 31342
L69150 31366
L69174 31414
L69174 31676
" />
<path d="M69174 31414
L69197 31366
L69245 31342
L69316 31342
L69364 31366
L69388 31414
L69388 31676
" />
<path d="M69626 31342
L69626 31842
" />
<path d="M69626 31366
L69674 31342
L69769 31342
L69816 31366
L69840 31390
L69864 31437
L69864 31580
L69840 31628
L69816 31652
L69769 31676
L69674 31676
L69626 31652
" />
<path d="M70174 31176
L70269 31176
L70316 31199
L70364 31247
L70388 31342
L70388 31509
L70364 31604
L70316 31652
L70269 31676
L70174 31676
L70126 31652
L70078 31604
L70055 31509
L70055 31342
L70078 31247
L70126 31199
L70174 31176
" />
<path d="M70816 31342
L70816 31676
" />
<path d="M70602 31342
L70602 31604
L70626 31652
L70674 31676
L70745 31676
L70793 31652
L70816 31628
" />
<path d="M70983 31342
L71174 31342
" />
<path d="M71055 31176
L71055 31604
L71078 31652
L71126 31676
L71174 31676
" />
</g></g>
</g>
<g style="fill:#006464; fill-opacity:0.0; 
stroke:#006464; stroke-width:60.000000; stroke-opacity:1; 
stroke-linecap:round; stroke-linejoin:round;">
<g >
</g>
<g style="fill:#840000; fill-opacity:0.0; 
stroke:#840000; stroke-width:60.000000; stroke-opacity:1; 
stroke-linecap:round; stroke-linejoin:round;">
<path style="fill:#840000; fill-opacity:0.0; 
stroke:#840000; stroke-width:60.000000; stroke-opacity:1; 
stroke-linecap:round; stroke-linejoin:round;fill:none"
d="M 56500.000000,44000.000000
56500.000000,44500.000000
57000.000000,44500.000000
56500.000000,45000.000000
56000.000000,44500.000000
56500.000000,44500.000000
" /> 
</g>
<g style="fill:#006464; fill-opacity:0.0; 
stroke:#006464; stroke-width:60.000000; stroke-opacity:1; 
stroke-linecap:round; stroke-linejoin:round;">
<text x="58293.149606" y="44749.921260"
textLength="1583.818898" font-size="666.653543" lengthAdjust="spacingAndGlyphs"
text-anchor="middle" opacity="0">GND</text>
<g class="stroked-text"><desc>GND</desc>
<path d="M57912 44249
L57864 44226
L57793 44226
L57721 44249
L57674 44297
L57650 44345
L57626 44440
L57626 44511
L57650 44607
L57674 44654
L57721 44702
L57793 44726
L57840 44726
L57912 44702
L57935 44678
L57935 44511
L57840 44511
" />
<path d="M58150 44726
L58150 44226
L58435 44726
L58435 44226
" />
<path d="M58674 44726
L58674 44226
L58793 44226
L58864 44249
L58912 44297
L58935 44345
L58959 44440
L58959 44511
L58935 44607
L58912 44654
L58864 44702
L58793 44726
L58674 44726
" />
</g></g>
</g>
<g style="fill:#006464; fill-opacity:0.0; 
stroke:#006464; stroke-width:60.000000; stroke-opacity:1; 
stroke-linecap:round; stroke-linejoin:round;">
<g >
</g>
<g style="fill:#840000; fill-opacity:0.0; 
stroke:#840000; stroke-width:60.000000; stroke-opacity:1; 
stroke-linecap:round; stroke-linejoin:round;">
</g>
<g style="fill:#840000; fill-opacity:0.0; 
stroke:#840000; stroke-width:100.000000; stroke-opacity:1; 
stroke-linecap:round; stroke-linejoin:round;">
<rect x="33000.000000" y="19850.000000" width="2000.000000" height="800.000000" rx="0.000000" />
</g>
<g style="fill:#840000; fill-opacity:0.0; 
stroke:#840000; stroke-width:60.000000; stroke-opacity:1; 
stroke-linecap:round; stroke-linejoin:round;">
<path d="M33000 20250
L32500 20250
" />
<path d="M35000 20250
L35500 20250
" />
</g>
<g style="fill:#006464; fill-opacity:0.0; 
stroke:#006464; stroke-width:60.000000; stroke-opacity:1; 
stroke-linecap:round; stroke-linejoin:round;">
<text x="34000.000000" y="18250.000000"
textLength="1512.362205" font-size="666.653543" lengthAdjust="spacingAndGlyphs"
text-anchor="middle" opacity="0">R12</text>
<g class="stroked-text"><desc>R12</desc>
<path d="M33678 18226
L33511 17988
" />
<path d="M33392 18226
L33392 17726
L33583 17726
L33630 17750
L33654 17773
L33678 17821
L33678 17892
L33654 17940
L33630 17964
L33583 17988
L33392 17988
" />
<path d="M34154 18226
L33869 18226
" />
<path d="M34011 18226
L34011 17726
L33964 17797
L33916 17845
L33869 17869
" />
<path d="M34345 17773
L34369 17750
L34416 17726
L34535 17726
L34583 17750
L34607 17773
L34630 17821
L34630 17869
L34607 17940
L34321 18226
L34630 18226
" />
</g><text x="34000.000000" y="19250.000000"
textLength="1488.582677" font-size="666.653543" lengthAdjust="spacingAndGlyphs"
text-anchor="middle" opacity="0">330</text>
<g class="stroked-text"><desc>330</desc>
<path d="M33357 18726
L33666 18726
L33500 18916
L33571 18916
L33619 18940
L33642 18964
L33666 19011
L33666 19130
L33642 19178
L33619 19202
L33571 19226
L33428 19226
L33380 19202
L33357 19178
" />
<path d="M33833 18726
L34142 18726
L33976 18916
L34047 18916
L34095 18940
L34119 18964
L34142 19011
L34142 19130
L34119 19178
L34095 19202
L34047 19226
L33904 19226
L33857 19202
L33833 19178
" />
<path d="M34452 18726
L34500 18726
L34547 18750
L34571 18773
L34595 18821
L34619 18916
L34619 19035
L34595 19130
L34571 19178
L34547 19202
L34500 19226
L34452 19226
L34404 19202
L34380 19178
L34357 19130
L34333 19035
L34333 18916
L34357 18821
L34380 18773
L34404 18750
L34452 18726
" />
</g></g>
</g>
<g style="fill:#006464; fill-opacity:0.0; 
stroke:#006464; stroke-width:60.000000; stroke-opacity:1; 
stroke-linecap:round; stroke-linejoin:round;">
<g >
</g>
<g style="fill:#840000; fill-opacity:0.0; 
stroke:#840000; stroke-width:60.000000; stroke-opacity:1; 
stroke-linecap:round; stroke-linejoin:round;">
</g>
<g style="fill:#840000; fill-opacity:0.0; 
stroke:#840000; stroke-width:200.000000; stroke-opacity:1; 
stroke-linecap:round; stroke-linejoin:round;">
<path style="fill:#840000; fill-opacity:0.0; 
stroke:#840000; stroke-width:200.000000; stroke-opacity:1; 
stroke-linecap:round; stroke-linejoin:round;fill:none"
d="M 45700.000000,25050.000000
47300.000000,25050.000000
" /> 
<path style="fill:#840000; fill-opacity:0.0; 
stroke:#840000; stroke-width:200.000000; stroke-opacity:1; 
stroke-linecap:round; stroke-linejoin:round;fill:none"
d="M 45700.000000,24450.000000
47300.000000,24450.000000
" /> 
</g>
<g style="fill:#840000; fill-opacity:0.0; 
stroke:#840000; stroke-width:60.000000; stroke-opacity:1; 
stroke-linecap:round; stroke-linejoin:round;">
<path d="M46500 24350
L46500 23250
" />
<path d="M46500 25150
L46500 26250
" />
</g>
<g style="fill:#006464; fill-opacity:0.0; 
stroke:#006464; stroke-width:60.000000; stroke-opacity:1; 
stroke-linecap:round; stroke-linejoin:round;">
<text x="48757.440945" y="24499.921260"
textLength="1512.362205" font-size="666.653543" lengthAdjust="spacingAndGlyphs"
text-anchor="middle" opacity="0">C12</text>
<g class="stroked-text"><desc>C12</desc>
<path d="M48435 24428
L48412 24452
L48340 24476
L48293 24476
L48221 24452
L48174 24404
L48150 24357
L48126 24261
L48126 24190
L48150 24095
L48174 24047
L48221 23999
L48293 23976
L48340 23976
L48412 23999
L48435 24023
" />
<path d="M48912 24476
L48626 24476
" />
<path d="M48769 24476
L48769 23976
L48721 24047
L48674 24095
L48626 24118
" />
<path d="M49102 24023
L49126 23999
L49174 23976
L49293 23976
L49340 23999
L49364 24023
L49388 24071
L49388 24118
L49364 24190
L49078 24476
L49388 24476
" />
</g><text x="48709.803150" y="25499.921260"
textLength="1417.125984" font-size="666.653543" lengthAdjust="spacingAndGlyphs"
text-anchor="middle" opacity="0">1uF</text>
<g class="stroked-text"><desc>1uF</desc>
<path d="M48412 25476
L48126 25476
" />
<path d="M48269 25476
L48269 24976
L48221 25047
L48174 25095
L48126 25118
" />
<path d="M48840 25142
L48840 25476
" />
<path d="M48626 25142
L48626 25404
L48650 25452
L48697 25476
L48769 25476
L48816 25452
L48840 25428
" />
<path d="M49245 25214
L49078 25214
" />
<path d="M49078 25476
L49078 24976
L49316 24976
" />
</g></g>
</g>
<g style="fill:#006464; fill-opacity:0.0; 
stroke:#006464; stroke-width:60.000000; stroke-opacity:1; 
stroke-linecap:round; stroke-linejoin:round;">
<g >
</g>
<g style="fill:#840000; fill-opacity:0.0; 
stroke:#840000; stroke-width:60.000000; stroke-opacity:1; 
stroke-linecap:round; stroke-linejoin:round;">
</g>
<g style="fill:#FFFFC2; fill-opacity:0.0; 
stroke:#FFFFC2; stroke-width:60.000000; stroke-opacity:1; 
stroke-linecap:round; stroke-linejoin:round;">
</g>
<g style="fill:#FFFFC2; fill-opacity:0.6; 
stroke:#FFFFC2; stroke-width:0.039370; stroke-opacity:1; 
stroke-linecap:round; stroke-linejoin:round;">
<rect x="53500.000000" y="30250.000000" width="6000.000000" height="4000.000000" rx="0.000000" />
</g>
<g style="fill:#840000; fill-opacity:0.6; 
stroke:#840000; stroke-width:0.039370; stroke-opacity:1; 
stroke-linecap:round; stroke-linejoin:round;">
</g>
<g style="fill:#840000; fill-opacity:0.0; 
stroke:#840000; stroke-width:100.000000; stroke-opacity:1; 
stroke-linecap:round; stroke-linejoin:round;">
<rect x="53500.000000" y="30250.000000" width="6000.000000" height="4000.000000" rx="0.000000" />
<rect x="53500.000000" y="30250.000000" width="6000.000000" height="4000.000000" rx="0.000000" />
</g>
<g style="fill:#840000; fill-opacity:1.0; 
stroke:#840000; stroke-width:100.000000; stroke-opacity:1; 
stroke-linecap:round; stroke-linejoin:round;">
<circle cx="54750.000000" cy="33250.000000" r="500.000000" /> 
<rect x="54500.000000" y="32250.000000" width="500.000000" height="750.000000" rx="0.000000" />
</g>
<g style="fill:#840000; fill-opacity:0.0; 
stroke:#840000; stroke-width:100.000000; stroke-opacity:1; 
stroke-linecap:round; stroke-linejoin:round;">
<path d="M54999.999619 30999.563668 A250.000000 250.000000 0.0 0 0 54500.000381 30999.563668" />
<path style="fill:#840000; fill-opacity:0.0; 
stroke:#840000; stroke-width:100.000000; stroke-opacity:1; 
stroke-linecap:round; stroke-linejoin:round;fill:none"
d="M 54500.000000,32000.000000
54750.000000,32000.000000
" /> 
<path style="fill:#840000; fill-opacity:0.0; 
stroke:#840000; stroke-width:100.000000; stroke-opacity:1; 
stroke-linecap:round; stroke-linejoin:round;fill:none"
d="M 54500.000000,31750.000000
54750.000000,31750.000000
" /> 
<path style="fill:#840000; fill-opacity:0.0; 
stroke:#840000; stroke-width:100.000000; stroke-opacity:1; 
stroke-linecap:round; stroke-linejoin:round;fill:none"
d="M 54500.000000,31500.000000
54750.000000,31500.000000
" /> 
<path style="fill:#840000; fill-opacity:0.0; 
stroke:#840000; stroke-width:100.000000; stroke-opacity:1; 
stroke-linecap:round; stroke-linejoin:round;fill:none"
d="M 54500.000000,31250.000000
54750.000000,31250.000000
" /> 
<path style="fill:#840000; fill-opacity:0.0; 
stroke:#840000; stroke-width:100.000000; stroke-opacity:1; 
stroke-linecap:round; stroke-linejoin:round;fill:none"
d="M 54500.000000,31000.000000
54500.000000,32250.000000
" /> 
<path style="fill:#840000; fill-opacity:0.0; 
stroke:#840000; stroke-width:100.000000; stroke-opacity:1; 
stroke-linecap:round; stroke-linejoin:round;fill:none"
d="M 54500.000000,31000.000000
54750.000000,31000.000000
" /> 
<path style="fill:#840000; fill-opacity:0.0; 
stroke:#840000; stroke-width:100.000000; stroke-opacity:1; 
stroke-linecap:round; stroke-linejoin:round;fill:none"
d="M 55000.000000,31000.000000
55000.000000,32250.000000
" /> 
</g>
<g style="fill:#840000; fill-opacity:0.0; 
stroke:#840000; stroke-width:60.000000; stroke-opacity:1; 
stroke-linecap:round; stroke-linejoin:round;">
<path d="M56500 30250
L56500 29250
" />
</g>
<g style="fill:#006464; fill-opacity:0.0; 
stroke:#006464; stroke-width:60.000000; stroke-opacity:1; 
stroke-linecap:round; stroke-linejoin:round;">
<g transform="rotate(-90.000000 56500.000000 30650.000000)">
<text x="56500.000000" y="30900.000000"
textLength="1393.346457" font-size="666.653543" lengthAdjust="spacingAndGlyphs"
text-anchor="end" opacity="0">Vdd</text>
</g>
<g class="stroked-text"><desc>Vdd</desc>
<path d="M56226 31965
L56726 31799
L56226 31632
" />
<path d="M56726 31251
L56226 31251
" />
<path d="M56702 31251
L56726 31299
L56726 31394
L56702 31441
L56678 31465
L56630 31489
L56488 31489
L56440 31465
L56416 31441
L56392 31394
L56392 31299
L56416 31251
" />
<path d="M56726 30799
L56226 30799
" />
<path d="M56702 30799
L56726 30846
L56726 30941
L56702 30989
L56678 31013
L56630 31037
L56488 31037
L56440 31013
L56416 30989
L56392 30941
L56392 30846
L56416 30799
" />
</g></g>
<g style="fill:#A90000; fill-opacity:0.0; 
stroke:#A90000; stroke-width:60.000000; stroke-opacity:1; 
stroke-linecap:round; stroke-linejoin:round;">
<g transform="rotate(-90.000000 56400.000000 29750.000000)">
<text x="56400.000000" y="29750.000000"
textLength="536.181102" font-size="666.653543" lengthAdjust="spacingAndGlyphs"
text-anchor="middle" opacity="0">1</text>
</g>
<g class="stroked-text"><desc>1</desc>
<path d="M56376 29607
L56376 29892
" />
<path d="M56376 29750
L55876 29750
L55947 29797
L55995 29845
L56019 29892
" />
</g></g>
<g style="fill:#840000; fill-opacity:0.0; 
stroke:#840000; stroke-width:60.000000; stroke-opacity:1; 
stroke-linecap:round; stroke-linejoin:round;">
<path d="M59500 32250
L60500 32250
" />
</g>
<g style="fill:#006464; fill-opacity:0.0; 
stroke:#006464; stroke-width:60.000000; stroke-opacity:1; 
stroke-linecap:round; stroke-linejoin:round;">
<text x="59100.000000" y="32500.000000"
textLength="1679.055118" font-size="666.653543" lengthAdjust="spacingAndGlyphs"
text-anchor="end" opacity="0">Vout</text>
<g class="stroked-text"><desc>Vout</desc>
<path d="M57498 31976
L57665 32476
L57831 31976
" />
<path d="M58070 32476
L58022 32452
L57998 32428
L57974 32380
L57974 32238
L57998 32190
L58022 32166
L58070 32142
L58141 32142
L58189 32166
L58212 32190
L58236 32238
L58236 32380
L58212 32428
L58189 32452
L58141 32476
L58070 32476
" />
<path d="M58665 32142
L58665 32476
" />
<path d="M58450 32142
L58450 32404
L58474 32452
L58522 32476
L58593 32476
L58641 32452
L58665 32428
" />
<path d="M58831 32142
L59022 32142
" />
<path d="M58903 31976
L58903 32404
L58927 32452
L58974 32476
L59022 32476
" />
</g></g>
<g style="fill:#A90000; fill-opacity:0.0; 
stroke:#A90000; stroke-width:60.000000; stroke-opacity:1; 
stroke-linecap:round; stroke-linejoin:round;">
<text x="60000.000000" y="32150.000000"
textLength="536.181102" font-size="666.653543" lengthAdjust="spacingAndGlyphs"
text-anchor="middle" opacity="0">2</text>
<g class="stroked-text"><desc>2</desc>
<path d="M59857 31673
L59880 31650
L59928 31626
L60047 31626
L60095 31650
L60119 31673
L60142 31721
L60142 31769
L60119 31840
L59833 32126
L60142 32126
" />
</g></g>
<g style="fill:#840000; fill-opacity:0.0; 
stroke:#840000; stroke-width:60.000000; stroke-opacity:1; 
stroke-linecap:round; stroke-linejoin:round;">
<path d="M56500 34250
L56500 35250
" />
</g>
<g style="fill:#006464; fill-opacity:0.0; 
stroke:#006464; stroke-width:60.000000; stroke-opacity:1; 
stroke-linecap:round; stroke-linejoin:round;">
<g transform="rotate(-90.000000 56500.000000 33850.000000)">
<text x="56500.000000" y="34100.000000"
textLength="1583.818898" font-size="666.653543" lengthAdjust="spacingAndGlyphs"
text-anchor="start" opacity="0">GND</text>
</g>
<g class="stroked-text"><desc>GND</desc>
<path d="M56250 33439
L56226 33486
L56226 33558
L56250 33629
L56297 33677
L56345 33700
L56440 33724
L56511 33724
L56607 33700
L56654 33677
L56702 33629
L56726 33558
L56726 33510
L56702 33439
L56678 33415
L56511 33415
L56511 33510
" />
<path d="M56726 33200
L56226 33200
L56726 32915
L56226 32915
" />
<path d="M56726 32677
L56226 32677
L56226 32558
L56250 32486
L56297 32439
L56345 32415
L56440 32391
L56511 32391
L56607 32415
L56654 32439
L56702 32486
L56726 32558
L56726 32677
" />
</g></g>
<g style="fill:#A90000; fill-opacity:0.0; 
stroke:#A90000; stroke-width:60.000000; stroke-opacity:1; 
stroke-linecap:round; stroke-linejoin:round;">
<g transform="rotate(-90.000000 56400.000000 34750.000000)">
<text x="56400.000000" y="34750.000000"
textLength="536.181102" font-size="666.653543" lengthAdjust="spacingAndGlyphs"
text-anchor="middle" opacity="0">3</text>
</g>
<g class="stroked-text"><desc>3</desc>
<path d="M55876 34916
L55876 34607
L56066 34773
L56066 34702
L56090 34654
L56114 34630
L56161 34607
L56280 34607
L56328 34630
L56352 34654
L56376 34702
L56376 34845
L56352 34892
L56328 34916
" />
</g></g>
<g style="fill:#006464; fill-opacity:0.0; 
stroke:#006464; stroke-width:60.000000; stroke-opacity:1; 
stroke-linecap:round; stroke-linejoin:round;">
<text x="52468.740157" y="31999.921260"
textLength="1060.000000" font-size="666.653543" lengthAdjust="spacingAndGlyphs"
text-anchor="middle" opacity="0">U8</text>
<g class="stroked-text"><desc>U8</desc>
<path d="M52087 31476
L52087 31880
L52111 31928
L52135 31952
L52182 31976
L52278 31976
L52325 31952
L52349 31928
L52373 31880
L52373 31476
" />
<path d="M52682 31690
L52635 31666
L52611 31642
L52587 31595
L52587 31571
L52611 31523
L52635 31499
L52682 31476
L52778 31476
L52825 31499
L52849 31523
L52873 31571
L52873 31595
L52849 31642
L52825 31666
L52778 31690
L52682 31690
L52635 31714
L52611 31737
L52587 31785
L52587 31880
L52611 31928
L52635 31952
L52682 31976
L52778 31976
L52825 31952
L52849 31928
L52873 31880
L52873 31785
L52849 31737
L52825 31714
L52778 31690
" />
</g><text x="50123.503937" y="32999.921260"
textLength="5750.472441" font-size="666.653543" lengthAdjust="spacingAndGlyphs"
text-anchor="middle" opacity="0">MCP9700T-ETT</text>
<g class="stroked-text"><desc>MCP9700T-ETT</desc>
<path d="M47397 32976
L47397 32476
L47563 32833
L47730 32476
L47730 32976
" />
<path d="M48254 32928
L48230 32952
L48159 32976
L48111 32976
L48040 32952
L47992 32904
L47968 32857
L47944 32761
L47944 32690
L47968 32595
L47992 32547
L48040 32499
L48111 32476
L48159 32476
L48230 32499
L48254 32523
" />
<path d="M48468 32976
L48468 32476
L48659 32476
L48706 32499
L48730 32523
L48754 32571
L48754 32642
L48730 32690
L48706 32714
L48659 32737
L48468 32737
" />
<path d="M48992 32976
L49087 32976
L49135 32952
L49159 32928
L49206 32857
L49230 32761
L49230 32571
L49206 32523
L49182 32499
L49135 32476
L49040 32476
L48992 32499
L48968 32523
L48944 32571
L48944 32690
L48968 32737
L48992 32761
L49040 32785
L49135 32785
L49182 32761
L49206 32737
L49230 32690
" />
<path d="M49397 32476
L49730 32476
L49516 32976
" />
<path d="M50016 32476
L50063 32476
L50111 32499
L50135 32523
L50159 32571
L50182 32666
L50182 32785
L50159 32880
L50135 32928
L50111 32952
L50063 32976
L50016 32976
L49968 32952
L49944 32928
L49921 32880
L49897 32785
L49897 32666
L49921 32571
L49944 32523
L49968 32499
L50016 32476
" />
<path d="M50492 32476
L50540 32476
L50587 32499
L50611 32523
L50635 32571
L50659 32666
L50659 32785
L50635 32880
L50611 32928
L50587 32952
L50540 32976
L50492 32976
L50444 32952
L50421 32928
L50397 32880
L50373 32785
L50373 32666
L50397 32571
L50421 32523
L50444 32499
L50492 32476
" />
<path d="M50802 32476
L51087 32476
" />
<path d="M50944 32976
L50944 32476
" />
<path d="M51254 32785
L51635 32785
" />
<path d="M51873 32714
L52040 32714
" />
<path d="M52111 32976
L51873 32976
L51873 32476
L52111 32476
" />
<path d="M52254 32476
L52540 32476
" />
<path d="M52397 32976
L52397 32476
" />
<path d="M52635 32476
L52921 32476
" />
<path d="M52778 32976
L52778 32476
" />
</g></g>
</g>
<g style="fill:#006464; fill-opacity:0.0; 
stroke:#006464; stroke-width:62.519685; stroke-opacity:1; 
stroke-linecap:round; stroke-linejoin:round;">
</g>
<g style="fill:#006464; fill-opacity:0.0; 
stroke:#006464; stroke-width:60.000000; stroke-opacity:1; 
stroke-linecap:round; stroke-linejoin:round;">
</g>
<g style="fill:#725600; fill-opacity:0.0; 
stroke:#725600; stroke-width:60.000000; stroke-opacity:1; 
stroke-linecap:round; stroke-linejoin:round;">
<text x="76825.000000" y="32500.000000"
textLength="2512.362205" font-size="666.653543" lengthAdjust="spacingAndGlyphs"
text-anchor="start" opacity="0">Output</text>
<g class="stroked-text"><desc>Output</desc>
<path d="M77069 31976
L77164 31976
L77212 32000
L77259 32047
L77283 32142
L77283 32309
L77259 32404
L77212 32452
L77164 32476
L77069 32476
L77021 32452
L76974 32404
L76950 32309
L76950 32142
L76974 32047
L77021 32000
L77069 31976
" />
<path d="M77712 32142
L77712 32476
" />
<path d="M77497 32142
L77497 32404
L77521 32452
L77569 32476
L77640 32476
L77688 32452
L77712 32428
" />
<path d="M77878 32142
L78069 32142
" />
<path d="M77950 31976
L77950 32404
L77974 32452
L78021 32476
L78069 32476
" />
<path d="M78235 32142
L78235 32642
" />
<path d="M78235 32166
L78283 32142
L78378 32142
L78426 32166
L78450 32190
L78474 32238
L78474 32380
L78450 32428
L78426 32452
L78378 32476
L78283 32476
L78235 32452
" />
<path d="M78902 32142
L78902 32476
" />
<path d="M78688 32142
L78688 32404
L78712 32452
L78759 32476
L78831 32476
L78878 32452
L78902 32428
" />
<path d="M79069 32142
L79259 32142
" />
<path d="M79140 31976
L79140 32404
L79164 32452
L79212 32476
L79259 32476
" />
</g><path style="fill:#725600; fill-opacity:0.0; 
stroke:#725600; stroke-width:60.000000; stroke-opacity:1; 
stroke-linecap:round; stroke-linejoin:round;fill:none"
d="M 76750.000000,32250.000000
76500.000000,32000.000000
76250.000000,32000.000000
76250.000000,32500.000000
76500.000000,32500.000000
Z" /> 
</g>
<g style="fill:#725600; fill-opacity:0.0; 
stroke:#725600; stroke-width:62.519685; stroke-opacity:1; 
stroke-linecap:round; stroke-linejoin:round;">
</g>
<g style="fill:#725600; fill-opacity:0.0; 
stroke:#725600; stroke-width:60.000000; stroke-opacity:1; 
stroke-linecap:round; stroke-linejoin:round;">
<text x="22175.000000" y="20500.000000"
textLength="2274.291339" font-size="666.653543" lengthAdjust="spacingAndGlyphs"
text-anchor="end" opacity="0">Power</text>
<g class="stroked-text"><desc>Power</desc>
<path d="M20049 20476
L20049 19976
L20240 19976
L20287 20000
L20311 20023
L20335 20071
L20335 20142
L20311 20190
L20287 20214
L20240 20238
L20049 20238
" />
<path d="M20621 20476
L20573 20452
L20549 20428
L20525 20380
L20525 20238
L20549 20190
L20573 20166
L20621 20142
L20692 20142
L20740 20166
L20764 20190
L20787 20238
L20787 20380
L20764 20428
L20740 20452
L20692 20476
L20621 20476
" />
<path d="M20954 20142
L21049 20476
L21145 20238
L21240 20476
L21335 20142
" />
<path d="M21716 20452
L21668 20476
L21573 20476
L21525 20452
L21502 20404
L21502 20214
L21525 20166
L21573 20142
L21668 20142
L21716 20166
L21740 20214
L21740 20261
L21502 20309
" />
<path d="M21954 20476
L21954 20142
" />
<path d="M21954 20238
L21978 20190
L22002 20166
L22049 20142
L22097 20142
" />
</g><path style="fill:#725600; fill-opacity:0.0; 
stroke:#725600; stroke-width:60.000000; stroke-opacity:1; 
stroke-linecap:round; stroke-linejoin:round;fill:none"
d="M 22750.000000,20250.000000
22500.000000,20000.000000
22250.000000,20000.000000
22250.000000,20500.000000
22500.000000,20500.000000
Z" /> 
</g>
<g style="fill:#725600; fill-opacity:0.0; 
stroke:#725600; stroke-width:62.519685; stroke-opacity:1; 
stroke-linecap:round; stroke-linejoin:round;">
</g>
<g style="fill:#725600; fill-opacity:0.0; 
stroke:#725600; stroke-width:60.000000; stroke-opacity:1; 
stroke-linecap:round; stroke-linejoin:round;">
</g>
<g style="fill:#0000C2; fill-opacity:0.0; 
stroke:#0000C2; stroke-width:60.000000; stroke-opacity:1; 
stroke-linecap:round; stroke-linejoin:round;">
<text x="29250.000000" y="24642.480315"
textLength="14774.291339" font-size="666.653543" lengthAdjust="spacingAndGlyphs"
text-anchor="start" opacity="0">Low pass filter because powering the </text>
<g class="stroked-text"><desc>Low pass filter because powering the </desc>
<path d="M29637 24618
L29399 24618
L29399 24118
" />
<path d="M29875 24618
L29827 24594
L29803 24571
L29780 24523
L29780 24380
L29803 24332
L29827 24309
L29875 24285
L29946 24285
L29994 24309
L30018 24332
L30041 24380
L30041 24523
L30018 24571
L29994 24594
L29946 24618
L29875 24618
" />
<path d="M30208 24285
L30303 24618
L30399 24380
L30494 24618
L30589 24285
" />
<path d="M31160 24285
L31160 24785
" />
<path d="M31160 24309
L31208 24285
L31303 24285
L31351 24309
L31375 24332
L31399 24380
L31399 24523
L31375 24571
L31351 24594
L31303 24618
L31208 24618
L31160 24594
" />
<path d="M31827 24618
L31827 24356
L31803 24309
L31756 24285
L31660 24285
L31613 24309
" />
<path d="M31827 24594
L31780 24618
L31660 24618
L31613 24594
L31589 24547
L31589 24499
L31613 24451
L31660 24428
L31780 24428
L31827 24404
" />
<path d="M32041 24594
L32089 24618
L32184 24618
L32232 24594
L32256 24547
L32256 24523
L32232 24475
L32184 24451
L32113 24451
L32065 24428
L32041 24380
L32041 24356
L32065 24309
L32113 24285
L32184 24285
L32232 24309
" />
<path d="M32446 24594
L32494 24618
L32589 24618
L32637 24594
L32660 24547
L32660 24523
L32637 24475
L32589 24451
L32518 24451
L32470 24428
L32446 24380
L32446 24356
L32470 24309
L32518 24285
L32589 24285
L32637 24309
" />
<path d="M33184 24285
L33375 24285
" />
<path d="M33256 24618
L33256 24190
L33280 24142
L33327 24118
L33375 24118
" />
<path d="M33541 24618
L33541 24285
" />
<path d="M33541 24118
L33518 24142
L33541 24166
L33565 24142
L33541 24118
L33541 24166
" />
<path d="M33851 24618
L33803 24594
L33780 24547
L33780 24118
" />
<path d="M33970 24285
L34160 24285
" />
<path d="M34041 24118
L34041 24547
L34065 24594
L34113 24618
L34160 24618
" />
<path d="M34518 24594
L34470 24618
L34375 24618
L34327 24594
L34303 24547
L34303 24356
L34327 24309
L34375 24285
L34470 24285
L34518 24309
L34541 24356
L34541 24404
L34303 24451
" />
<path d="M34756 24618
L34756 24285
" />
<path d="M34756 24380
L34780 24332
L34803 24309
L34851 24285
L34899 24285
" />
<path d="M35446 24618
L35446 24118
" />
<path d="M35446 24309
L35494 24285
L35589 24285
L35637 24309
L35660 24332
L35684 24380
L35684 24523
L35660 24571
L35637 24594
L35589 24618
L35494 24618
L35446 24594
" />
<path d="M36089 24594
L36041 24618
L35946 24618
L35899 24594
L35875 24547
L35875 24356
L35899 24309
L35946 24285
L36041 24285
L36089 24309
L36113 24356
L36113 24404
L35875 24451
" />
<path d="M36541 24594
L36494 24618
L36399 24618
L36351 24594
L36327 24571
L36303 24523
L36303 24380
L36327 24332
L36351 24309
L36399 24285
L36494 24285
L36541 24309
" />
<path d="M36970 24618
L36970 24356
L36946 24309
L36899 24285
L36803 24285
L36756 24309
" />
<path d="M36970 24594
L36922 24618
L36803 24618
L36756 24594
L36732 24547
L36732 24499
L36756 24451
L36803 24428
L36922 24428
L36970 24404
" />
<path d="M37422 24285
L37422 24618
" />
<path d="M37208 24285
L37208 24547
L37232 24594
L37280 24618
L37351 24618
L37399 24594
L37422 24571
" />
<path d="M37637 24594
L37684 24618
L37780 24618
L37827 24594
L37851 24547
L37851 24523
L37827 24475
L37780 24451
L37708 24451
L37660 24428
L37637 24380
L37637 24356
L37660 24309
L37708 24285
L37780 24285
L37827 24309
" />
<path d="M38256 24594
L38208 24618
L38113 24618
L38065 24594
L38041 24547
L38041 24356
L38065 24309
L38113 24285
L38208 24285
L38256 24309
L38280 24356
L38280 24404
L38041 24451
" />
<path d="M38875 24285
L38875 24785
" />
<path d="M38875 24309
L38922 24285
L39018 24285
L39065 24309
L39089 24332
L39113 24380
L39113 24523
L39089 24571
L39065 24594
L39018 24618
L38922 24618
L38875 24594
" />
<path d="M39399 24618
L39351 24594
L39327 24571
L39303 24523
L39303 24380
L39327 24332
L39351 24309
L39399 24285
L39470 24285
L39518 24309
L39541 24332
L39565 24380
L39565 24523
L39541 24571
L39518 24594
L39470 24618
L39399 24618
" />
<path d="M39732 24285
L39827 24618
L39922 24380
L40018 24618
L40113 24285
" />
<path d="M40494 24594
L40446 24618
L40351 24618
L40303 24594
L40280 24547
L40280 24356
L40303 24309
L40351 24285
L40446 24285
L40494 24309
L40518 24356
L40518 24404
L40280 24451
" />
<path d="M40732 24618
L40732 24285
" />
<path d="M40732 24380
L40756 24332
L40780 24309
L40827 24285
L40875 24285
" />
<path d="M41041 24618
L41041 24285
" />
<path d="M41041 24118
L41018 24142
L41041 24166
L41065 24142
L41041 24118
L41041 24166
" />
<path d="M41280 24285
L41280 24618
" />
<path d="M41280 24332
L41303 24309
L41351 24285
L41422 24285
L41470 24309
L41494 24356
L41494 24618
" />
<path d="M41946 24285
L41946 24690
L41922 24737
L41899 24761
L41851 24785
L41780 24785
L41732 24761
" />
<path d="M41946 24594
L41899 24618
L41803 24618
L41756 24594
L41732 24571
L41708 24523
L41708 24380
L41732 24332
L41756 24309
L41803 24285
L41899 24285
L41946 24309
" />
<path d="M42494 24285
L42684 24285
" />
<path d="M42565 24118
L42565 24547
L42589 24594
L42637 24618
L42684 24618
" />
<path d="M42851 24618
L42851 24118
" />
<path d="M43065 24618
L43065 24356
L43041 24309
L42994 24285
L42922 24285
L42875 24309
L42851 24332
" />
<path d="M43494 24594
L43446 24618
L43351 24618
L43303 24594
L43280 24547
L43280 24356
L43303 24309
L43351 24285
L43446 24285
L43494 24309
L43518 24356
L43518 24404
L43280 24451
" />
</g><text x="29250.000000" y="25447.480315"
textLength="4393.346457" font-size="666.653543" lengthAdjust="spacingAndGlyphs"
text-anchor="start" opacity="0">sensor with</text>
<g class="stroked-text"><desc>sensor with</desc>
<path d="M29375 25399
L29422 25423
L29518 25423
L29565 25399
L29589 25352
L29589 25328
L29565 25280
L29518 25256
L29446 25256
L29399 25233
L29375 25185
L29375 25161
L29399 25114
L29446 25090
L29518 25090
L29565 25114
" />
<path d="M29994 25399
L29946 25423
L29851 25423
L29803 25399
L29780 25352
L29780 25161
L29803 25114
L29851 25090
L29946 25090
L29994 25114
L30018 25161
L30018 25209
L29780 25256
" />
<path d="M30232 25090
L30232 25423
" />
<path d="M30232 25137
L30256 25114
L30303 25090
L30375 25090
L30422 25114
L30446 25161
L30446 25423
" />
<path d="M30660 25399
L30708 25423
L30803 25423
L30851 25399
L30875 25352
L30875 25328
L30851 25280
L30803 25256
L30732 25256
L30684 25233
L30660 25185
L30660 25161
L30684 25114
L30732 25090
L30803 25090
L30851 25114
" />
<path d="M31160 25423
L31113 25399
L31089 25376
L31065 25328
L31065 25185
L31089 25137
L31113 25114
L31160 25090
L31232 25090
L31280 25114
L31303 25137
L31327 25185
L31327 25328
L31303 25376
L31280 25399
L31232 25423
L31160 25423
" />
<path d="M31541 25423
L31541 25090
" />
<path d="M31541 25185
L31565 25137
L31589 25114
L31637 25090
L31684 25090
" />
<path d="M32184 25090
L32280 25423
L32375 25185
L32470 25423
L32565 25090
" />
<path d="M32756 25423
L32756 25090
" />
<path d="M32756 24923
L32732 24947
L32756 24971
L32780 24947
L32756 24923
L32756 24971
" />
<path d="M32922 25090
L33113 25090
" />
<path d="M32994 24923
L32994 25352
L33018 25399
L33065 25423
L33113 25423
" />
<path d="M33280 25423
L33280 24923
" />
<path d="M33494 25423
L33494 25161
L33470 25114
L33422 25090
L33351 25090
L33303 25114
L33280 25137
" />
</g><text x="29250.000000" y="26252.480315"
textLength="16345.708661" font-size="666.653543" lengthAdjust="spacingAndGlyphs"
text-anchor="start" opacity="0">GPIO pin might introduce noise to results,</text>
<g class="stroked-text"><desc>GPIO pin might introduce noise to results,</desc>
<path d="M29660 25752
L29613 25728
L29541 25728
L29470 25752
L29422 25800
L29399 25847
L29375 25942
L29375 26014
L29399 26109
L29422 26157
L29470 26204
L29541 26228
L29589 26228
L29660 26204
L29684 26181
L29684 26014
L29589 26014
" />
<path d="M29899 26228
L29899 25728
L30089 25728
L30137 25752
L30160 25776
L30184 25823
L30184 25895
L30160 25942
L30137 25966
L30089 25990
L29899 25990
" />
<path d="M30399 26228
L30399 25728
" />
<path d="M30732 25728
L30827 25728
L30875 25752
L30922 25800
L30946 25895
L30946 26061
L30922 26157
L30875 26204
L30827 26228
L30732 26228
L30684 26204
L30637 26157
L30613 26061
L30613 25895
L30637 25800
L30684 25752
L30732 25728
" />
<path d="M31541 25895
L31541 26395
" />
<path d="M31541 25919
L31589 25895
L31684 25895
L31732 25919
L31756 25942
L31780 25990
L31780 26133
L31756 26181
L31732 26204
L31684 26228
L31589 26228
L31541 26204
" />
<path d="M31994 26228
L31994 25895
" />
<path d="M31994 25728
L31970 25752
L31994 25776
L32018 25752
L31994 25728
L31994 25776
" />
<path d="M32232 25895
L32232 26228
" />
<path d="M32232 25942
L32256 25919
L32303 25895
L32375 25895
L32422 25919
L32446 25966
L32446 26228
" />
<path d="M33065 26228
L33065 25895
" />
<path d="M33065 25942
L33089 25919
L33137 25895
L33208 25895
L33256 25919
L33280 25966
L33280 26228
" />
<path d="M33280 25966
L33303 25919
L33351 25895
L33422 25895
L33470 25919
L33494 25966
L33494 26228
" />
<path d="M33732 26228
L33732 25895
" />
<path d="M33732 25728
L33708 25752
L33732 25776
L33756 25752
L33732 25728
L33732 25776
" />
<path d="M34184 25895
L34184 26300
L34160 26347
L34137 26371
L34089 26395
L34018 26395
L33970 26371
" />
<path d="M34184 26204
L34137 26228
L34041 26228
L33994 26204
L33970 26181
L33946 26133
L33946 25990
L33970 25942
L33994 25919
L34041 25895
L34137 25895
L34184 25919
" />
<path d="M34422 26228
L34422 25728
" />
<path d="M34637 26228
L34637 25966
L34613 25919
L34565 25895
L34494 25895
L34446 25919
L34422 25942
" />
<path d="M34803 25895
L34994 25895
" />
<path d="M34875 25728
L34875 26157
L34899 26204
L34946 26228
L34994 26228
" />
<path d="M35541 26228
L35541 25895
" />
<path d="M35541 25728
L35518 25752
L35541 25776
L35565 25752
L35541 25728
L35541 25776
" />
<path d="M35780 25895
L35780 26228
" />
<path d="M35780 25942
L35803 25919
L35851 25895
L35922 25895
L35970 25919
L35994 25966
L35994 26228
" />
<path d="M36160 25895
L36351 25895
" />
<path d="M36232 25728
L36232 26157
L36256 26204
L36303 26228
L36351 26228
" />
<path d="M36518 26228
L36518 25895
" />
<path d="M36518 25990
L36541 25942
L36565 25919
L36613 25895
L36660 25895
" />
<path d="M36899 26228
L36851 26204
L36827 26181
L36803 26133
L36803 25990
L36827 25942
L36851 25919
L36899 25895
L36970 25895
L37018 25919
L37041 25942
L37065 25990
L37065 26133
L37041 26181
L37018 26204
L36970 26228
L36899 26228
" />
<path d="M37494 26228
L37494 25728
" />
<path d="M37494 26204
L37446 26228
L37351 26228
L37303 26204
L37280 26181
L37256 26133
L37256 25990
L37280 25942
L37303 25919
L37351 25895
L37446 25895
L37494 25919
" />
<path d="M37946 25895
L37946 26228
" />
<path d="M37732 25895
L37732 26157
L37756 26204
L37803 26228
L37875 26228
L37922 26204
L37946 26181
" />
<path d="M38399 26204
L38351 26228
L38256 26228
L38208 26204
L38184 26181
L38160 26133
L38160 25990
L38184 25942
L38208 25919
L38256 25895
L38351 25895
L38399 25919
" />
<path d="M38803 26204
L38756 26228
L38660 26228
L38613 26204
L38589 26157
L38589 25966
L38613 25919
L38660 25895
L38756 25895
L38803 25919
L38827 25966
L38827 26014
L38589 26061
" />
<path d="M39422 25895
L39422 26228
" />
<path d="M39422 25942
L39446 25919
L39494 25895
L39565 25895
L39613 25919
L39637 25966
L39637 26228
" />
<path d="M39946 26228
L39899 26204
L39875 26181
L39851 26133
L39851 25990
L39875 25942
L39899 25919
L39946 25895
L40018 25895
L40065 25919
L40089 25942
L40113 25990
L40113 26133
L40089 26181
L40065 26204
L40018 26228
L39946 26228
" />
<path d="M40327 26228
L40327 25895
" />
<path d="M40327 25728
L40303 25752
L40327 25776
L40351 25752
L40327 25728
L40327 25776
" />
<path d="M40541 26204
L40589 26228
L40684 26228
L40732 26204
L40756 26157
L40756 26133
L40732 26085
L40684 26061
L40613 26061
L40565 26038
L40541 25990
L40541 25966
L40565 25919
L40613 25895
L40684 25895
L40732 25919
" />
<path d="M41160 26204
L41113 26228
L41018 26228
L40970 26204
L40946 26157
L40946 25966
L40970 25919
L41018 25895
L41113 25895
L41160 25919
L41184 25966
L41184 26014
L40946 26061
" />
<path d="M41708 25895
L41899 25895
" />
<path d="M41780 25728
L41780 26157
L41803 26204
L41851 26228
L41899 26228
" />
<path d="M42137 26228
L42089 26204
L42065 26181
L42041 26133
L42041 25990
L42065 25942
L42089 25919
L42137 25895
L42208 25895
L42256 25919
L42280 25942
L42303 25990
L42303 26133
L42280 26181
L42256 26204
L42208 26228
L42137 26228
" />
<path d="M42899 26228
L42899 25895
" />
<path d="M42899 25990
L42922 25942
L42946 25919
L42994 25895
L43041 25895
" />
<path d="M43399 26204
L43351 26228
L43256 26228
L43208 26204
L43184 26157
L43184 25966
L43208 25919
L43256 25895
L43351 25895
L43399 25919
L43422 25966
L43422 26014
L43184 26061
" />
<path d="M43613 26204
L43660 26228
L43756 26228
L43803 26204
L43827 26157
L43827 26133
L43803 26085
L43756 26061
L43684 26061
L43637 26038
L43613 25990
L43613 25966
L43637 25919
L43684 25895
L43756 25895
L43803 25919
" />
<path d="M44256 25895
L44256 26228
" />
<path d="M44041 25895
L44041 26157
L44065 26204
L44113 26228
L44184 26228
L44232 26204
L44256 26181
" />
<path d="M44565 26228
L44518 26204
L44494 26157
L44494 25728
" />
<path d="M44684 25895
L44875 25895
" />
<path d="M44756 25728
L44756 26157
L44780 26204
L44827 26228
L44875 26228
" />
<path d="M45018 26204
L45065 26228
L45160 26228
L45208 26204
L45232 26157
L45232 26133
L45208 26085
L45160 26061
L45089 26061
L45041 26038
L45018 25990
L45018 25966
L45041 25919
L45089 25895
L45160 25895
L45208 25919
" />
<path d="M45470 26204
L45470 26228
L45446 26276
L45422 26300
" />
</g><text x="29250.000000" y="27057.480315"
textLength="10845.708661" font-size="666.653543" lengthAdjust="spacingAndGlyphs"
text-anchor="start" opacity="0">because of digital switching</text>
<g class="stroked-text"><desc>because of digital switching</desc>
<path d="M29399 27033
L29399 26533
" />
<path d="M29399 26724
L29446 26700
L29541 26700
L29589 26724
L29613 26747
L29637 26795
L29637 26938
L29613 26986
L29589 27009
L29541 27033
L29446 27033
L29399 27009
" />
<path d="M30041 27009
L29994 27033
L29899 27033
L29851 27009
L29827 26962
L29827 26771
L29851 26724
L29899 26700
L29994 26700
L30041 26724
L30065 26771
L30065 26819
L29827 26866
" />
<path d="M30494 27009
L30446 27033
L30351 27033
L30303 27009
L30280 26986
L30256 26938
L30256 26795
L30280 26747
L30303 26724
L30351 26700
L30446 26700
L30494 26724
" />
<path d="M30922 27033
L30922 26771
L30899 26724
L30851 26700
L30756 26700
L30708 26724
" />
<path d="M30922 27009
L30875 27033
L30756 27033
L30708 27009
L30684 26962
L30684 26914
L30708 26866
L30756 26843
L30875 26843
L30922 26819
" />
<path d="M31375 26700
L31375 27033
" />
<path d="M31160 26700
L31160 26962
L31184 27009
L31232 27033
L31303 27033
L31351 27009
L31375 26986
" />
<path d="M31589 27009
L31637 27033
L31732 27033
L31780 27009
L31803 26962
L31803 26938
L31780 26890
L31732 26866
L31660 26866
L31613 26843
L31589 26795
L31589 26771
L31613 26724
L31660 26700
L31732 26700
L31780 26724
" />
<path d="M32208 27009
L32160 27033
L32065 27033
L32018 27009
L31994 26962
L31994 26771
L32018 26724
L32065 26700
L32160 26700
L32208 26724
L32232 26771
L32232 26819
L31994 26866
" />
<path d="M32899 27033
L32851 27009
L32827 26986
L32803 26938
L32803 26795
L32827 26747
L32851 26724
L32899 26700
L32970 26700
L33018 26724
L33041 26747
L33065 26795
L33065 26938
L33041 26986
L33018 27009
L32970 27033
L32899 27033
" />
<path d="M33208 26700
L33399 26700
" />
<path d="M33280 27033
L33280 26605
L33303 26557
L33351 26533
L33399 26533
" />
<path d="M34160 27033
L34160 26533
" />
<path d="M34160 27009
L34113 27033
L34018 27033
L33970 27009
L33946 26986
L33922 26938
L33922 26795
L33946 26747
L33970 26724
L34018 26700
L34113 26700
L34160 26724
" />
<path d="M34399 27033
L34399 26700
" />
<path d="M34399 26533
L34375 26557
L34399 26581
L34422 26557
L34399 26533
L34399 26581
" />
<path d="M34851 26700
L34851 27105
L34827 27152
L34803 27176
L34756 27200
L34684 27200
L34637 27176
" />
<path d="M34851 27009
L34803 27033
L34708 27033
L34660 27009
L34637 26986
L34613 26938
L34613 26795
L34637 26747
L34660 26724
L34708 26700
L34803 26700
L34851 26724
" />
<path d="M35089 27033
L35089 26700
" />
<path d="M35089 26533
L35065 26557
L35089 26581
L35113 26557
L35089 26533
L35089 26581
" />
<path d="M35256 26700
L35446 26700
" />
<path d="M35327 26533
L35327 26962
L35351 27009
L35399 27033
L35446 27033
" />
<path d="M35827 27033
L35827 26771
L35803 26724
L35756 26700
L35660 26700
L35613 26724
" />
<path d="M35827 27009
L35780 27033
L35660 27033
L35613 27009
L35589 26962
L35589 26914
L35613 26866
L35660 26843
L35780 26843
L35827 26819
" />
<path d="M36137 27033
L36089 27009
L36065 26962
L36065 26533
" />
<path d="M36684 27009
L36732 27033
L36827 27033
L36875 27009
L36899 26962
L36899 26938
L36875 26890
L36827 26866
L36756 26866
L36708 26843
L36684 26795
L36684 26771
L36708 26724
L36756 26700
L36827 26700
L36875 26724
" />
<path d="M37065 26700
L37160 27033
L37256 26795
L37351 27033
L37446 26700
" />
<path d="M37637 27033
L37637 26700
" />
<path d="M37637 26533
L37613 26557
L37637 26581
L37660 26557
L37637 26533
L37637 26581
" />
<path d="M37803 26700
L37994 26700
" />
<path d="M37875 26533
L37875 26962
L37899 27009
L37946 27033
L37994 27033
" />
<path d="M38375 27009
L38327 27033
L38232 27033
L38184 27009
L38160 26986
L38137 26938
L38137 26795
L38160 26747
L38184 26724
L38232 26700
L38327 26700
L38375 26724
" />
<path d="M38589 27033
L38589 26533
" />
<path d="M38803 27033
L38803 26771
L38780 26724
L38732 26700
L38660 26700
L38613 26724
L38589 26747
" />
<path d="M39041 27033
L39041 26700
" />
<path d="M39041 26533
L39018 26557
L39041 26581
L39065 26557
L39041 26533
L39041 26581
" />
<path d="M39280 26700
L39280 27033
" />
<path d="M39280 26747
L39303 26724
L39351 26700
L39422 26700
L39470 26724
L39494 26771
L39494 27033
" />
<path d="M39946 26700
L39946 27105
L39922 27152
L39899 27176
L39851 27200
L39780 27200
L39732 27176
" />
<path d="M39946 27009
L39899 27033
L39803 27033
L39756 27009
L39732 26986
L39708 26938
L39708 26795
L39732 26747
L39756 26724
L39803 26700
L39899 26700
L39946 26724
" />
</g><text x="29250.000000" y="27862.480315"
textLength="13583.818898" font-size="666.653543" lengthAdjust="spacingAndGlyphs"
text-anchor="start" opacity="0">Recommended by application notes</text>
<g class="stroked-text"><desc>Recommended by application notes</desc>
<path d="M29684 27838
L29518 27600
" />
<path d="M29399 27838
L29399 27338
L29589 27338
L29637 27362
L29660 27386
L29684 27433
L29684 27505
L29660 27552
L29637 27576
L29589 27600
L29399 27600
" />
<path d="M30089 27814
L30041 27838
L29946 27838
L29899 27814
L29875 27767
L29875 27576
L29899 27529
L29946 27505
L30041 27505
L30089 27529
L30113 27576
L30113 27624
L29875 27671
" />
<path d="M30541 27814
L30494 27838
L30399 27838
L30351 27814
L30327 27791
L30303 27743
L30303 27600
L30327 27552
L30351 27529
L30399 27505
L30494 27505
L30541 27529
" />
<path d="M30827 27838
L30780 27814
L30756 27791
L30732 27743
L30732 27600
L30756 27552
L30780 27529
L30827 27505
L30899 27505
L30946 27529
L30970 27552
L30994 27600
L30994 27743
L30970 27791
L30946 27814
L30899 27838
L30827 27838
" />
<path d="M31208 27838
L31208 27505
" />
<path d="M31208 27552
L31232 27529
L31280 27505
L31351 27505
L31399 27529
L31422 27576
L31422 27838
" />
<path d="M31422 27576
L31446 27529
L31494 27505
L31565 27505
L31613 27529
L31637 27576
L31637 27838
" />
<path d="M31875 27838
L31875 27505
" />
<path d="M31875 27552
L31899 27529
L31946 27505
L32018 27505
L32065 27529
L32089 27576
L32089 27838
" />
<path d="M32089 27576
L32113 27529
L32160 27505
L32232 27505
L32280 27529
L32303 27576
L32303 27838
" />
<path d="M32732 27814
L32684 27838
L32589 27838
L32541 27814
L32518 27767
L32518 27576
L32541 27529
L32589 27505
L32684 27505
L32732 27529
L32756 27576
L32756 27624
L32518 27671
" />
<path d="M32970 27505
L32970 27838
" />
<path d="M32970 27552
L32994 27529
L33041 27505
L33113 27505
L33160 27529
L33184 27576
L33184 27838
" />
<path d="M33637 27838
L33637 27338
" />
<path d="M33637 27814
L33589 27838
L33494 27838
L33446 27814
L33422 27791
L33399 27743
L33399 27600
L33422 27552
L33446 27529
L33494 27505
L33589 27505
L33637 27529
" />
<path d="M34065 27814
L34018 27838
L33922 27838
L33875 27814
L33851 27767
L33851 27576
L33875 27529
L33922 27505
L34018 27505
L34065 27529
L34089 27576
L34089 27624
L33851 27671
" />
<path d="M34518 27838
L34518 27338
" />
<path d="M34518 27814
L34470 27838
L34375 27838
L34327 27814
L34303 27791
L34280 27743
L34280 27600
L34303 27552
L34327 27529
L34375 27505
L34470 27505
L34518 27529
" />
<path d="M35137 27838
L35137 27338
" />
<path d="M35137 27529
L35184 27505
L35280 27505
L35327 27529
L35351 27552
L35375 27600
L35375 27743
L35351 27791
L35327 27814
L35280 27838
L35184 27838
L35137 27814
" />
<path d="M35541 27505
L35660 27838
" />
<path d="M35780 27505
L35660 27838
L35613 27957
L35589 27981
L35541 28005
" />
<path d="M36565 27838
L36565 27576
L36541 27529
L36494 27505
L36399 27505
L36351 27529
" />
<path d="M36565 27814
L36518 27838
L36399 27838
L36351 27814
L36327 27767
L36327 27719
L36351 27671
L36399 27648
L36518 27648
L36565 27624
" />
<path d="M36803 27505
L36803 28005
" />
<path d="M36803 27529
L36851 27505
L36946 27505
L36994 27529
L37018 27552
L37041 27600
L37041 27743
L37018 27791
L36994 27814
L36946 27838
L36851 27838
L36803 27814
" />
<path d="M37256 27505
L37256 28005
" />
<path d="M37256 27529
L37303 27505
L37399 27505
L37446 27529
L37470 27552
L37494 27600
L37494 27743
L37470 27791
L37446 27814
L37399 27838
L37303 27838
L37256 27814
" />
<path d="M37780 27838
L37732 27814
L37708 27767
L37708 27338
" />
<path d="M37970 27838
L37970 27505
" />
<path d="M37970 27338
L37946 27362
L37970 27386
L37994 27362
L37970 27338
L37970 27386
" />
<path d="M38422 27814
L38375 27838
L38280 27838
L38232 27814
L38208 27791
L38184 27743
L38184 27600
L38208 27552
L38232 27529
L38280 27505
L38375 27505
L38422 27529
" />
<path d="M38851 27838
L38851 27576
L38827 27529
L38780 27505
L38684 27505
L38637 27529
" />
<path d="M38851 27814
L38803 27838
L38684 27838
L38637 27814
L38613 27767
L38613 27719
L38637 27671
L38684 27648
L38803 27648
L38851 27624
" />
<path d="M39018 27505
L39208 27505
" />
<path d="M39089 27338
L39089 27767
L39113 27814
L39160 27838
L39208 27838
" />
<path d="M39375 27838
L39375 27505
" />
<path d="M39375 27338
L39351 27362
L39375 27386
L39399 27362
L39375 27338
L39375 27386
" />
<path d="M39684 27838
L39637 27814
L39613 27791
L39589 27743
L39589 27600
L39613 27552
L39637 27529
L39684 27505
L39756 27505
L39803 27529
L39827 27552
L39851 27600
L39851 27743
L39827 27791
L39803 27814
L39756 27838
L39684 27838
" />
<path d="M40065 27505
L40065 27838
" />
<path d="M40065 27552
L40089 27529
L40137 27505
L40208 27505
L40256 27529
L40280 27576
L40280 27838
" />
<path d="M40899 27505
L40899 27838
" />
<path d="M40899 27552
L40922 27529
L40970 27505
L41041 27505
L41089 27529
L41113 27576
L41113 27838
" />
<path d="M41422 27838
L41375 27814
L41351 27791
L41327 27743
L41327 27600
L41351 27552
L41375 27529
L41422 27505
L41494 27505
L41541 27529
L41565 27552
L41589 27600
L41589 27743
L41565 27791
L41541 27814
L41494 27838
L41422 27838
" />
<path d="M41732 27505
L41922 27505
" />
<path d="M41803 27338
L41803 27767
L41827 27814
L41875 27838
L41922 27838
" />
<path d="M42280 27814
L42232 27838
L42137 27838
L42089 27814
L42065 27767
L42065 27576
L42089 27529
L42137 27505
L42232 27505
L42280 27529
L42303 27576
L42303 27624
L42065 27671
" />
<path d="M42494 27814
L42541 27838
L42637 27838
L42684 27814
L42708 27767
L42708 27743
L42684 27695
L42637 27671
L42565 27671
L42518 27648
L42494 27600
L42494 27576
L42518 27529
L42565 27505
L42637 27505
L42684 27529
" />
</g></g>
<g style="fill:#009600; fill-opacity:0.0; 
stroke:#009600; stroke-width:60.000000; stroke-opacity:1; 
stroke-linecap:round; stroke-linejoin:round;">
<path d="M67250 32250
L76250 32250
" />
<path d="M60500 32250
L67250 32250
" />
<path d="M56500 42500
L46500 42500
" />
<path d="M56500 35250
L56500 42500
" />
<path d="M56500 42500
L56500 44000
" />
<path d="M46500 20250
L46500 23250
" />
<path d="M35500 20250
L46500 20250
" />
<path d="M22750 20250
L32500 20250
" />
<path d="M46500 42500
L46500 26250
" />
<path d="M46500 20250
L56500 20250
" />
<path d="M56500 20250
L56500 29250
" />
</g>
<g style="fill:#009600; fill-opacity:1.0; 
stroke:#009600; stroke-width:60.000000; stroke-opacity:1; 
stroke-linecap:round; stroke-linejoin:round;">
<circle cx="67250.000000" cy="32250.000000" r="180.000000" /> 
<circle cx="56500.000000" cy="42500.000000" r="180.000000" /> 
<circle cx="46500.000000" cy="20250.000000" r="180.000000" /> 
</g> 
</svg>
